<svg width="20" height="22" viewBox="0 0 20 22" fill="none" xmlns="http://www.w3.org/2000/svg">
<path d="M18.5312 10.5781C18.25 10.8594 17.875 11 17.5 11C17.0781 11 16.7031 10.8594 16.4219 10.5781L11.5 5.65625V20C11.5 20.8438 10.7969 21.5 10 21.5C9.25 21.5 8.5 20.8438 8.5 20V5.65625L3.53125 10.5781C2.96875 11.1875 1.98438 11.1875 1.42188 10.5781C0.8125 10.0156 0.8125 9.03125 1.42188 8.46875L8.92188 0.96875C9.48438 0.359375 10.4688 0.359375 11.0312 0.96875L18.5312 8.46875C19.1406 9.03125 19.1406 10.0156 18.5312 10.5781Z" fill="white"/>
</svg>
