<svg width="20" height="20" viewBox="0 0 20 20" fill="none" xmlns="http://www.w3.org/2000/svg">
<circle cx="10" cy="10" r="9.5" stroke="white"/>
<g clip-path="url(#clip0_302_44)">
<path d="M14.6801 5.52288C14.6769 5.51229 14.6732 5.50187 14.6688 5.49168C14.6541 5.45564 14.6324 5.42289 14.6049 5.39536C14.5774 5.36783 14.5446 5.34607 14.5086 5.33137C14.4981 5.32691 14.4873 5.32304 14.4764 5.31976C14.4504 5.31113 14.4234 5.30586 14.396 5.30411C14.3853 5.30292 14.3744 5.3023 14.3636 5.30225C14.3263 5.30283 14.2893 5.30992 14.2544 5.32319L14.2529 5.32379L4.50439 9.22321C4.44373 9.24747 4.39178 9.28944 4.35532 9.34365C4.31886 9.39786 4.29958 9.4618 4.29999 9.52713C4.30041 9.59246 4.32049 9.65615 4.35763 9.7099C4.39477 9.76365 4.44724 9.80496 4.5082 9.82846L8.59863 11.4016L10.1716 15.4917C10.1951 15.5527 10.2363 15.6051 10.2901 15.6423C10.3438 15.6795 10.4075 15.6996 10.4728 15.7H10.475C10.5399 15.7 10.6034 15.6805 10.6572 15.6441C10.711 15.6077 10.7526 15.5561 10.7768 15.4958L14.6768 5.7458C14.6902 5.7107 14.6973 5.67352 14.6979 5.63595C14.6982 5.62534 14.6967 5.6153 14.696 5.60471C14.6943 5.57686 14.689 5.54935 14.6801 5.52288ZM13.0257 6.51478L8.76966 10.7708L5.51494 9.51917L13.0257 6.51478ZM10.481 14.4851L9.22919 11.2304L13.4853 6.97433L10.481 14.4851Z" fill="white"/>
</g>
<defs>
<clipPath id="clip0_302_44">
<rect width="13" height="13" fill="white" transform="translate(3 4)"/>
</clipPath>
</defs>
</svg>
