<svg width="54" height="54" viewBox="0 0 54 54" fill="none" xmlns="http://www.w3.org/2000/svg">
<circle cx="27" cy="27" r="27" fill="#C4302B"/>
<path d="M43.3125 18.8125C42.9375 17.3125 41.75 16.125 40.3125 15.75C37.625 15 27 15 27 15C27 15 16.3125 15 13.625 15.75C12.1875 16.125 11 17.3125 10.625 18.8125C9.875 21.4375 9.875 27.0625 9.875 27.0625C9.875 27.0625 9.875 32.625 10.625 35.3125C11 36.8125 12.1875 37.9375 13.625 38.3125C16.3125 39 27 39 27 39C27 39 37.625 39 40.3125 38.3125C41.75 37.9375 42.9375 36.8125 43.3125 35.3125C44.0625 32.625 44.0625 27.0625 44.0625 27.0625C44.0625 27.0625 44.0625 21.4375 43.3125 18.8125ZM23.5 32.125V22L32.375 27.0625L23.5 32.125Z" fill="white"/>
</svg>
