<svg width="200" height="200" viewBox="0 0 200 200" fill="none" xmlns="http://www.w3.org/2000/svg">
<rect width="200" height="200" fill="white"/>
<path d="M24.4151 15.6434C24.415 15.6433 24.4149 15.6433 24.4149 15.6432L24.5385 15.5133L24.4149 15.6432L24.4151 15.6434Z" stroke="#D2F4FF" stroke-width="2"/>
<path d="M163.676 183.441C163.865 183.271 163.939 183.004 163.841 182.767C163.78 182.624 163.713 182.484 163.639 182.349L163.557 182.204C163.477 182.069 163.389 181.937 163.296 181.81C163.145 181.605 162.88 181.538 162.641 181.618L161.892 181.869C161.608 181.632 161.281 181.438 160.931 181.306L160.769 180.524C160.718 180.273 160.527 180.073 160.278 180.044C160.097 180.019 159.917 180.009 159.733 180.009C159.55 180.009 159.37 180.019 159.192 180.041C158.942 180.071 158.751 180.273 158.701 180.521L158.539 181.306C158.185 181.44 157.862 181.632 157.577 181.869L156.826 181.621C156.587 181.54 156.322 181.608 156.17 181.813C156.077 181.939 155.99 182.071 155.907 182.206L155.828 182.349C155.754 182.484 155.687 182.624 155.626 182.77C155.528 183.004 155.602 183.271 155.791 183.444L156.38 183.978C156.351 184.159 156.335 184.347 156.335 184.539C156.335 184.73 156.351 184.919 156.38 185.102L155.791 185.636C155.602 185.806 155.528 186.073 155.626 186.31C155.687 186.453 155.754 186.593 155.828 186.731L155.907 186.871C155.987 187.009 156.075 187.138 156.17 187.265C156.322 187.47 156.587 187.537 156.826 187.456L157.575 187.206C157.859 187.443 158.185 187.637 158.536 187.769L158.698 188.554C158.748 188.805 158.939 189.004 159.189 189.034C159.367 189.055 159.547 189.066 159.731 189.066C159.914 189.066 160.094 189.055 160.272 189.034C160.522 189.004 160.713 188.802 160.763 188.554L160.925 187.769C161.279 187.634 161.602 187.443 161.887 187.206L162.635 187.456C162.874 187.537 163.14 187.47 163.291 187.265C163.384 187.138 163.472 187.009 163.551 186.871L163.634 186.726C163.708 186.591 163.774 186.451 163.835 186.308C163.934 186.073 163.859 185.806 163.671 185.633L163.081 185.1C163.11 184.916 163.126 184.727 163.126 184.536C163.126 184.345 163.11 184.156 163.081 183.972L163.671 183.439L163.676 183.441ZM161.008 184.539C161.008 185.253 160.437 185.833 159.733 185.833C159.03 185.833 158.459 185.253 158.459 184.539C158.459 183.824 159.03 183.244 159.733 183.244C160.437 183.244 161.008 183.824 161.008 184.539ZM168.885 193.289C169.052 193.48 169.315 193.556 169.549 193.456C169.69 193.394 169.828 193.327 169.96 193.251L170.104 193.167C170.236 193.087 170.367 192.998 170.491 192.903C170.693 192.749 170.76 192.48 170.68 192.237L170.433 191.477C170.667 191.188 170.858 190.857 170.988 190.501L171.76 190.336C172.007 190.285 172.204 190.091 172.233 189.837C172.254 189.657 172.265 189.473 172.265 189.287C172.265 189.101 172.254 188.918 172.233 188.737C172.204 188.484 172.005 188.29 171.76 188.238L170.988 188.071C170.855 187.712 170.667 187.383 170.433 187.095L170.68 186.335C170.76 186.092 170.693 185.822 170.491 185.669C170.367 185.574 170.236 185.485 170.104 185.402L169.963 185.321C169.83 185.245 169.692 185.178 169.549 185.116C169.318 185.016 169.055 185.091 168.885 185.283L168.359 185.882C168.179 185.852 167.993 185.836 167.805 185.836C167.616 185.836 167.43 185.852 167.25 185.882L166.724 185.283C166.557 185.091 166.294 185.016 166.06 185.116C165.919 185.178 165.781 185.245 165.646 185.321L165.508 185.402C165.373 185.482 165.245 185.571 165.12 185.669C164.919 185.822 164.852 186.092 164.932 186.335L165.179 187.095C164.945 187.383 164.754 187.715 164.624 188.071L163.851 188.233C163.604 188.284 163.408 188.478 163.379 188.732C163.357 188.912 163.347 189.096 163.347 189.282C163.347 189.468 163.357 189.651 163.379 189.832C163.408 190.085 163.607 190.28 163.851 190.331L164.624 190.495C164.757 190.854 164.945 191.183 165.179 191.471L164.932 192.232C164.852 192.474 164.919 192.744 165.12 192.898C165.245 192.992 165.373 193.081 165.508 193.162L165.651 193.246C165.784 193.321 165.922 193.389 166.063 193.451C166.294 193.55 166.557 193.475 166.727 193.283L167.252 192.685C167.433 192.714 167.619 192.731 167.807 192.731C167.996 192.731 168.182 192.714 168.362 192.685L168.888 193.283L168.885 193.289ZM167.805 190.579C167.101 190.579 166.53 189.999 166.53 189.285C166.53 188.57 167.101 187.99 167.805 187.99C168.508 187.99 169.079 188.57 169.079 189.285C169.079 189.999 168.508 190.579 167.805 190.579Z" fill="#D2F4FF"/>
<path d="M55.1744 119.068C54.9972 118.732 54.6947 118.472 54.3295 118.351H56.2104C55.7904 118.471 55.4282 118.727 55.1744 119.068ZM62.1764 119.068C61.9226 118.727 61.5603 118.471 61.1404 118.351H63.0213C62.656 118.472 62.3535 118.732 62.1764 119.068ZM64.7823 122.163C65.0025 122.112 65.2041 122.012 65.3749 121.876V122.45C65.2041 122.313 65.0025 122.214 64.7823 122.163ZM64.7823 126.013C65.0025 125.962 65.2041 125.862 65.3749 125.725V126.3C65.2041 126.163 65.0025 126.063 64.7823 126.013ZM62.1764 129.108C62.3535 129.444 62.656 129.703 63.0213 129.825H61.1404C61.5603 129.705 61.9226 129.449 62.1764 129.108ZM55.1744 129.108C55.4282 129.449 55.7904 129.705 56.2104 129.825H54.3295C54.6947 129.703 54.9972 129.444 55.1744 129.108ZM52.5684 126.013C52.3482 126.063 52.1466 126.163 51.9759 126.3V125.725C52.1466 125.862 52.3482 125.962 52.5684 126.013ZM52.5684 122.163C52.3482 122.214 52.1466 122.313 51.9759 122.45V121.876C52.1466 122.012 52.3482 122.112 52.5684 122.163ZM54.8119 122.47C54.6362 122.323 54.4261 122.216 54.1955 122.163C54.4157 122.112 54.6173 122.012 54.7881 121.876V122.163C54.7881 122.267 54.7962 122.37 54.8119 122.47ZM55.3444 123.607C55.3444 123.581 55.3438 123.556 55.3425 123.531C55.6141 123.81 55.9684 124.009 56.3661 124.088C55.9684 124.167 55.6141 124.365 55.3425 124.645C55.3438 124.62 55.3444 124.595 55.3444 124.569V123.607ZM62.0083 124.645C61.7367 124.365 61.3824 124.167 60.9847 124.088C61.3824 124.009 61.7367 123.81 62.0083 123.531C62.007 123.556 62.0063 123.581 62.0063 123.607V124.569C62.0063 124.595 62.007 124.62 62.0083 124.645ZM63.1552 122.163C62.9247 122.216 62.7146 122.323 62.5389 122.47C62.5546 122.37 62.5627 122.267 62.5627 122.163V121.876C62.7334 122.012 62.935 122.112 63.1552 122.163ZM62.5627 126.013C62.5627 125.908 62.5546 125.806 62.5389 125.706C62.7146 125.853 62.9247 125.96 63.1552 126.013C62.935 126.063 62.7334 126.163 62.5627 126.3V126.013ZM54.1955 126.013C54.4261 125.96 54.6362 125.853 54.8119 125.706C54.7962 125.806 54.7881 125.908 54.7881 126.013V126.3C54.6173 126.163 54.4157 126.063 54.1955 126.013Z" stroke="#D2F4FF" stroke-width="2"/>
<path d="M53.4778 43.6409C54.1083 43.2593 54.8587 43.9074 54.5729 44.5867C54.4451 44.8905 54.5275 45.242 54.7769 45.4575C55.3347 45.9392 54.9502 46.8531 54.2158 46.7913C53.8874 46.7636 53.5785 46.9506 53.4507 47.2544C53.165 47.9337 52.1769 47.8504 52.0088 47.1329C51.9336 46.812 51.6604 46.576 51.332 46.5484C50.5976 46.4865 50.3714 45.5211 51.0019 45.1395C51.2838 44.9688 51.4238 44.636 51.3487 44.3151C51.1806 43.5976 52.0289 43.0841 52.5866 43.5658C52.8361 43.7812 53.1958 43.8116 53.4778 43.6409Z" fill="#D2F4FF"/>
<path d="M181.144 132.085C181.973 131.584 182.959 132.436 182.584 133.328L181.37 136.213C181.202 136.613 181.311 137.075 181.638 137.358L184.007 139.403C184.74 140.037 184.235 141.238 183.269 141.157L180.151 140.894C179.719 140.858 179.313 141.103 179.145 141.503L177.932 144.387C177.556 145.28 176.257 145.171 176.036 144.228L175.322 141.181C175.224 140.759 174.864 140.449 174.433 140.412L171.314 140.15C170.349 140.068 170.052 138.799 170.88 138.298L173.558 136.677C173.928 136.453 174.112 136.015 174.014 135.594L173.3 132.546C173.079 131.603 174.194 130.928 174.927 131.562L177.295 133.607C177.623 133.89 178.096 133.93 178.467 133.706L181.144 132.085Z" fill="#D2F4FF"/>
<path d="M30.2002 173.37C31.0289 172.869 32.0154 173.721 31.6398 174.613L31.1701 175.73C31.0022 176.129 31.1104 176.591 31.4383 176.874L32.3549 177.666C33.088 178.299 32.5826 179.501 31.6173 179.419L30.4105 179.318C29.9788 179.281 29.5728 179.527 29.4048 179.926L28.9352 181.043C28.5596 181.936 27.2607 181.826 27.0398 180.883L26.7635 179.704C26.6647 179.282 26.3055 178.972 25.8738 178.935L24.667 178.834C23.7017 178.752 23.4044 177.483 24.2332 176.982L25.2693 176.355C25.6399 176.13 25.8239 175.693 25.7251 175.271L25.4489 174.092C25.2279 173.149 26.343 172.474 27.0761 173.107L27.9927 173.899C28.3206 174.182 28.7935 174.222 29.1641 173.997L30.2002 173.37Z" fill="#D2F4FF"/>
<path d="M85.6665 81.99C86.4918 81.4905 87.4741 82.3389 87.1001 83.2281C86.9328 83.6258 87.0406 84.086 87.3671 84.368C88.0972 84.9985 87.5939 86.1949 86.6326 86.114C86.2027 86.0778 85.7984 86.3225 85.6311 86.7201C85.257 87.6094 83.9636 87.5004 83.7436 86.5611C83.6452 86.1411 83.2875 85.8322 82.8576 85.796C81.8963 85.715 81.6002 84.4512 82.4255 83.9517C82.7946 83.7283 82.9778 83.2926 82.8794 82.8726C82.6594 81.9333 83.7698 81.2612 84.4999 81.8918C84.8265 82.1738 85.2974 82.2134 85.6665 81.99Z" fill="#D2F4FF"/>
<path d="M170.833 29.3864C170.705 28.8131 171.065 28.2465 171.638 28.1184C179.081 26.4553 186.459 31.1385 188.122 38.5815C188.25 39.1547 187.891 39.7214 187.317 39.8495C186.744 39.9776 186.177 39.6179 186.049 39.0446C184.642 32.7483 178.397 28.7844 172.101 30.1912C171.528 30.3193 170.961 29.9597 170.833 29.3864ZM177.526 39.8609C177.782 41.0042 177.06 42.1415 175.917 42.3969C174.773 42.6524 173.636 41.9305 173.38 40.7872C173.125 39.6439 173.847 38.5066 174.99 38.2512C176.133 37.9957 177.271 38.7176 177.526 39.8609ZM172.564 32.2641C177.717 31.1127 182.825 34.3548 183.976 39.5078C184.105 40.0811 183.745 40.6477 183.172 40.7758C182.598 40.9039 182.032 40.5443 181.904 39.971C181.008 35.9645 177.034 33.4418 173.027 34.337C172.454 34.4651 171.887 34.1054 171.759 33.5321C171.631 32.9589 171.991 32.3922 172.564 32.2641Z" fill="#D2F4FF"/>
<rect x="18.523" y="85.9598" width="5.43398" height="5.43398" stroke="#D2F4FF" stroke-width="2"/>
<rect x="69.6805" y="194.852" width="12.868" height="12.868" transform="rotate(-78.2873 69.6805 194.852)" stroke="#D2F4FF" stroke-width="2"/>
<rect x="125.081" y="52.6356" width="4.561" height="4.561" transform="rotate(47.4397 125.081 52.6356)" stroke="#D2F4FF" stroke-width="2"/>
<circle cx="106.996" cy="151.069" r="5.10649" stroke="#D2F4FF" stroke-width="2"/>
<circle cx="175.495" cy="78.8533" r="5.10649" stroke="#D2F4FF" stroke-width="2"/>
<circle cx="123.988" cy="14.6025" r="5.10649" stroke="#D2F4FF" stroke-width="2"/>
<path d="M135.869 111.681L132.572 108.704C132.679 108.119 133.002 107.591 133.484 107.229L133.484 107.228L141.804 100.966L141.805 100.965C142.07 100.766 142.437 100.785 142.68 101.013C142.926 101.244 142.971 101.619 142.791 101.9C142.791 101.9 142.791 101.9 142.79 101.9L137.109 110.716C137.109 110.716 137.108 110.716 137.108 110.717C136.81 111.176 136.37 111.511 135.869 111.681ZM130.477 111.025L133.902 114.117C133.807 115.664 132.53 116.882 130.971 116.882H125.909C125.843 116.882 125.785 116.828 125.785 116.753C125.785 116.679 125.843 116.625 125.909 116.625H126.078C126.777 116.625 127.315 116.243 127.635 115.798C127.949 115.36 128.107 114.796 128.05 114.24L128.05 114.237C128.04 114.139 128.034 114.037 128.034 113.933C128.034 112.471 129.095 111.259 130.477 111.025Z" stroke="#D2F4FF" stroke-width="2"/>
</svg>
