<svg width="20" height="20" viewBox="0 0 20 20" fill="none" xmlns="http://www.w3.org/2000/svg">
<path d="M6.43242 4.7455L8.51483 4.64909C8.7367 4.63002 8.94623 4.78739 9.00372 5.01627L9.53321 7.33655C9.575 7.54272 9.47878 7.74355 9.30052 7.84999L7.95313 8.59676C8.3783 10.1833 9.36433 11.6339 10.7333 12.6183L11.9079 11.6216C12.0704 11.4925 12.2923 11.4734 12.4704 11.5853L14.454 12.9004C14.6478 13.035 14.7018 13.2831 14.6248 13.4875L13.799 15.4015C13.7028 15.6024 13.5053 15.7053 13.2747 15.6632C8.35597 14.7654 5.08543 10.0587 5.9867 5.12079C6.02528 4.90943 6.21055 4.76457 6.43242 4.7455Z" fill="white"/>
<circle cx="10" cy="10" r="9.5" stroke="white"/>
</svg>
