<svg width="22" height="20" viewBox="0 0 22 20" fill="none" xmlns="http://www.w3.org/2000/svg">
<path d="M11.4219 18.5312C11.1406 18.25 11 17.875 11 17.5C11 17.0781 11.1406 16.7031 11.4219 16.4219L16.3437 11.5L2 11.5C1.15625 11.5 0.5 10.7969 0.5 10C0.5 9.25 1.15625 8.5 2 8.5L16.3437 8.5L11.4219 3.53125C10.8125 2.96875 10.8125 1.98437 11.4219 1.42187C11.9844 0.8125 12.9688 0.8125 13.5312 1.42187L21.0312 8.92187C21.6406 9.48437 21.6406 10.4687 21.0312 11.0312L13.5312 18.5312C12.9687 19.1406 11.9844 19.1406 11.4219 18.5312Z" fill="#1D5E96"/>
</svg>
