<svg width="54" height="54" viewBox="0 0 54 54" fill="none" xmlns="http://www.w3.org/2000/svg">
<circle cx="27" cy="27" r="27" fill="black"/>
<path d="M42 23.125C39.1875 23.1875 36.5625 22.3125 34.3125 20.6875V31.875C34.3125 39.6875 25.8125 44.5625 19.0625 40.6875C12.3125 36.75 12.3125 27 19.0625 23.0625C21 21.9375 23.3125 21.5 25.5625 21.8125V27.4375C22.125 26.3125 18.8125 29.375 19.5625 32.875C20.375 36.375 24.625 37.75 27.3125 35.3125C28.25 34.4375 28.8125 33.1875 28.8125 31.875V10H34.3125C34.3125 10.5 34.3125 10.9375 34.4375 11.4375C34.8125 13.5 36 15.3125 37.8125 16.4375C39 17.25 40.5 17.6875 42 17.6875V23.125Z" fill="white"/>
</svg>
