<svg width="54" height="54" viewBox="0 0 54 54" fill="none" xmlns="http://www.w3.org/2000/svg">
<circle cx="27" cy="27" r="27" fill="#00ACEE"/>
<path d="M40.6875 20.5C40.6875 20.8125 40.6875 21.0625 40.6875 21.375C40.6875 30.0625 34.125 40 22.0625 40C18.3125 40 14.875 38.9375 12 37.0625C12.5 37.125 13 37.1875 13.5625 37.1875C16.625 37.1875 19.4375 36.125 21.6875 34.375C18.8125 34.3125 16.375 32.4375 15.5625 29.8125C16 29.875 16.375 29.9375 16.8125 29.9375C17.375 29.9375 18 29.8125 18.5 29.6875C15.5 29.0625 13.25 26.4375 13.25 23.25V23.1875C14.125 23.6875 15.1875 23.9375 16.25 24C14.4375 22.8125 13.3125 20.8125 13.3125 18.5625C13.3125 17.3125 13.625 16.1875 14.1875 15.25C17.4375 19.1875 22.3125 21.8125 27.75 22.125C27.625 21.625 27.5625 21.125 27.5625 20.625C27.5625 17 30.5 14.0625 34.125 14.0625C36 14.0625 37.6875 14.8125 38.9375 16.125C40.375 15.8125 41.8125 15.25 43.0625 14.5C42.5625 16.0625 41.5625 17.3125 40.1875 18.125C41.5 18 42.8125 17.625 43.9375 17.125C43.0625 18.4375 41.9375 19.5625 40.6875 20.5Z" fill="white"/>
</svg>
