<svg width="788" height="122" viewBox="0 0 788 122" fill="none" xmlns="http://www.w3.org/2000/svg">
<path d="M58.5215 22.167L26.4238 120H0.567383L44.418 1.98438H60.8721L58.5215 22.167ZM85.1885 120L53.0098 22.167L50.416 1.98438H67.0322L111.126 120H85.1885ZM83.7295 76.0684V95.1162H21.3984V76.0684H83.7295Z" fill="url(#paint0_linear_384_13)" fill-opacity="0.23"/>
<path d="M168.27 68.2061H137.955L137.793 51.5088H163.244C167.729 51.5088 171.404 50.9414 174.268 49.8066C177.132 48.6178 179.266 46.9157 180.671 44.7002C182.13 42.4307 182.859 39.6748 182.859 36.4326C182.859 32.7581 182.157 29.7861 180.752 27.5166C179.401 25.2471 177.267 23.599 174.349 22.5723C171.485 21.5456 167.783 21.0322 163.244 21.0322H146.385V120H122.068V1.98438H163.244C170.107 1.98438 176.24 2.63281 181.644 3.92969C187.101 5.22656 191.721 7.19889 195.504 9.84668C199.286 12.4945 202.177 15.8447 204.177 19.8975C206.176 23.8962 207.176 28.6514 207.176 34.1631C207.176 39.0264 206.068 43.5114 203.853 47.6182C201.691 51.7249 198.26 55.0752 193.559 57.6689C188.911 60.2627 182.832 61.6947 175.321 61.9648L168.27 68.2061ZM167.216 120H131.309L140.792 101.033H167.216C171.485 101.033 174.97 100.358 177.672 99.0068C180.374 97.6019 182.373 95.7106 183.67 93.333C184.967 90.9554 185.615 88.2266 185.615 85.1465C185.615 81.6882 185.021 78.6891 183.832 76.1494C182.697 73.6097 180.86 71.6644 178.32 70.3135C175.781 68.9085 172.43 68.2061 168.27 68.2061H144.845L145.007 51.5088H174.187L179.779 58.0742C186.966 57.9661 192.748 59.236 197.125 61.8838C201.556 64.4775 204.771 67.8548 206.771 72.0156C208.824 76.1764 209.851 80.6344 209.851 85.3896C209.851 92.9548 208.202 99.3311 204.906 104.519C201.61 109.652 196.774 113.516 190.397 116.109C184.075 118.703 176.348 120 167.216 120Z" fill="url(#paint1_linear_384_13)" fill-opacity="0.23"/>
<path d="M325.029 58.2363V63.8291C325.029 72.7992 323.813 80.8506 321.382 87.9834C318.95 95.1162 315.519 101.195 311.088 106.221C306.657 111.192 301.361 115.002 295.201 117.649C289.095 120.297 282.313 121.621 274.856 121.621C267.453 121.621 260.672 120.297 254.512 117.649C248.406 115.002 243.11 111.192 238.625 106.221C234.14 101.195 230.655 95.1162 228.169 87.9834C225.737 80.8506 224.521 72.7992 224.521 63.8291V58.2363C224.521 49.2122 225.737 41.1608 228.169 34.082C230.601 26.9492 234.032 20.8701 238.463 15.8447C242.948 10.8193 248.243 6.98275 254.35 4.33496C260.51 1.68717 267.291 0.363281 274.694 0.363281C282.151 0.363281 288.933 1.68717 295.039 4.33496C301.199 6.98275 306.495 10.8193 310.926 15.8447C315.411 20.8701 318.869 26.9492 321.301 34.082C323.786 41.1608 325.029 49.2122 325.029 58.2363ZM300.47 63.8291V58.0742C300.47 51.806 299.902 46.2943 298.768 41.5391C297.633 36.7839 295.958 32.7852 293.742 29.543C291.527 26.3008 288.825 23.8691 285.637 22.248C282.449 20.5729 278.801 19.7354 274.694 19.7354C270.588 19.7354 266.94 20.5729 263.752 22.248C260.618 23.8691 257.943 26.3008 255.728 29.543C253.566 32.7852 251.918 36.7839 250.783 41.5391C249.648 46.2943 249.081 51.806 249.081 58.0742V63.8291C249.081 70.0433 249.648 75.555 250.783 80.3643C251.918 85.1195 253.593 89.1452 255.809 92.4414C258.024 95.6836 260.726 98.1423 263.914 99.8174C267.102 101.493 270.75 102.33 274.856 102.33C278.963 102.33 282.611 101.493 285.799 99.8174C288.987 98.1423 291.662 95.6836 293.823 92.4414C295.985 89.1452 297.633 85.1195 298.768 80.3643C299.902 75.555 300.47 70.0433 300.47 63.8291Z" fill="url(#paint2_linear_384_13)" fill-opacity="0.23"/>
<path d="M407.705 1.98438H431.94V79.959C431.94 89.0371 429.995 96.6833 426.104 102.897C422.268 109.112 416.945 113.786 410.137 116.92C403.382 120.054 395.601 121.621 386.793 121.621C377.985 121.621 370.15 120.054 363.287 116.92C356.479 113.786 351.129 109.112 347.238 102.897C343.402 96.6833 341.483 89.0371 341.483 79.959V1.98438H365.8V79.959C365.8 85.2546 366.637 89.5775 368.312 92.9277C369.988 96.278 372.392 98.7367 375.526 100.304C378.715 101.871 382.47 102.654 386.793 102.654C391.224 102.654 394.979 101.871 398.06 100.304C401.194 98.7367 403.571 96.278 405.192 92.9277C406.868 89.5775 407.705 85.2546 407.705 79.959V1.98438Z" fill="url(#paint3_linear_384_13)" fill-opacity="0.23"/>
<path d="M504.728 1.98438V120H480.492V1.98438H504.728ZM541.04 1.98438V21.0322H444.747V1.98438H541.04Z" fill="url(#paint4_linear_384_13)" fill-opacity="0.23"/>
<path d="M657.029 1.98438H681.265V79.959C681.265 89.0371 679.319 96.6833 675.429 102.897C671.592 109.112 666.27 113.786 659.461 116.92C652.706 120.054 644.925 121.621 636.117 121.621C627.309 121.621 619.474 120.054 612.611 116.92C605.803 113.786 600.453 109.112 596.562 102.897C592.726 96.6833 590.808 89.0371 590.808 79.959V1.98438H615.124V79.959C615.124 85.2546 615.962 89.5775 617.637 92.9277C619.312 96.278 621.716 98.7367 624.851 100.304C628.039 101.871 631.794 102.654 636.117 102.654C640.548 102.654 644.304 101.871 647.384 100.304C650.518 98.7367 652.896 96.278 654.517 92.9277C656.192 89.5775 657.029 85.2546 657.029 79.959V1.98438Z" fill="url(#paint5_linear_384_13)" fill-opacity="0.23"/>
<path d="M762.725 89.1182C762.725 87.0107 762.4 85.1195 761.752 83.4443C761.158 81.7152 760.023 80.1481 758.348 78.7432C756.673 77.2842 754.322 75.8522 751.296 74.4473C748.27 73.0423 744.352 71.5833 739.543 70.0703C734.193 68.3411 729.114 66.3958 724.305 64.2344C719.549 62.0729 715.335 59.5602 711.66 56.6963C708.04 53.7783 705.176 50.401 703.068 46.5645C701.015 42.7279 699.988 38.2699 699.988 33.1904C699.988 28.2731 701.069 23.8151 703.23 19.8164C705.392 15.7637 708.418 12.3053 712.309 9.44141C716.199 6.52344 720.792 4.28092 726.088 2.71387C731.438 1.14681 737.3 0.363281 743.677 0.363281C752.377 0.363281 759.969 1.93034 766.453 5.06445C772.938 8.19857 777.963 12.4945 781.529 17.9521C785.15 23.4098 786.96 29.651 786.96 36.6758H762.806C762.806 33.2174 762.076 30.1914 760.617 27.5977C759.212 24.9499 757.051 22.8695 754.133 21.3564C751.269 19.8434 747.648 19.0869 743.271 19.0869C739.057 19.0869 735.544 19.7354 732.734 21.0322C729.924 22.2751 727.817 23.9772 726.412 26.1387C725.007 28.2461 724.305 30.6237 724.305 33.2715C724.305 35.2708 724.791 37.0811 725.764 38.7021C726.79 40.3232 728.303 41.8363 730.303 43.2412C732.302 44.6462 734.761 45.9701 737.679 47.2129C740.597 48.4557 743.974 49.6715 747.811 50.8604C754.241 52.8057 759.888 54.9941 764.751 57.4258C769.668 59.8574 773.775 62.5863 777.071 65.6123C780.368 68.6383 782.853 72.0697 784.528 75.9062C786.203 79.7428 787.041 84.0928 787.041 88.9561C787.041 94.0895 786.041 98.6826 784.042 102.735C782.043 106.788 779.152 110.219 775.369 113.029C771.587 115.839 767.075 117.974 761.833 119.433C756.591 120.892 750.729 121.621 744.244 121.621C738.408 121.621 732.653 120.865 726.979 119.352C721.306 117.785 716.145 115.434 711.498 112.3C706.905 109.166 703.23 105.167 700.475 100.304C697.719 95.4404 696.341 89.6855 696.341 83.0391H720.738C720.738 86.7135 721.306 89.8206 722.44 92.3604C723.575 94.9001 725.169 96.9535 727.223 98.5205C729.33 100.088 731.816 101.222 734.68 101.925C737.598 102.627 740.786 102.979 744.244 102.979C748.459 102.979 751.917 102.384 754.619 101.195C757.375 100.007 759.401 98.3584 760.698 96.251C762.049 94.1436 762.725 91.766 762.725 89.1182Z" fill="url(#paint6_linear_384_13)" fill-opacity="0.23"/>
<defs>
<linearGradient id="paint0_linear_384_13" x1="13" y1="120" x2="777" y2="-1.00003" gradientUnits="userSpaceOnUse">
<stop stop-color="#005E98"/>
<stop offset="0.332767" stop-color="#85A8AE"/>
<stop offset="1" stop-color="#FE9900"/>
</linearGradient>
<linearGradient id="paint1_linear_384_13" x1="13" y1="120" x2="777" y2="-1.00003" gradientUnits="userSpaceOnUse">
<stop stop-color="#005E98"/>
<stop offset="0.332767" stop-color="#85A8AE"/>
<stop offset="1" stop-color="#FE9900"/>
</linearGradient>
<linearGradient id="paint2_linear_384_13" x1="13" y1="120" x2="777" y2="-1.00003" gradientUnits="userSpaceOnUse">
<stop stop-color="#005E98"/>
<stop offset="0.332767" stop-color="#85A8AE"/>
<stop offset="1" stop-color="#FE9900"/>
</linearGradient>
<linearGradient id="paint3_linear_384_13" x1="13" y1="120" x2="777" y2="-1.00003" gradientUnits="userSpaceOnUse">
<stop stop-color="#005E98"/>
<stop offset="0.332767" stop-color="#85A8AE"/>
<stop offset="1" stop-color="#FE9900"/>
</linearGradient>
<linearGradient id="paint4_linear_384_13" x1="13" y1="120" x2="777" y2="-1.00003" gradientUnits="userSpaceOnUse">
<stop stop-color="#005E98"/>
<stop offset="0.332767" stop-color="#85A8AE"/>
<stop offset="1" stop-color="#FE9900"/>
</linearGradient>
<linearGradient id="paint5_linear_384_13" x1="13" y1="120" x2="777" y2="-1.00003" gradientUnits="userSpaceOnUse">
<stop stop-color="#005E98"/>
<stop offset="0.332767" stop-color="#85A8AE"/>
<stop offset="1" stop-color="#FE9900"/>
</linearGradient>
<linearGradient id="paint6_linear_384_13" x1="13" y1="120" x2="777" y2="-1.00003" gradientUnits="userSpaceOnUse">
<stop stop-color="#005E98"/>
<stop offset="0.332767" stop-color="#85A8AE"/>
<stop offset="1" stop-color="#FE9900"/>
</linearGradient>
</defs>
</svg>
