<svg width="623" height="139" viewBox="0 0 623 139" fill="none" xmlns="http://www.w3.org/2000/svg">
<g filter="url(#filter0_d_481_3)">
<path d="M19.5526 132.188C14.2433 130.611 10.6572 129.081 8.79434 127.597C6.93145 126.206 6 124.258 6 121.754C6 118.971 6.65201 115.076 7.95604 110.067C9.26007 104.966 10.9367 99.3078 12.9859 93.0934C15.1282 86.8791 17.55 80.3865 20.2512 73.6157C22.9523 66.8448 25.7001 60.3522 28.4945 54.1379C31.2888 47.9236 33.99 42.2657 36.5981 37.1644C39.2993 31.9704 41.6744 27.9357 43.7236 25.0604L42.7456 19.2171C44.0496 19.2171 45.866 19.5417 48.1946 20.1909C50.5232 20.8402 52.8518 21.6286 55.1804 22.5561C57.6022 23.4836 59.698 24.4575 61.4677 25.4778C63.3306 26.4053 64.3552 27.1937 64.5415 27.8429C64.0758 30.069 63.7032 33.4544 63.4237 37.9992C63.1443 42.4513 63.0046 47.2279 63.0046 52.3293C63.0046 62.4391 63.3772 72.3635 64.1223 82.1024C64.9606 91.7486 66.8235 101.58 69.711 111.597C71.2013 104.177 72.7848 96.8035 74.4614 89.4762C76.2312 82.056 78.0475 75.0069 79.9104 68.3289C81.7733 61.558 83.6362 55.2973 85.4991 49.5467C87.362 43.7961 89.1317 38.7876 90.8083 34.521C92.5781 30.1617 94.2081 26.7763 95.6984 24.3647C97.1887 21.8605 98.5393 20.5156 99.7502 20.3301C100.775 20.5156 101.893 20.933 103.103 21.5822C104.314 22.1387 105.479 22.8344 106.596 23.6691C107.714 24.5039 108.739 25.4314 109.67 26.4517C110.602 27.4719 111.347 28.4922 111.906 29.5124C108.925 30.7182 105.944 33.5471 102.964 37.9992C100.076 42.4513 97.2819 47.8772 94.5807 54.277C91.9726 60.5841 89.5043 67.4477 87.1757 74.8678C84.9402 82.2879 82.9376 89.6153 81.1678 96.8499C79.4912 103.992 78.1406 110.623 77.116 116.745C76.1846 122.867 75.6723 127.782 75.5791 131.492C75.5791 131.678 75.6257 131.817 75.7189 131.91C75.4394 132.003 75.1134 132.049 74.7408 132.049C74.4614 132.049 74.182 132.049 73.9025 132.049C69.6179 132.049 65.7989 131.492 62.4457 130.379C59.1857 129.359 57.0433 127.875 56.0187 125.927C54.0627 118.136 52.4327 110.623 51.1286 103.389C49.8246 96.1542 48.7069 88.9196 47.7754 81.685C46.9371 74.4504 46.2385 67.1695 45.6797 59.8421C45.2139 52.422 44.8414 44.6773 44.5619 36.6079C42.7922 39.3905 40.9293 43.0541 38.9733 47.599C37.0172 52.051 35.1077 56.9668 33.2448 62.3464C31.3819 67.726 29.5656 73.3838 27.7959 79.3199C26.1193 85.256 24.629 91.0529 23.3249 96.7108C22.0209 102.369 20.9963 107.748 20.2512 112.849C19.506 117.858 19.1334 122.217 19.1334 125.927C19.1334 127.875 19.1334 129.266 19.1334 130.101C19.2266 130.936 19.3663 131.632 19.5526 132.188Z" fill="white"/>
<path d="M118.926 126.484C113.617 125.927 109.379 123.609 106.212 119.528C103.045 115.447 101.462 110.252 101.462 103.945C101.462 100.235 102.021 96.3861 103.138 92.3978C104.256 88.4095 105.84 84.5603 107.889 80.8503C109.938 77.0475 112.36 73.4766 115.154 70.1375C117.948 66.7985 120.976 63.9232 124.236 61.5116C129.359 57.7088 134.156 55.8074 138.627 55.8074C141.607 57.3842 144.541 60.6769 147.429 65.6854C147.894 65.6854 148.314 65.6854 148.686 65.6854C149.059 65.5927 149.478 65.5463 149.944 65.5463C154.88 65.5463 157.349 69.9056 157.349 78.6243C157.349 84.4676 156.371 90.0327 154.415 95.3195C152.552 100.514 149.897 105.244 146.451 109.51C143.097 113.777 139.046 117.394 134.295 120.362C129.638 123.238 124.515 125.278 118.926 126.484ZM126.052 82.6589C124.468 84.7922 122.978 87.111 121.581 89.6153C120.184 92.1196 118.973 94.6702 117.948 97.2673C116.924 99.7715 116.132 102.229 115.573 104.641C115.014 106.96 114.735 109.047 114.735 110.902C114.735 113.128 115.107 115.261 115.853 117.302C116.598 119.342 117.436 120.501 118.368 120.78C122.559 119.852 126.378 118.136 129.824 115.632C133.364 113.035 136.391 109.835 138.906 106.032C141.514 102.229 143.517 97.9165 144.914 93.0934C146.404 88.2704 147.149 83.1227 147.149 77.6504C147.149 75.2388 147.01 73.3374 146.73 71.9462C146.451 70.5549 145.985 69.3491 145.333 68.3289C141.235 69.5346 137.555 71.4824 134.295 74.1722C131.128 76.862 128.381 79.6909 126.052 82.6589Z" fill="white"/>
<path d="M302.611 44.9555C302.611 50.7061 301.027 55.8538 297.86 60.3986C294.693 64.8507 290.362 68.5607 284.867 71.5288C288.406 73.9403 291.201 76.9083 293.25 80.4329C295.392 83.8647 296.463 87.6675 296.463 91.8413C296.463 96.8499 294.926 101.812 291.853 106.728C288.872 111.551 284.867 115.864 279.837 119.667C274.807 123.377 269.079 126.391 262.652 128.71C256.225 131.029 249.658 132.188 242.952 132.188C235.686 132.188 229.306 130.797 223.81 128.014C218.408 125.325 214.17 121.475 211.096 116.467C212.027 113.684 213.238 110.252 214.729 106.171C216.312 101.998 218.035 97.6383 219.898 93.0934C221.761 88.4559 223.624 83.8647 225.487 79.3199C227.443 74.7751 229.259 70.694 230.936 67.0767C234.475 59.1929 237.642 52.6539 240.437 47.4598C243.231 42.2657 245.792 38.1383 248.121 35.0775C242.998 36.6543 238.341 38.4629 234.149 40.5035C229.958 42.4513 226.884 44.3527 224.928 46.2077C224.09 45.6512 223.205 44.8164 222.273 43.7034C221.435 42.5904 220.597 41.3846 219.759 40.0861C219.013 38.6948 218.361 37.3036 217.802 35.9123C217.337 34.521 217.057 33.2689 216.964 32.1559C219.386 30.4863 222.506 28.9096 226.325 27.4255C230.237 25.8488 234.475 24.5039 239.039 23.3909C243.604 22.2778 248.261 21.3967 253.011 20.7475C257.855 20.0982 262.465 19.7736 266.843 19.7736C278.021 19.7736 286.776 21.9996 293.11 26.4517C299.444 30.9037 302.611 37.0717 302.611 44.9555ZM249.379 78.2069C247.609 77.3721 245.979 76.12 244.488 74.4504C242.346 79.1808 240.297 83.8183 238.341 88.3631C236.478 92.9079 234.801 97.1281 233.311 101.024C231.821 104.919 230.61 108.305 229.678 111.18C228.747 114.055 228.235 116.142 228.142 117.441C229.446 118.183 230.982 118.739 232.752 119.11C234.615 119.481 236.897 119.667 239.598 119.667C245.932 119.667 251.987 118.786 257.762 117.023C263.537 115.261 268.613 112.896 272.991 109.928C277.369 106.867 280.861 103.389 283.47 99.4933C286.078 95.5977 287.382 91.5167 287.382 87.2501C287.382 81.1285 284.727 76.7228 279.418 74.0331C272.152 77.0011 263.956 78.4851 254.828 78.4851C253.523 78.4851 252.499 78.4851 251.754 78.4851C251.102 78.4851 250.31 78.3924 249.379 78.2069ZM276.484 29.9298C274.528 29.9298 272.432 30.069 270.196 30.3472C268.054 30.5327 265.772 30.8573 263.35 31.3211C263.723 31.6921 264.002 32.1095 264.189 32.5732C264.468 32.9442 264.701 33.3616 264.887 33.8254C264.049 34.9384 263.024 36.5615 261.813 38.6948C260.602 40.8281 259.252 43.3324 257.762 46.2077C256.271 48.9902 254.688 52.0974 253.011 55.5292C251.428 58.961 249.798 62.4855 248.121 66.1028C249.705 65.7318 251.614 65.4536 253.849 65.2681C256.178 64.9898 258.46 64.8507 260.696 64.8507C261.907 64.8507 263.071 64.8971 264.189 64.9898C265.399 65.0826 266.564 65.2217 267.681 65.4072C272.152 64.6652 276.158 63.5985 279.697 62.2073C283.33 60.7233 286.45 59.0537 289.058 57.1987C291.666 55.2509 293.669 53.1176 295.066 50.7989C296.463 48.4801 297.162 46.0222 297.162 43.4251C297.162 38.9731 295.392 35.634 291.853 33.408C288.313 31.0892 283.19 29.9298 276.484 29.9298Z" fill="white"/>
<path d="M326.204 126.484C320.895 125.927 316.657 123.609 313.49 119.528C310.323 115.447 308.74 110.252 308.74 103.945C308.74 100.235 309.299 96.3861 310.416 92.3978C311.534 88.4095 313.118 84.5603 315.167 80.8503C317.216 77.0475 319.638 73.4766 322.432 70.1375C325.226 66.7985 328.254 63.9232 331.514 61.5116C336.637 57.7088 341.434 55.8074 345.905 55.8074C348.885 57.3842 351.819 60.6769 354.707 65.6854C355.172 65.6854 355.592 65.6854 355.964 65.6854C356.337 65.5927 356.756 65.5463 357.222 65.5463C362.158 65.5463 364.627 69.9056 364.627 78.6243C364.627 84.4676 363.649 90.0327 361.693 95.3195C359.83 100.514 357.175 105.244 353.729 109.51C350.376 113.777 346.324 117.394 341.573 120.362C336.916 123.238 331.793 125.278 326.204 126.484ZM333.33 82.6589C331.747 84.7922 330.256 87.111 328.859 89.6153C327.462 92.1196 326.251 94.6702 325.226 97.2673C324.202 99.7715 323.41 102.229 322.851 104.641C322.292 106.96 322.013 109.047 322.013 110.902C322.013 113.128 322.386 115.261 323.131 117.302C323.876 119.342 324.714 120.501 325.646 120.78C329.837 119.852 333.656 118.136 337.102 115.632C340.642 113.035 343.669 109.835 346.184 106.032C348.792 102.229 350.795 97.9165 352.192 93.0934C353.682 88.2704 354.427 83.1227 354.427 77.6504C354.427 75.2388 354.288 73.3374 354.008 71.9462C353.729 70.5549 353.263 69.3491 352.611 68.3289C348.513 69.5346 344.833 71.4824 341.573 74.1722C338.406 76.862 335.659 79.6909 333.33 82.6589Z" fill="white"/>
<path d="M372.228 118.832C372.694 116.142 373.486 112.618 374.603 108.258C375.814 103.806 377.211 99.1223 378.795 94.2065C380.378 89.1979 382.055 84.1893 383.825 79.1808C385.594 74.1722 387.318 69.6737 388.994 65.6854C390.205 62.8102 391.276 60.5841 392.208 59.0074C393.139 57.3378 394.164 55.9466 395.281 54.8335C396.585 55.0191 397.936 55.3437 399.333 55.8074C400.73 56.2712 402.081 56.8277 403.385 57.477C404.689 58.1262 405.853 58.8218 406.878 59.5639C407.903 60.2131 408.694 60.8624 409.253 61.5116C406.738 64.4797 404.503 67.8651 402.547 71.6679C400.684 75.4707 398.774 80.3401 396.818 86.2762C401.848 81.8242 406.273 77.5576 410.091 73.4766C414.004 69.3955 417.636 64.8507 420.989 59.8421C421.548 59.3784 422.526 59.1465 423.924 59.1465C425.228 59.1465 426.485 59.3784 427.696 59.8421C428.907 60.2131 429.745 60.7696 430.211 61.5116C428.534 65.9637 427.696 70.3694 427.696 74.7287C427.696 78.8098 428.301 81.8705 429.512 83.9111C429.419 84.4676 428.767 85.5342 427.556 87.111C426.438 88.6878 425.181 90.1718 423.784 91.5631C421.269 90.2645 419.033 88.5023 417.077 86.2762C415.121 83.9574 413.678 81.4532 412.746 78.7634C408.368 81.8242 404.643 84.8386 401.569 87.8066C398.495 90.6819 395.84 93.9282 393.605 97.5455C391.463 101.07 389.6 105.151 388.016 109.789C386.526 114.426 385.082 119.945 383.685 126.345C382.847 126.252 381.822 125.927 380.611 125.371C379.493 124.907 378.329 124.304 377.118 123.562C376.001 122.82 374.976 122.032 374.044 121.197C373.113 120.362 372.508 119.574 372.228 118.832Z" fill="white"/>
<path d="M466.582 56.6422C468.445 56.6422 470.587 57.1987 473.009 58.3117C475.431 59.4247 477.573 60.8624 479.436 62.6246C478.97 58.9146 478.365 55.4364 477.62 52.1901C476.968 48.8511 475.943 45.4193 474.546 41.8947C473.242 38.3702 471.472 34.521 469.237 30.3472C467.001 26.1734 464.207 21.3967 460.854 16.0171C461.133 15.1824 461.738 14.2085 462.67 13.0955C463.694 11.9825 464.812 10.9622 466.023 10.0347C467.327 9.01442 468.631 8.13328 469.935 7.39127C471.332 6.64926 472.636 6.1855 473.847 6C476.455 8.87529 478.924 12.4926 481.252 16.8519C483.581 21.1185 485.63 25.756 487.4 30.7646C489.17 35.6804 490.52 40.7817 491.452 46.0686C492.476 51.3554 492.988 56.4103 492.988 61.2334C492.988 66.0565 492.43 71.0186 491.312 76.12C490.287 81.2213 488.797 86.2299 486.841 91.1457C484.978 95.9687 482.789 100.56 480.274 104.919C477.759 109.279 475.012 113.174 472.031 116.606C469.143 120.038 466.116 122.82 462.949 124.954C459.782 127.18 456.615 128.571 453.449 129.127C447.022 128.385 442.085 126.298 438.639 122.867C435.285 119.528 433.609 114.89 433.609 108.954C433.609 105.8 434.074 102.369 435.006 98.6585C436.03 94.9485 437.335 91.2848 438.918 87.6675C440.595 83.9574 442.504 80.3865 444.646 76.9547C446.882 73.4302 449.21 70.2766 451.632 67.4941C454.147 64.7116 456.662 62.3464 459.177 60.3986C461.692 58.4508 464.16 57.1987 466.582 56.6422ZM452.331 123.562C455.591 122.449 458.851 119.991 462.111 116.189C465.371 112.386 468.305 107.934 470.913 102.832C473.521 97.6383 475.617 92.1196 477.2 86.2762C478.877 80.3401 479.715 74.6359 479.715 69.1636C479.715 67.5869 479.715 66.613 479.715 66.242C479.715 65.871 479.669 65.4999 479.576 65.1289C477.34 66.0564 474.965 67.6332 472.45 69.8592C469.935 72.0853 467.42 74.6823 464.905 77.6504C462.39 80.5256 460.015 83.6792 457.78 87.111C455.544 90.5428 453.542 93.9746 451.772 97.4064C450.002 100.838 448.605 104.131 447.58 107.284C446.556 110.438 446.044 113.22 446.044 115.632C446.044 120.27 448.139 122.913 452.331 123.562Z" fill="white"/>
<path d="M550.778 64.0159C550.405 69.7665 549.381 74.7287 547.704 78.9025C546.028 82.9836 543.606 86.6009 540.439 89.7544C537.365 92.8152 533.593 95.5977 529.122 98.102C524.651 100.606 519.435 103.018 513.473 105.337C513.473 105.893 513.427 106.496 513.334 107.145C513.334 107.702 513.334 108.305 513.334 108.954C513.334 110.16 513.427 111.412 513.613 112.71C513.799 114.009 514.125 115.215 514.591 116.328C515.057 117.441 515.709 118.368 516.547 119.11C517.386 119.759 518.457 120.084 519.761 120.084C522.276 120.084 524.744 119.528 527.166 118.415C529.587 117.302 531.87 115.957 534.012 114.38C536.247 112.71 538.297 110.948 540.159 109.093C542.115 107.145 543.839 105.383 545.329 103.806C546.26 104.641 547.052 105.429 547.704 106.171C543.513 111.736 538.902 116.374 533.872 120.084C528.935 123.701 524.232 126.02 519.761 127.04C513.334 126.298 508.304 123.98 504.671 120.084C501.132 116.096 499.362 111.319 499.362 105.754C499.362 101.951 499.874 98.102 500.899 94.2065C502.017 90.2182 503.507 86.4154 505.37 82.7981C507.326 79.088 509.561 75.6098 512.076 72.3635C514.684 69.1172 517.432 66.2883 520.32 63.8768C523.3 61.4653 526.327 59.5639 529.401 58.1726C532.568 56.7813 535.688 56.0857 538.762 56.0857C543.047 56.6422 547.052 59.2856 550.778 64.0159ZM541.137 68.6071C538.623 68.9781 536.014 69.9984 533.313 71.6679C530.612 73.3374 528.051 75.5635 525.629 78.346C523.3 81.1285 521.158 84.3748 519.202 88.0849C517.246 91.7949 515.709 95.7832 514.591 100.05C522.043 96.3397 528.237 91.7949 533.174 86.4154C538.11 80.943 540.765 75.007 541.137 68.6071Z" fill="white"/>
<path d="M558.085 118.832C558.55 116.142 559.342 112.618 560.46 108.258C561.671 103.806 563.068 99.1223 564.651 94.2065C566.235 89.1979 567.911 84.1893 569.681 79.1808C571.451 74.1722 573.174 69.6737 574.851 65.6854C576.062 62.8102 577.133 60.5841 578.064 59.0074C578.996 57.3378 580.02 55.9466 581.138 54.8335C582.442 55.0191 583.793 55.3437 585.19 55.8074C586.587 56.2712 587.938 56.8277 589.242 57.477C590.546 58.1262 591.71 58.8218 592.735 59.5639C593.759 60.2131 594.551 60.8624 595.11 61.5116C592.595 64.4797 590.359 67.8651 588.403 71.6679C586.54 75.4707 584.631 80.3401 582.675 86.2762C587.705 81.8242 592.129 77.5576 595.948 73.4766C599.86 69.3955 603.493 64.8507 606.846 59.8421C607.405 59.3784 608.383 59.1465 609.78 59.1465C611.084 59.1465 612.342 59.3784 613.552 59.8421C614.763 60.2131 615.602 60.7696 616.067 61.5116C614.391 65.9637 613.552 70.3694 613.552 74.7287C613.552 78.8098 614.158 81.8705 615.369 83.9111C615.276 84.4676 614.624 85.5342 613.413 87.111C612.295 88.6878 611.037 90.1718 609.64 91.5631C607.125 90.2645 604.89 88.5023 602.934 86.2762C600.978 83.9574 599.534 81.4532 598.603 78.7634C594.225 81.8242 590.499 84.8386 587.425 87.8066C584.351 90.6819 581.697 93.9282 579.461 97.5455C577.319 101.07 575.456 105.151 573.873 109.789C572.382 114.426 570.939 119.945 569.541 126.345C568.703 126.252 567.679 125.927 566.468 125.371C565.35 124.907 564.186 124.304 562.975 123.562C561.857 122.82 560.832 122.032 559.901 121.197C558.97 120.362 558.364 119.574 558.085 118.832Z" fill="white"/>
</g>
<defs>
<filter id="filter0_d_481_3" x="0" y="0" width="622.067" height="138.188" filterUnits="userSpaceOnUse" color-interpolation-filters="sRGB">
<feFlood flood-opacity="0" result="BackgroundImageFix"/>
<feColorMatrix in="SourceAlpha" type="matrix" values="0 0 0 0 0 0 0 0 0 0 0 0 0 0 0 0 0 0 127 0" result="hardAlpha"/>
<feOffset/>
<feGaussianBlur stdDeviation="3"/>
<feComposite in2="hardAlpha" operator="out"/>
<feColorMatrix type="matrix" values="0 0 0 0 0.104167 0 0 0 0 0.104167 0 0 0 0 0.104167 0 0 0 0.45 0"/>
<feBlend mode="normal" in2="BackgroundImageFix" result="effect1_dropShadow_481_3"/>
<feBlend mode="normal" in="SourceGraphic" in2="effect1_dropShadow_481_3" result="shape"/>
</filter>
</defs>
</svg>
