<svg width="3590" height="153" viewBox="0 0 3590 153" fill="none" xmlns="http://www.w3.org/2000/svg">
<path d="M10.5693 6.24902H30.165L59.0186 88.7207L87.8721 6.24902H107.468L66.8877 118.577H51.1494L10.5693 6.24902ZM0 6.24902H19.5186L23.0674 86.6377V118.577H0V6.24902ZM98.5186 6.24902H118.114V118.577H94.9697V86.6377L98.5186 6.24902Z" fill="url(#paint0_linear_226_3)" fill-opacity="0.23"/>
<path d="M168.369 35.1025V118.577H146.073V35.1025H168.369ZM144.684 13.3467C144.684 10.1064 145.816 7.43197 148.079 5.32324C150.342 3.21452 153.376 2.16016 157.182 2.16016C160.937 2.16016 163.946 3.21452 166.209 5.32324C168.523 7.43197 169.68 10.1064 169.68 13.3467C169.68 16.5869 168.523 19.2614 166.209 21.3701C163.946 23.4788 160.937 24.5332 157.182 24.5332C153.376 24.5332 150.342 23.4788 148.079 21.3701C145.816 19.2614 144.684 16.5869 144.684 13.3467Z" fill="url(#paint1_linear_226_3)" fill-opacity="0.23"/>
<path d="M216.386 52.9238V118.577H194.167V35.1025H214.997L216.386 52.9238ZM213.146 73.9082H207.128C207.128 67.7363 207.925 62.1816 209.52 57.2441C211.114 52.2552 213.351 48.012 216.232 44.5146C219.112 40.9658 222.532 38.2656 226.492 36.4141C230.504 34.5111 234.979 33.5596 239.916 33.5596C243.825 33.5596 247.4 34.1253 250.64 35.2568C253.88 36.3883 256.657 38.1885 258.972 40.6572C261.338 43.126 263.138 46.3919 264.372 50.4551C265.658 54.5182 266.301 59.4814 266.301 65.3447V118.577H243.928V65.2676C243.928 61.5645 243.414 58.6842 242.385 56.627C241.356 54.5697 239.839 53.1296 237.833 52.3066C235.879 51.4323 233.461 50.9951 230.581 50.9951C227.598 50.9951 225.001 51.5866 222.789 52.7695C220.629 53.9525 218.829 55.5983 217.389 57.707C216 59.7643 214.946 62.1816 214.226 64.959C213.506 67.7363 213.146 70.7194 213.146 73.9082Z" fill="url(#paint2_linear_226_3)" fill-opacity="0.23"/>
<path d="M340.394 100.37V0.0771484H362.767V118.577H342.632L340.394 100.37ZM287.625 77.8428V76.2227C287.625 69.8451 288.345 64.0589 289.785 58.8643C291.225 53.6182 293.334 49.1178 296.111 45.3633C298.888 41.6087 302.309 38.7028 306.372 36.6455C310.435 34.5882 315.064 33.5596 320.259 33.5596C325.145 33.5596 329.414 34.5882 333.065 36.6455C336.768 38.7028 339.906 41.6344 342.477 45.4404C345.1 49.195 347.209 53.6439 348.804 58.7871C350.398 63.8789 351.555 69.4593 352.275 75.5283V79.0771C351.555 84.889 350.398 90.2894 348.804 95.2783C347.209 100.267 345.1 104.639 342.477 108.394C339.906 112.097 336.768 114.977 333.065 117.034C329.362 119.091 325.042 120.12 320.104 120.12C314.91 120.12 310.281 119.066 306.218 116.957C302.206 114.848 298.811 111.891 296.034 108.085C293.308 104.279 291.225 99.8044 289.785 94.6611C288.345 89.5179 287.625 83.9118 287.625 77.8428ZM309.844 76.2227V77.8428C309.844 81.2887 310.101 84.5033 310.615 87.4863C311.181 90.4694 312.081 93.1182 313.315 95.4326C314.601 97.6956 316.247 99.4701 318.253 100.756C320.31 101.99 322.805 102.607 325.736 102.607C329.542 102.607 332.68 101.759 335.148 100.062C337.617 98.3128 339.494 95.9212 340.78 92.8867C342.117 89.8522 342.889 86.3548 343.095 82.3945V72.2881C342.94 69.0479 342.477 66.1419 341.706 63.5703C340.986 60.9473 339.906 58.71 338.466 56.8584C337.077 55.0068 335.328 53.5667 333.22 52.5381C331.162 51.5094 328.719 50.9951 325.89 50.9951C323.01 50.9951 320.541 51.6637 318.484 53.001C316.427 54.2868 314.755 56.0612 313.47 58.3242C312.235 60.5872 311.309 63.2617 310.692 66.3477C310.126 69.3822 309.844 72.6738 309.844 76.2227Z" fill="url(#paint3_linear_226_3)" fill-opacity="0.23"/>
<path d="M528.93 59.79V65.1133C528.93 73.651 527.772 81.3145 525.458 88.1035C523.144 94.8926 519.878 100.679 515.66 105.462C511.443 110.194 506.402 113.82 500.539 116.34C494.727 118.86 488.272 120.12 481.175 120.12C474.129 120.12 467.674 118.86 461.811 116.34C455.999 113.82 450.958 110.194 446.689 105.462C442.421 100.679 439.103 94.8926 436.737 88.1035C434.423 81.3145 433.266 73.651 433.266 65.1133V59.79C433.266 51.2008 434.423 43.5374 436.737 36.7998C439.052 30.0107 442.318 24.2246 446.535 19.4414C450.804 14.6582 455.844 11.0065 461.656 8.48633C467.52 5.96615 473.974 4.70605 481.021 4.70605C488.118 4.70605 494.573 5.96615 500.385 8.48633C506.248 11.0065 511.288 14.6582 515.506 19.4414C519.775 24.2246 523.066 30.0107 525.381 36.7998C527.747 43.5374 528.93 51.2008 528.93 59.79ZM505.554 65.1133V59.6357C505.554 53.6696 505.014 48.4235 503.934 43.8975C502.854 39.3714 501.259 35.5654 499.15 32.4795C497.042 29.3936 494.47 27.0791 491.436 25.5361C488.401 23.9417 484.929 23.1445 481.021 23.1445C477.112 23.1445 473.64 23.9417 470.605 25.5361C467.622 27.0791 465.076 29.3936 462.968 32.4795C460.91 35.5654 459.342 39.3714 458.262 43.8975C457.182 48.4235 456.642 53.6696 456.642 59.6357V65.1133C456.642 71.028 457.182 76.2741 458.262 80.8516C459.342 85.3776 460.936 89.2093 463.045 92.3467C465.154 95.4326 467.725 97.7728 470.76 99.3672C473.794 100.962 477.266 101.759 481.175 101.759C485.084 101.759 488.555 100.962 491.59 99.3672C494.624 97.7728 497.17 95.4326 499.228 92.3467C501.285 89.2093 502.854 85.3776 503.934 80.8516C505.014 76.2741 505.554 71.028 505.554 65.1133Z" fill="url(#paint4_linear_226_3)" fill-opacity="0.23"/>
<path d="M574.324 53.3096V118.577H552.105V35.1025H573.012L574.324 53.3096ZM599.474 34.5625L599.089 55.1611C598.008 55.0068 596.697 54.8783 595.154 54.7754C593.662 54.6211 592.299 54.5439 591.065 54.5439C587.928 54.5439 585.202 54.9554 582.887 55.7783C580.624 56.5498 578.721 57.707 577.178 59.25C575.687 60.793 574.555 62.6702 573.784 64.8818C573.064 67.0934 572.652 69.6136 572.549 72.4424L568.075 71.0537C568.075 65.6533 568.615 60.6901 569.695 56.1641C570.775 51.5866 572.344 47.6006 574.401 44.2061C576.51 40.8115 579.081 38.1885 582.116 36.3369C585.15 34.4854 588.622 33.5596 592.531 33.5596C593.765 33.5596 595.025 33.6624 596.311 33.8682C597.597 34.0225 598.651 34.2539 599.474 34.5625Z" fill="url(#paint5_linear_226_3)" fill-opacity="0.23"/>
<path d="M665.621 100.37V0.0771484H687.994V118.577H667.859L665.621 100.37ZM612.852 77.8428V76.2227C612.852 69.8451 613.572 64.0589 615.012 58.8643C616.452 53.6182 618.561 49.1178 621.338 45.3633C624.115 41.6087 627.536 38.7028 631.599 36.6455C635.662 34.5882 640.291 33.5596 645.486 33.5596C650.372 33.5596 654.64 34.5882 658.292 36.6455C661.995 38.7028 665.133 41.6344 667.704 45.4404C670.327 49.195 672.436 53.6439 674.03 58.7871C675.625 63.8789 676.782 69.4593 677.502 75.5283V79.0771C676.782 84.889 675.625 90.2894 674.03 95.2783C672.436 100.267 670.327 104.639 667.704 108.394C665.133 112.097 661.995 114.977 658.292 117.034C654.589 119.091 650.269 120.12 645.331 120.12C640.137 120.12 635.508 119.066 631.445 116.957C627.433 114.848 624.038 111.891 621.261 108.085C618.535 104.279 616.452 99.8044 615.012 94.6611C613.572 89.5179 612.852 83.9118 612.852 77.8428ZM635.07 76.2227V77.8428C635.07 81.2887 635.328 84.5033 635.842 87.4863C636.408 90.4694 637.308 93.1182 638.542 95.4326C639.828 97.6956 641.474 99.4701 643.48 100.756C645.537 101.99 648.031 102.607 650.963 102.607C654.769 102.607 657.906 101.759 660.375 100.062C662.844 98.3128 664.721 95.9212 666.007 92.8867C667.344 89.8522 668.116 86.3548 668.321 82.3945V72.2881C668.167 69.0479 667.704 66.1419 666.933 63.5703C666.213 60.9473 665.133 58.71 663.693 56.8584C662.304 55.0068 660.555 53.5667 658.446 52.5381C656.389 51.5094 653.946 50.9951 651.117 50.9951C648.237 50.9951 645.768 51.6637 643.711 53.001C641.654 54.2868 639.982 56.0612 638.696 58.3242C637.462 60.5872 636.536 63.2617 635.919 66.3477C635.353 69.3822 635.07 72.6738 635.07 76.2227Z" fill="url(#paint6_linear_226_3)" fill-opacity="0.23"/>
<path d="M736.706 35.1025V118.577H714.41V35.1025H736.706ZM713.021 13.3467C713.021 10.1064 714.153 7.43197 716.416 5.32324C718.679 3.21452 721.713 2.16016 725.519 2.16016C729.274 2.16016 732.283 3.21452 734.546 5.32324C736.86 7.43197 738.017 10.1064 738.017 13.3467C738.017 16.5869 736.86 19.2614 734.546 21.3701C732.283 23.4788 729.274 24.5332 725.519 24.5332C721.713 24.5332 718.679 23.4788 716.416 21.3701C714.153 19.2614 713.021 16.5869 713.021 13.3467Z" fill="url(#paint7_linear_226_3)" fill-opacity="0.23"/>
<path d="M784.723 52.9238V118.577H762.504V35.1025H783.334L784.723 52.9238ZM781.483 73.9082H775.465C775.465 67.7363 776.262 62.1816 777.857 57.2441C779.451 52.2552 781.689 48.012 784.569 44.5146C787.449 40.9658 790.869 38.2656 794.829 36.4141C798.841 34.5111 803.316 33.5596 808.253 33.5596C812.162 33.5596 815.737 34.1253 818.977 35.2568C822.217 36.3883 824.995 38.1885 827.309 40.6572C829.675 43.126 831.475 46.3919 832.709 50.4551C833.995 54.5182 834.638 59.4814 834.638 65.3447V118.577H812.265V65.2676C812.265 61.5645 811.751 58.6842 810.722 56.627C809.693 54.5697 808.176 53.1296 806.17 52.3066C804.216 51.4323 801.799 50.9951 798.918 50.9951C795.935 50.9951 793.338 51.5866 791.126 52.7695C788.966 53.9525 787.166 55.5983 785.726 57.707C784.337 59.7643 783.283 62.1816 782.563 64.959C781.843 67.7363 781.483 70.7194 781.483 73.9082Z" fill="url(#paint8_linear_226_3)" fill-opacity="0.23"/>
<path d="M904.488 99.7529V62.5674C904.488 59.8929 904.051 57.6042 903.177 55.7012C902.302 53.7467 900.939 52.2295 899.088 51.1494C897.288 50.0693 894.948 49.5293 892.067 49.5293C889.599 49.5293 887.464 49.9665 885.664 50.8408C883.864 51.6637 882.475 52.8724 881.498 54.4668C880.521 56.0098 880.032 57.8356 880.032 59.9443H857.813C857.813 56.3955 858.636 53.0267 860.282 49.8379C861.928 46.6491 864.32 43.846 867.457 41.4287C870.594 38.96 874.323 37.0312 878.644 35.6426C883.015 34.2539 887.901 33.5596 893.302 33.5596C899.782 33.5596 905.543 34.6396 910.583 36.7998C915.623 38.96 919.584 42.2002 922.464 46.5205C925.396 50.8408 926.861 56.2412 926.861 62.7217V98.4414C926.861 103.019 927.144 106.773 927.71 109.705C928.276 112.585 929.099 115.105 930.179 117.266V118.577H907.729C906.648 116.314 905.826 113.485 905.26 110.091C904.745 106.645 904.488 103.199 904.488 99.7529ZM907.42 67.7363L907.574 80.3115H895.153C892.222 80.3115 889.676 80.6458 887.516 81.3145C885.355 81.9831 883.581 82.9346 882.192 84.1689C880.804 85.3519 879.775 86.7406 879.106 88.335C878.489 89.9294 878.181 91.6781 878.181 93.5811C878.181 95.484 878.618 97.207 879.492 98.75C880.367 100.242 881.627 101.424 883.272 102.299C884.918 103.122 886.847 103.533 889.059 103.533C892.402 103.533 895.308 102.865 897.776 101.527C900.245 100.19 902.148 98.5443 903.485 96.5898C904.874 94.6354 905.594 92.7839 905.646 91.0352L911.509 100.447C910.686 102.556 909.554 104.742 908.114 107.005C906.726 109.268 904.951 111.402 902.791 113.408C900.631 115.363 898.034 116.983 894.999 118.269C891.965 119.503 888.364 120.12 884.198 120.12C878.901 120.12 874.092 119.066 869.771 116.957C865.503 114.797 862.108 111.84 859.588 108.085C857.119 104.279 855.885 99.9587 855.885 95.124C855.885 90.7523 856.708 86.8691 858.354 83.4746C859.999 80.0801 862.417 77.2256 865.605 74.9111C868.846 72.5452 872.883 70.7708 877.718 69.5879C882.552 68.3535 888.159 67.7363 894.536 67.7363H907.42Z" fill="url(#paint9_linear_226_3)" fill-opacity="0.23"/>
<path d="M974.107 53.3096V118.577H951.888V35.1025H972.796L974.107 53.3096ZM999.257 34.5625L998.872 55.1611C997.792 55.0068 996.48 54.8783 994.937 54.7754C993.446 54.6211 992.083 54.5439 990.848 54.5439C987.711 54.5439 984.985 54.9554 982.671 55.7783C980.408 56.5498 978.505 57.707 976.962 59.25C975.47 60.793 974.339 62.6702 973.567 64.8818C972.847 67.0934 972.436 69.6136 972.333 72.4424L967.858 71.0537C967.858 65.6533 968.398 60.6901 969.478 56.1641C970.558 51.5866 972.127 47.6006 974.184 44.2061C976.293 40.8115 978.865 38.1885 981.899 36.3369C984.934 34.4854 988.405 33.5596 992.314 33.5596C993.548 33.5596 994.809 33.6624 996.094 33.8682C997.38 34.0225 998.435 34.2539 999.257 34.5625Z" fill="url(#paint10_linear_226_3)" fill-opacity="0.23"/>
<path d="M1043.8 109.165L1065.94 35.1025H1089.78L1056.22 131.152C1055.5 133.261 1054.53 135.524 1053.29 137.941C1052.11 140.359 1050.49 142.647 1048.43 144.808C1046.43 147.019 1043.88 148.819 1040.79 150.208C1037.76 151.597 1034.03 152.291 1029.61 152.291C1027.5 152.291 1025.78 152.162 1024.44 151.905C1023.1 151.648 1021.51 151.288 1019.66 150.825V134.547C1020.22 134.547 1020.81 134.547 1021.43 134.547C1022.05 134.598 1022.64 134.624 1023.2 134.624C1026.14 134.624 1028.53 134.29 1030.38 133.621C1032.23 132.952 1033.72 131.924 1034.85 130.535C1035.99 129.198 1036.89 127.449 1037.55 125.289L1043.8 109.165ZM1034.55 35.1025L1052.68 95.5869L1055.84 119.117L1040.72 120.737L1010.71 35.1025H1034.55Z" fill="url(#paint11_linear_226_3)" fill-opacity="0.23"/>
<path d="M1217.22 6.24902H1240.28V80.4658C1240.28 89.1064 1238.43 96.3841 1234.73 102.299C1231.08 108.214 1226.01 112.662 1219.53 115.646C1213.1 118.629 1205.7 120.12 1197.31 120.12C1188.93 120.12 1181.47 118.629 1174.94 115.646C1168.46 112.662 1163.37 108.214 1159.66 102.299C1156.01 96.3841 1154.19 89.1064 1154.19 80.4658V6.24902H1177.33V80.4658C1177.33 85.5062 1178.13 89.6208 1179.72 92.8096C1181.32 95.9984 1183.61 98.3385 1186.59 99.8301C1189.62 101.322 1193.2 102.067 1197.31 102.067C1201.53 102.067 1205.1 101.322 1208.04 99.8301C1211.02 98.3385 1213.28 95.9984 1214.83 92.8096C1216.42 89.6208 1217.22 85.5062 1217.22 80.4658V6.24902Z" fill="url(#paint12_linear_226_3)" fill-opacity="0.23"/>
<path d="M1287.61 52.9238V118.577H1265.39V35.1025H1286.22L1287.61 52.9238ZM1284.37 73.9082H1278.35C1278.35 67.7363 1279.15 62.1816 1280.74 57.2441C1282.34 52.2552 1284.57 48.012 1287.45 44.5146C1290.33 40.9658 1293.75 38.2656 1297.71 36.4141C1301.73 34.5111 1306.2 33.5596 1311.14 33.5596C1315.05 33.5596 1318.62 34.1253 1321.86 35.2568C1325.1 36.3883 1327.88 38.1885 1330.19 40.6572C1332.56 43.126 1334.36 46.3919 1335.59 50.4551C1336.88 54.5182 1337.52 59.4814 1337.52 65.3447V118.577H1315.15V65.2676C1315.15 61.5645 1314.64 58.6842 1313.61 56.627C1312.58 54.5697 1311.06 53.1296 1309.05 52.3066C1307.1 51.4323 1304.68 50.9951 1301.8 50.9951C1298.82 50.9951 1296.22 51.5866 1294.01 52.7695C1291.85 53.9525 1290.05 55.5983 1288.61 57.707C1287.22 59.7643 1286.17 62.1816 1285.45 64.959C1284.73 67.7363 1284.37 70.7194 1284.37 73.9082Z" fill="url(#paint13_linear_226_3)" fill-opacity="0.23"/>
<path d="M1411.62 100.37V0.0771484H1433.99V118.577H1413.85L1411.62 100.37ZM1358.85 77.8428V76.2227C1358.85 69.8451 1359.57 64.0589 1361.01 58.8643C1362.45 53.6182 1364.56 49.1178 1367.33 45.3633C1370.11 41.6087 1373.53 38.7028 1377.59 36.6455C1381.66 34.5882 1386.29 33.5596 1391.48 33.5596C1396.37 33.5596 1400.64 34.5882 1404.29 36.6455C1407.99 38.7028 1411.13 41.6344 1413.7 45.4404C1416.32 49.195 1418.43 53.6439 1420.03 58.7871C1421.62 63.8789 1422.78 69.4593 1423.5 75.5283V79.0771C1422.78 84.889 1421.62 90.2894 1420.03 95.2783C1418.43 100.267 1416.32 104.639 1413.7 108.394C1411.13 112.097 1407.99 114.977 1404.29 117.034C1400.58 119.091 1396.26 120.12 1391.33 120.12C1386.13 120.12 1381.5 119.066 1377.44 116.957C1373.43 114.848 1370.03 111.891 1367.26 108.085C1364.53 104.279 1362.45 99.8044 1361.01 94.6611C1359.57 89.5179 1358.85 83.9118 1358.85 77.8428ZM1381.07 76.2227V77.8428C1381.07 81.2887 1381.32 84.5033 1381.84 87.4863C1382.4 90.4694 1383.3 93.1182 1384.54 95.4326C1385.82 97.6956 1387.47 99.4701 1389.47 100.756C1391.53 101.99 1394.03 102.607 1396.96 102.607C1400.76 102.607 1403.9 101.759 1406.37 100.062C1408.84 98.3128 1410.72 95.9212 1412 92.8867C1413.34 89.8522 1414.11 86.3548 1414.32 82.3945V72.2881C1414.16 69.0479 1413.7 66.1419 1412.93 63.5703C1412.21 60.9473 1411.13 58.71 1409.69 56.8584C1408.3 55.0068 1406.55 53.5667 1404.44 52.5381C1402.38 51.5094 1399.94 50.9951 1397.11 50.9951C1394.23 50.9951 1391.76 51.6637 1389.71 53.001C1387.65 54.2868 1385.98 56.0612 1384.69 58.3242C1383.46 60.5872 1382.53 63.2617 1381.91 66.3477C1381.35 69.3822 1381.07 72.6738 1381.07 76.2227Z" fill="url(#paint14_linear_226_3)" fill-opacity="0.23"/>
<path d="M1497.67 120.12C1491.19 120.12 1485.37 119.091 1480.23 117.034C1475.09 114.925 1470.72 112.02 1467.12 108.316C1463.57 104.613 1460.84 100.319 1458.94 95.4326C1457.04 90.4951 1456.08 85.249 1456.08 79.6943V76.6084C1456.08 70.2822 1456.98 64.4961 1458.78 59.25C1460.58 54.0039 1463.16 49.4521 1466.5 45.5947C1469.89 41.7373 1474.01 38.7799 1478.84 36.7227C1483.68 34.6139 1489.13 33.5596 1495.2 33.5596C1501.11 33.5596 1506.36 34.5368 1510.94 36.4912C1515.51 38.4456 1519.35 41.223 1522.43 44.8232C1525.57 48.4235 1527.94 52.7438 1529.53 57.7842C1531.12 62.7731 1531.92 68.3278 1531.92 74.4482V83.7061H1465.57V68.8936H1510.09V67.1963C1510.09 64.1104 1509.52 61.3587 1508.39 58.9414C1507.31 56.4727 1505.66 54.5182 1503.45 53.0781C1501.24 51.638 1498.41 50.918 1494.97 50.918C1492.04 50.918 1489.52 51.5609 1487.41 52.8467C1485.3 54.1325 1483.57 55.9326 1482.24 58.2471C1480.95 60.5615 1479.97 63.2874 1479.31 66.4248C1478.69 69.5107 1478.38 72.9053 1478.38 76.6084V79.6943C1478.38 83.0374 1478.84 86.1234 1479.77 88.9521C1480.75 91.7809 1482.11 94.224 1483.86 96.2812C1485.66 98.3385 1487.82 99.9329 1490.34 101.064C1492.91 102.196 1495.82 102.762 1499.06 102.762C1503.07 102.762 1506.8 101.99 1510.24 100.447C1513.74 98.8529 1516.75 96.4613 1519.27 93.2725L1530.07 104.999C1528.32 107.519 1525.93 109.937 1522.89 112.251C1519.91 114.565 1516.31 116.468 1512.09 117.96C1507.88 119.4 1503.07 120.12 1497.67 120.12Z" fill="url(#paint15_linear_226_3)" fill-opacity="0.23"/>
<path d="M1574.69 53.3096V118.577H1552.47V35.1025H1573.38L1574.69 53.3096ZM1599.84 34.5625L1599.46 55.1611C1598.38 55.0068 1597.07 54.8783 1595.52 54.7754C1594.03 54.6211 1592.67 54.5439 1591.43 54.5439C1588.3 54.5439 1585.57 54.9554 1583.26 55.7783C1580.99 56.5498 1579.09 57.707 1577.55 59.25C1576.06 60.793 1574.92 62.6702 1574.15 64.8818C1573.43 67.0934 1573.02 69.6136 1572.92 72.4424L1568.44 71.0537C1568.44 65.6533 1568.98 60.6901 1570.06 56.1641C1571.14 51.5866 1572.71 47.6006 1574.77 44.2061C1576.88 40.8115 1579.45 38.1885 1582.48 36.3369C1585.52 34.4854 1588.99 33.5596 1592.9 33.5596C1594.13 33.5596 1595.39 33.6624 1596.68 33.8682C1597.97 34.0225 1599.02 34.2539 1599.84 34.5625Z" fill="url(#paint16_linear_226_3)" fill-opacity="0.23"/>
<path d="M1663.37 95.5098C1663.37 93.9154 1662.9 92.4753 1661.98 91.1895C1661.05 89.9036 1659.33 88.7207 1656.81 87.6406C1654.34 86.5091 1650.77 85.4805 1646.09 84.5547C1641.87 83.6289 1637.93 82.4717 1634.28 81.083C1630.68 79.6429 1627.54 77.9199 1624.87 75.9141C1622.25 73.9082 1620.19 71.5423 1618.7 68.8164C1617.21 66.0391 1616.46 62.876 1616.46 59.3271C1616.46 55.8298 1617.21 52.5381 1618.7 49.4521C1620.24 46.3662 1622.43 43.6403 1625.26 41.2744C1628.14 38.8571 1631.63 36.9798 1635.75 35.6426C1639.91 34.2539 1644.59 33.5596 1649.79 33.5596C1657.04 33.5596 1663.26 34.7168 1668.46 37.0312C1673.7 39.3457 1677.72 42.5345 1680.49 46.5977C1683.32 50.6094 1684.74 55.1868 1684.74 60.3301H1662.52C1662.52 58.1699 1662.06 56.2412 1661.13 54.5439C1660.25 52.7952 1658.87 51.4323 1656.96 50.4551C1655.11 49.4264 1652.69 48.9121 1649.71 48.9121C1647.24 48.9121 1645.11 49.3493 1643.31 50.2236C1641.51 51.0465 1640.12 52.1781 1639.14 53.6182C1638.22 55.0068 1637.75 56.5498 1637.75 58.2471C1637.75 59.5329 1638.01 60.6901 1638.52 61.7188C1639.09 62.696 1639.99 63.596 1641.22 64.4189C1642.46 65.2419 1644.05 66.0133 1646.01 66.7334C1648.01 67.402 1650.48 68.0192 1653.41 68.585C1659.43 69.8193 1664.81 71.4395 1669.54 73.4453C1674.27 75.3997 1678.02 78.0742 1680.8 81.4688C1683.58 84.8118 1684.97 89.2093 1684.97 94.6611C1684.97 98.3643 1684.15 101.759 1682.5 104.845C1680.85 107.931 1678.49 110.631 1675.4 112.945C1672.32 115.208 1668.61 116.983 1664.29 118.269C1660.02 119.503 1655.21 120.12 1649.87 120.12C1642.1 120.12 1635.52 118.731 1630.12 115.954C1624.77 113.177 1620.7 109.654 1617.93 105.385C1615.2 101.064 1613.84 96.6413 1613.84 92.1152H1634.9C1635 95.1497 1635.77 97.5928 1637.21 99.4443C1638.7 101.296 1640.58 102.633 1642.85 103.456C1645.16 104.279 1647.65 104.69 1650.33 104.69C1653.21 104.69 1655.6 104.305 1657.5 103.533C1659.41 102.71 1660.85 101.63 1661.82 100.293C1662.85 98.9043 1663.37 97.3099 1663.37 95.5098Z" fill="url(#paint17_linear_226_3)" fill-opacity="0.23"/>
<path d="M1748.18 35.1025V50.8408H1699.58V35.1025H1748.18ZM1711.62 14.5039H1733.83V93.4268C1733.83 95.8441 1734.14 97.6956 1734.76 98.9814C1735.43 100.267 1736.41 101.167 1737.69 101.682C1738.98 102.145 1740.6 102.376 1742.55 102.376C1743.94 102.376 1745.17 102.325 1746.25 102.222C1747.39 102.067 1748.34 101.913 1749.11 101.759L1749.19 118.114C1747.28 118.731 1745.23 119.22 1743.01 119.58C1740.8 119.94 1738.36 120.12 1735.69 120.12C1730.8 120.12 1726.53 119.323 1722.88 117.729C1719.28 116.083 1716.5 113.46 1714.55 109.859C1712.59 106.259 1711.62 101.527 1711.62 95.6641V14.5039Z" fill="url(#paint18_linear_226_3)" fill-opacity="0.23"/>
<path d="M1813.79 99.7529V62.5674C1813.79 59.8929 1813.35 57.6042 1812.48 55.7012C1811.6 53.7467 1810.24 52.2295 1808.39 51.1494C1806.59 50.0693 1804.25 49.5293 1801.37 49.5293C1798.9 49.5293 1796.77 49.9665 1794.97 50.8408C1793.17 51.6637 1791.78 52.8724 1790.8 54.4668C1789.82 56.0098 1789.33 57.8356 1789.33 59.9443H1767.12C1767.12 56.3955 1767.94 53.0267 1769.58 49.8379C1771.23 46.6491 1773.62 43.846 1776.76 41.4287C1779.9 38.96 1783.63 37.0312 1787.95 35.6426C1792.32 34.2539 1797.2 33.5596 1802.6 33.5596C1809.08 33.5596 1814.85 34.6396 1819.89 36.7998C1824.93 38.96 1828.89 42.2002 1831.77 46.5205C1834.7 50.8408 1836.16 56.2412 1836.16 62.7217V98.4414C1836.16 103.019 1836.45 106.773 1837.01 109.705C1837.58 112.585 1838.4 115.105 1839.48 117.266V118.577H1817.03C1815.95 116.314 1815.13 113.485 1814.56 110.091C1814.05 106.645 1813.79 103.199 1813.79 99.7529ZM1816.72 67.7363L1816.88 80.3115H1804.46C1801.52 80.3115 1798.98 80.6458 1796.82 81.3145C1794.66 81.9831 1792.88 82.9346 1791.49 84.1689C1790.11 85.3519 1789.08 86.7406 1788.41 88.335C1787.79 89.9294 1787.48 91.6781 1787.48 93.5811C1787.48 95.484 1787.92 97.207 1788.79 98.75C1789.67 100.242 1790.93 101.424 1792.57 102.299C1794.22 103.122 1796.15 103.533 1798.36 103.533C1801.7 103.533 1804.61 102.865 1807.08 101.527C1809.55 100.19 1811.45 98.5443 1812.79 96.5898C1814.18 94.6354 1814.9 92.7839 1814.95 91.0352L1820.81 100.447C1819.99 102.556 1818.86 104.742 1817.42 107.005C1816.03 109.268 1814.25 111.402 1812.09 113.408C1809.93 115.363 1807.34 116.983 1804.3 118.269C1801.27 119.503 1797.67 120.12 1793.5 120.12C1788.2 120.12 1783.39 119.066 1779.07 116.957C1774.8 114.797 1771.41 111.84 1768.89 108.085C1766.42 104.279 1765.19 99.9587 1765.19 95.124C1765.19 90.7523 1766.01 86.8691 1767.66 83.4746C1769.3 80.0801 1771.72 77.2256 1774.91 74.9111C1778.15 72.5452 1782.19 70.7708 1787.02 69.5879C1791.85 68.3535 1797.46 67.7363 1803.84 67.7363H1816.72Z" fill="url(#paint19_linear_226_3)" fill-opacity="0.23"/>
<path d="M1882.95 52.9238V118.577H1860.73V35.1025H1881.56L1882.95 52.9238ZM1879.71 73.9082H1873.69C1873.69 67.7363 1874.49 62.1816 1876.08 57.2441C1877.67 52.2552 1879.91 48.012 1882.79 44.5146C1885.67 40.9658 1889.09 38.2656 1893.05 36.4141C1897.06 34.5111 1901.54 33.5596 1906.48 33.5596C1910.39 33.5596 1913.96 34.1253 1917.2 35.2568C1920.44 36.3883 1923.22 38.1885 1925.53 40.6572C1927.9 43.126 1929.7 46.3919 1930.93 50.4551C1932.22 54.5182 1932.86 59.4814 1932.86 65.3447V118.577H1910.49V65.2676C1910.49 61.5645 1909.97 58.6842 1908.95 56.627C1907.92 54.5697 1906.4 53.1296 1904.39 52.3066C1902.44 51.4323 1900.02 50.9951 1897.14 50.9951C1894.16 50.9951 1891.56 51.5866 1889.35 52.7695C1887.19 53.9525 1885.39 55.5983 1883.95 57.707C1882.56 59.7643 1881.51 62.1816 1880.79 64.959C1880.07 67.7363 1879.71 70.7194 1879.71 73.9082Z" fill="url(#paint20_linear_226_3)" fill-opacity="0.23"/>
<path d="M2006.95 100.37V0.0771484H2029.33V118.577H2009.19L2006.95 100.37ZM1954.19 77.8428V76.2227C1954.19 69.8451 1954.91 64.0589 1956.35 58.8643C1957.79 53.6182 1959.89 49.1178 1962.67 45.3633C1965.45 41.6087 1968.87 38.7028 1972.93 36.6455C1977 34.5882 1981.62 33.5596 1986.82 33.5596C1991.71 33.5596 1995.97 34.5882 1999.63 36.6455C2003.33 38.7028 2006.47 41.6344 2009.04 45.4404C2011.66 49.195 2013.77 53.6439 2015.36 58.7871C2016.96 63.8789 2018.12 69.4593 2018.84 75.5283V79.0771C2018.12 84.889 2016.96 90.2894 2015.36 95.2783C2013.77 100.267 2011.66 104.639 2009.04 108.394C2006.47 112.097 2003.33 114.977 1999.63 117.034C1995.92 119.091 1991.6 120.12 1986.66 120.12C1981.47 120.12 1976.84 119.066 1972.78 116.957C1968.77 114.848 1965.37 111.891 1962.59 108.085C1959.87 104.279 1957.79 99.8044 1956.35 94.6611C1954.91 89.5179 1954.19 83.9118 1954.19 77.8428ZM1976.4 76.2227V77.8428C1976.4 81.2887 1976.66 84.5033 1977.18 87.4863C1977.74 90.4694 1978.64 93.1182 1979.88 95.4326C1981.16 97.6956 1982.81 99.4701 1984.81 100.756C1986.87 101.99 1989.36 102.607 1992.3 102.607C1996.1 102.607 1999.24 101.759 2001.71 100.062C2004.18 98.3128 2006.05 95.9212 2007.34 92.8867C2008.68 89.8522 2009.45 86.3548 2009.66 82.3945V72.2881C2009.5 69.0479 2009.04 66.1419 2008.27 63.5703C2007.55 60.9473 2006.47 58.71 2005.03 56.8584C2003.64 55.0068 2001.89 53.5667 1999.78 52.5381C1997.72 51.5094 1995.28 50.9951 1992.45 50.9951C1989.57 50.9951 1987.1 51.6637 1985.04 53.001C1982.99 54.2868 1981.32 56.0612 1980.03 58.3242C1978.8 60.5872 1977.87 63.2617 1977.25 66.3477C1976.69 69.3822 1976.4 72.6738 1976.4 76.2227Z" fill="url(#paint21_linear_226_3)" fill-opacity="0.23"/>
<path d="M2078.04 35.1025V118.577H2055.74V35.1025H2078.04ZM2054.35 13.3467C2054.35 10.1064 2055.49 7.43197 2057.75 5.32324C2060.01 3.21452 2063.05 2.16016 2066.85 2.16016C2070.61 2.16016 2073.62 3.21452 2075.88 5.32324C2078.19 7.43197 2079.35 10.1064 2079.35 13.3467C2079.35 16.5869 2078.19 19.2614 2075.88 21.3701C2073.62 23.4788 2070.61 24.5332 2066.85 24.5332C2063.05 24.5332 2060.01 23.4788 2057.75 21.3701C2055.49 19.2614 2054.35 16.5869 2054.35 13.3467Z" fill="url(#paint22_linear_226_3)" fill-opacity="0.23"/>
<path d="M2126.06 52.9238V118.577H2103.84V35.1025H2124.67L2126.06 52.9238ZM2122.82 73.9082H2116.8C2116.8 67.7363 2117.6 62.1816 2119.19 57.2441C2120.78 52.2552 2123.02 48.012 2125.9 44.5146C2128.78 40.9658 2132.2 38.2656 2136.16 36.4141C2140.17 34.5111 2144.65 33.5596 2149.59 33.5596C2153.5 33.5596 2157.07 34.1253 2160.31 35.2568C2163.55 36.3883 2166.33 38.1885 2168.64 40.6572C2171.01 43.126 2172.81 46.3919 2174.04 50.4551C2175.33 54.5182 2175.97 59.4814 2175.97 65.3447V118.577H2153.6V65.2676C2153.6 61.5645 2153.08 58.6842 2152.06 56.627C2151.03 54.5697 2149.51 53.1296 2147.5 52.3066C2145.55 51.4323 2143.13 50.9951 2140.25 50.9951C2137.27 50.9951 2134.67 51.5866 2132.46 52.7695C2130.3 53.9525 2128.5 55.5983 2127.06 57.707C2125.67 59.7643 2124.62 62.1816 2123.9 64.959C2123.18 67.7363 2122.82 70.7194 2122.82 73.9082Z" fill="url(#paint23_linear_226_3)" fill-opacity="0.23"/>
<path d="M2253.61 35.1025H2273.75V115.8C2273.75 123.412 2272.05 129.867 2268.66 135.164C2265.31 140.513 2260.63 144.55 2254.62 147.276C2248.6 150.054 2241.6 151.442 2233.63 151.442C2230.13 151.442 2226.43 150.979 2222.52 150.054C2218.67 149.128 2214.96 147.688 2211.41 145.733C2207.92 143.779 2204.98 141.31 2202.62 138.327L2212.42 125.212C2214.99 128.195 2217.97 130.509 2221.37 132.155C2224.76 133.853 2228.51 134.701 2232.63 134.701C2236.64 134.701 2240.04 133.955 2242.81 132.464C2245.59 131.024 2247.72 128.889 2249.22 126.061C2250.71 123.283 2251.45 119.914 2251.45 115.954V54.3896L2253.61 35.1025ZM2197.45 77.8428V76.2227C2197.45 69.8451 2198.22 64.0589 2199.76 58.8643C2201.36 53.6182 2203.6 49.1178 2206.48 45.3633C2209.41 41.6087 2212.96 38.7028 2217.12 36.6455C2221.29 34.5882 2225.99 33.5596 2231.24 33.5596C2236.8 33.5596 2241.45 34.5882 2245.2 36.6455C2248.96 38.7028 2252.05 41.6344 2254.46 45.4404C2256.88 49.195 2258.76 53.6439 2260.09 58.7871C2261.48 63.8789 2262.56 69.4593 2263.33 75.5283V79.0771C2262.56 84.889 2261.41 90.2894 2259.86 95.2783C2258.32 100.267 2256.29 104.639 2253.77 108.394C2251.25 112.097 2248.11 114.977 2244.36 117.034C2240.65 119.091 2236.23 120.12 2231.09 120.12C2225.94 120.12 2221.29 119.066 2217.12 116.957C2213.01 114.848 2209.48 111.891 2206.55 108.085C2203.62 104.279 2201.36 99.8044 2199.76 94.6611C2198.22 89.5179 2197.45 83.9118 2197.45 77.8428ZM2219.67 76.2227V77.8428C2219.67 81.2887 2220 84.5033 2220.67 87.4863C2221.34 90.4694 2222.37 93.1182 2223.76 95.4326C2225.2 97.6956 2226.97 99.4701 2229.08 100.756C2231.24 101.99 2233.79 102.607 2236.72 102.607C2240.78 102.607 2244.1 101.759 2246.67 100.062C2249.24 98.3128 2251.17 95.9212 2252.46 92.8867C2253.74 89.8522 2254.49 86.3548 2254.69 82.3945V72.2881C2254.59 69.0479 2254.15 66.1419 2253.38 63.5703C2252.61 60.9473 2251.53 58.71 2250.14 56.8584C2248.75 55.0068 2246.95 53.5667 2244.74 52.5381C2242.53 51.5094 2239.91 50.9951 2236.87 50.9951C2233.94 50.9951 2231.4 51.6637 2229.23 53.001C2227.13 54.2868 2225.35 56.0612 2223.91 58.3242C2222.52 60.5872 2221.47 63.2617 2220.75 66.3477C2220.03 69.3822 2219.67 72.6738 2219.67 76.2227Z" fill="url(#paint24_linear_226_3)" fill-opacity="0.23"/>
<path d="M2393.62 6.24902V118.577H2370.56V6.24902H2393.62ZM2428.19 6.24902V24.3789H2336.53V6.24902H2428.19Z" fill="url(#paint25_linear_226_3)" fill-opacity="0.23"/>
<path d="M2469.57 0.0771484V118.577H2447.35V0.0771484H2469.57ZM2466.4 73.9082H2460.31C2460.36 68.0964 2461.13 62.7474 2462.62 57.8613C2464.12 52.9238 2466.25 48.6549 2469.03 45.0547C2471.81 41.403 2475.12 38.5742 2478.98 36.5684C2482.89 34.5625 2487.21 33.5596 2491.94 33.5596C2496.06 33.5596 2499.78 34.151 2503.13 35.334C2506.52 36.4655 2509.43 38.3171 2511.85 40.8887C2514.31 43.4089 2516.22 46.7262 2517.55 50.8408C2518.89 54.9554 2519.56 59.9443 2519.56 65.8076V118.577H2497.19V65.6533C2497.19 61.9502 2496.65 59.0443 2495.57 56.9355C2494.54 54.7754 2493.02 53.2581 2491.02 52.3838C2489.06 51.458 2486.64 50.9951 2483.76 50.9951C2480.57 50.9951 2477.85 51.5866 2475.59 52.7695C2473.37 53.9525 2471.6 55.5983 2470.26 57.707C2468.92 59.7643 2467.95 62.1816 2467.33 64.959C2466.71 67.7363 2466.4 70.7194 2466.4 73.9082Z" fill="url(#paint26_linear_226_3)" fill-opacity="0.23"/>
<path d="M2589.41 99.7529V62.5674C2589.41 59.8929 2588.97 57.6042 2588.1 55.7012C2587.22 53.7467 2585.86 52.2295 2584.01 51.1494C2582.21 50.0693 2579.87 49.5293 2576.99 49.5293C2574.52 49.5293 2572.39 49.9665 2570.59 50.8408C2568.79 51.6637 2567.4 52.8724 2566.42 54.4668C2565.44 56.0098 2564.95 57.8356 2564.95 59.9443H2542.74C2542.74 56.3955 2543.56 53.0267 2545.2 49.8379C2546.85 46.6491 2549.24 43.846 2552.38 41.4287C2555.52 38.96 2559.25 37.0312 2563.57 35.6426C2567.94 34.2539 2572.82 33.5596 2578.22 33.5596C2584.7 33.5596 2590.46 34.6396 2595.5 36.7998C2600.55 38.96 2604.51 42.2002 2607.39 46.5205C2610.32 50.8408 2611.78 56.2412 2611.78 62.7217V98.4414C2611.78 103.019 2612.07 106.773 2612.63 109.705C2613.2 112.585 2614.02 115.105 2615.1 117.266V118.577H2592.65C2591.57 116.314 2590.75 113.485 2590.18 110.091C2589.67 106.645 2589.41 103.199 2589.41 99.7529ZM2592.34 67.7363L2592.5 80.3115H2580.08C2577.14 80.3115 2574.6 80.6458 2572.44 81.3145C2570.28 81.9831 2568.5 82.9346 2567.11 84.1689C2565.73 85.3519 2564.7 86.7406 2564.03 88.335C2563.41 89.9294 2563.1 91.6781 2563.1 93.5811C2563.1 95.484 2563.54 97.207 2564.41 98.75C2565.29 100.242 2566.55 101.424 2568.19 102.299C2569.84 103.122 2571.77 103.533 2573.98 103.533C2577.32 103.533 2580.23 102.865 2582.7 101.527C2585.17 100.19 2587.07 98.5443 2588.41 96.5898C2589.8 94.6354 2590.52 92.7839 2590.57 91.0352L2596.43 100.447C2595.61 102.556 2594.48 104.742 2593.04 107.005C2591.65 109.268 2589.87 111.402 2587.71 113.408C2585.55 115.363 2582.96 116.983 2579.92 118.269C2576.89 119.503 2573.29 120.12 2569.12 120.12C2563.82 120.12 2559.01 119.066 2554.69 116.957C2550.42 114.797 2547.03 111.84 2544.51 108.085C2542.04 104.279 2540.81 99.9587 2540.81 95.124C2540.81 90.7523 2541.63 86.8691 2543.28 83.4746C2544.92 80.0801 2547.34 77.2256 2550.53 74.9111C2553.77 72.5452 2557.81 70.7708 2562.64 69.5879C2567.47 68.3535 2573.08 67.7363 2579.46 67.7363H2592.34Z" fill="url(#paint27_linear_226_3)" fill-opacity="0.23"/>
<path d="M2658.57 52.9238V118.577H2636.35V35.1025H2657.18L2658.57 52.9238ZM2655.33 73.9082H2649.31C2649.31 67.7363 2650.11 62.1816 2651.7 57.2441C2653.29 52.2552 2655.53 48.012 2658.41 44.5146C2661.29 40.9658 2664.71 38.2656 2668.67 36.4141C2672.68 34.5111 2677.16 33.5596 2682.1 33.5596C2686.01 33.5596 2689.58 34.1253 2692.82 35.2568C2696.06 36.3883 2698.84 38.1885 2701.15 40.6572C2703.52 43.126 2705.32 46.3919 2706.55 50.4551C2707.84 54.5182 2708.48 59.4814 2708.48 65.3447V118.577H2686.11V65.2676C2686.11 61.5645 2685.59 58.6842 2684.56 56.627C2683.54 54.5697 2682.02 53.1296 2680.01 52.3066C2678.06 51.4323 2675.64 50.9951 2672.76 50.9951C2669.78 50.9951 2667.18 51.5866 2664.97 52.7695C2662.81 53.9525 2661.01 55.5983 2659.57 57.707C2658.18 59.7643 2657.13 62.1816 2656.41 64.959C2655.69 67.7363 2655.33 70.7194 2655.33 73.9082Z" fill="url(#paint28_linear_226_3)" fill-opacity="0.23"/>
<path d="M2755.5 0V118.577H2733.28V0H2755.5ZM2808.11 35.1025L2771.85 76.4541L2752.41 96.127L2744.31 80.0801L2759.74 60.4844L2781.42 35.1025H2808.11ZM2785.04 118.577L2760.36 80.0029L2775.71 66.5791L2810.66 118.577H2785.04Z" fill="url(#paint29_linear_226_3)" fill-opacity="0.23"/>
<path d="M2870.71 95.5098C2870.71 93.9154 2870.25 92.4753 2869.32 91.1895C2868.39 89.9036 2866.67 88.7207 2864.15 87.6406C2861.68 86.5091 2858.11 85.4805 2853.43 84.5547C2849.21 83.6289 2845.28 82.4717 2841.62 81.083C2838.02 79.6429 2834.89 77.9199 2832.21 75.9141C2829.59 73.9082 2827.53 71.5423 2826.04 68.8164C2824.55 66.0391 2823.8 62.876 2823.8 59.3271C2823.8 55.8298 2824.55 52.5381 2826.04 49.4521C2827.58 46.3662 2829.77 43.6403 2832.6 41.2744C2835.48 38.8571 2838.98 36.9798 2843.09 35.6426C2847.26 34.2539 2851.94 33.5596 2857.13 33.5596C2864.38 33.5596 2870.61 34.7168 2875.8 37.0312C2881.05 39.3457 2885.06 42.5345 2887.84 46.5977C2890.66 50.6094 2892.08 55.1868 2892.08 60.3301H2869.86C2869.86 58.1699 2869.4 56.2412 2868.47 54.5439C2867.6 52.7952 2866.21 51.4323 2864.31 50.4551C2862.45 49.4264 2860.04 48.9121 2857.05 48.9121C2854.58 48.9121 2852.45 49.3493 2850.65 50.2236C2848.85 51.0465 2847.46 52.1781 2846.48 53.6182C2845.56 55.0068 2845.1 56.5498 2845.1 58.2471C2845.1 59.5329 2845.35 60.6901 2845.87 61.7188C2846.43 62.696 2847.33 63.596 2848.57 64.4189C2849.8 65.2419 2851.4 66.0133 2853.35 66.7334C2855.36 67.402 2857.82 68.0192 2860.76 68.585C2866.77 69.8193 2872.15 71.4395 2876.88 73.4453C2881.61 75.3997 2885.37 78.0742 2888.14 81.4688C2890.92 84.8118 2892.31 89.2093 2892.31 94.6611C2892.31 98.3643 2891.49 101.759 2889.84 104.845C2888.2 107.931 2885.83 110.631 2882.74 112.945C2879.66 115.208 2875.95 116.983 2871.63 118.269C2867.37 119.503 2862.56 120.12 2857.21 120.12C2849.44 120.12 2842.86 118.731 2837.46 115.954C2832.11 113.177 2828.05 109.654 2825.27 105.385C2822.54 101.064 2821.18 96.6413 2821.18 92.1152H2842.24C2842.34 95.1497 2843.12 97.5928 2844.56 99.4443C2846.05 101.296 2847.92 102.633 2850.19 103.456C2852.5 104.279 2855 104.69 2857.67 104.69C2860.55 104.69 2862.94 104.305 2864.85 103.533C2866.75 102.71 2868.19 101.63 2869.17 100.293C2870.19 98.9043 2870.71 97.3099 2870.71 95.5098Z" fill="url(#paint30_linear_226_3)" fill-opacity="0.23"/>
<path d="M3038.18 51.998V70.0508H2979.55V51.998H3038.18ZM2986.42 6.24902V118.577H2963.27V6.24902H2986.42ZM3054.69 6.24902V118.577H3031.62V6.24902H3054.69Z" fill="url(#paint31_linear_226_3)" fill-opacity="0.23"/>
<path d="M3077.79 77.6885V76.0684C3077.79 69.9479 3078.66 64.3161 3080.41 59.1729C3082.16 53.9782 3084.71 49.4779 3088.05 45.6719C3091.39 41.8659 3095.51 38.9085 3100.4 36.7998C3105.28 34.6396 3110.89 33.5596 3117.21 33.5596C3123.54 33.5596 3129.17 34.6396 3134.11 36.7998C3139.05 38.9085 3143.19 41.8659 3146.53 45.6719C3149.92 49.4779 3152.5 53.9782 3154.24 59.1729C3155.99 64.3161 3156.87 69.9479 3156.87 76.0684V77.6885C3156.87 83.7575 3155.99 89.3893 3154.24 94.584C3152.5 99.7272 3149.92 104.228 3146.53 108.085C3143.19 111.891 3139.07 114.848 3134.19 116.957C3129.3 119.066 3123.69 120.12 3117.37 120.12C3111.04 120.12 3105.41 119.066 3100.47 116.957C3095.59 114.848 3091.45 111.891 3088.05 108.085C3084.71 104.228 3082.16 99.7272 3080.41 94.584C3078.66 89.3893 3077.79 83.7575 3077.79 77.6885ZM3100.01 76.0684V77.6885C3100.01 81.1859 3100.32 84.4518 3100.94 87.4863C3101.55 90.5208 3102.53 93.1953 3103.87 95.5098C3105.26 97.7728 3107.06 99.5472 3109.27 100.833C3111.48 102.119 3114.18 102.762 3117.37 102.762C3120.45 102.762 3123.1 102.119 3125.31 100.833C3127.53 99.5472 3129.3 97.7728 3130.64 95.5098C3131.97 93.1953 3132.95 90.5208 3133.57 87.4863C3134.24 84.4518 3134.57 81.1859 3134.57 77.6885V76.0684C3134.57 72.6738 3134.24 69.485 3133.57 66.502C3132.95 63.4674 3131.95 60.793 3130.56 58.4785C3129.22 56.1126 3127.45 54.2611 3125.24 52.9238C3123.03 51.5866 3120.35 50.918 3117.21 50.918C3114.08 50.918 3111.4 51.5866 3109.19 52.9238C3107.03 54.2611 3105.26 56.1126 3103.87 58.4785C3102.53 60.793 3101.55 63.4674 3100.94 66.502C3100.32 69.485 3100.01 72.6738 3100.01 76.0684Z" fill="url(#paint32_linear_226_3)" fill-opacity="0.23"/>
<path d="M3200.18 52.9238V118.577H3177.96V35.1025H3198.79L3200.18 52.9238ZM3196.94 73.9082H3190.92C3190.92 67.7363 3191.72 62.1816 3193.31 57.2441C3194.91 52.2552 3197.14 48.012 3200.02 44.5146C3202.9 40.9658 3206.33 38.2656 3210.29 36.4141C3214.3 34.5111 3218.77 33.5596 3223.71 33.5596C3227.62 33.5596 3231.19 34.1253 3234.43 35.2568C3237.67 36.3883 3240.45 38.1885 3242.76 40.6572C3245.13 43.126 3246.93 46.3919 3248.17 50.4551C3249.45 54.5182 3250.09 59.4814 3250.09 65.3447V118.577H3227.72V65.2676C3227.72 61.5645 3227.21 58.6842 3226.18 56.627C3225.15 54.5697 3223.63 53.1296 3221.63 52.3066C3219.67 51.4323 3217.25 50.9951 3214.37 50.9951C3211.39 50.9951 3208.79 51.5866 3206.58 52.7695C3204.42 53.9525 3202.62 55.5983 3201.18 57.707C3199.79 59.7643 3198.74 62.1816 3198.02 64.959C3197.3 67.7363 3196.94 70.7194 3196.94 73.9082Z" fill="url(#paint33_linear_226_3)" fill-opacity="0.23"/>
<path d="M3313.31 120.12C3306.83 120.12 3301.02 119.091 3295.87 117.034C3290.73 114.925 3286.36 112.02 3282.76 108.316C3279.21 104.613 3276.48 100.319 3274.58 95.4326C3272.68 90.4951 3271.73 85.249 3271.73 79.6943V76.6084C3271.73 70.2822 3272.63 64.4961 3274.43 59.25C3276.23 54.0039 3278.8 49.4521 3282.14 45.5947C3285.54 41.7373 3289.65 38.7799 3294.49 36.7227C3299.32 34.6139 3304.77 33.5596 3310.84 33.5596C3316.76 33.5596 3322 34.5368 3326.58 36.4912C3331.16 38.4456 3334.99 41.223 3338.07 44.8232C3341.21 48.4235 3343.58 52.7438 3345.17 57.7842C3346.77 62.7731 3347.56 68.3278 3347.56 74.4482V83.7061H3281.22V68.8936H3325.73V67.1963C3325.73 64.1104 3325.16 61.3587 3324.03 58.9414C3322.95 56.4727 3321.31 54.5182 3319.1 53.0781C3316.88 51.638 3314.06 50.918 3310.61 50.918C3307.68 50.918 3305.16 51.5609 3303.05 52.8467C3300.94 54.1325 3299.22 55.9326 3297.88 58.2471C3296.59 60.5615 3295.62 63.2874 3294.95 66.4248C3294.33 69.5107 3294.02 72.9053 3294.02 76.6084V79.6943C3294.02 83.0374 3294.49 86.1234 3295.41 88.9521C3296.39 91.7809 3297.75 94.224 3299.5 96.2812C3301.3 98.3385 3303.46 99.9329 3305.98 101.064C3308.55 102.196 3311.46 102.762 3314.7 102.762C3318.71 102.762 3322.44 101.99 3325.88 100.447C3329.38 98.8529 3332.39 96.4613 3334.91 93.2725L3345.71 104.999C3343.96 107.519 3341.57 109.937 3338.54 112.251C3335.55 114.565 3331.95 116.468 3327.74 117.96C3323.52 119.4 3318.71 120.12 3313.31 120.12Z" fill="url(#paint34_linear_226_3)" fill-opacity="0.23"/>
<path d="M3413.25 95.5098C3413.25 93.9154 3412.78 92.4753 3411.86 91.1895C3410.93 89.9036 3409.21 88.7207 3406.69 87.6406C3404.22 86.5091 3400.65 85.4805 3395.97 84.5547C3391.75 83.6289 3387.81 82.4717 3384.16 81.083C3380.56 79.6429 3377.42 77.9199 3374.75 75.9141C3372.13 73.9082 3370.07 71.5423 3368.58 68.8164C3367.09 66.0391 3366.34 62.876 3366.34 59.3271C3366.34 55.8298 3367.09 52.5381 3368.58 49.4521C3370.12 46.3662 3372.31 43.6403 3375.14 41.2744C3378.02 38.8571 3381.51 36.9798 3385.63 35.6426C3389.79 34.2539 3394.47 33.5596 3399.67 33.5596C3406.92 33.5596 3413.14 34.7168 3418.34 37.0312C3423.59 39.3457 3427.6 42.5345 3430.37 46.5977C3433.2 50.6094 3434.62 55.1868 3434.62 60.3301H3412.4C3412.4 58.1699 3411.94 56.2412 3411.01 54.5439C3410.14 52.7952 3408.75 51.4323 3406.84 50.4551C3404.99 49.4264 3402.58 48.9121 3399.59 48.9121C3397.12 48.9121 3394.99 49.3493 3393.19 50.2236C3391.39 51.0465 3390 52.1781 3389.02 53.6182C3388.1 55.0068 3387.63 56.5498 3387.63 58.2471C3387.63 59.5329 3387.89 60.6901 3388.41 61.7188C3388.97 62.696 3389.87 63.596 3391.11 64.4189C3392.34 65.2419 3393.93 66.0133 3395.89 66.7334C3397.9 67.402 3400.36 68.0192 3403.3 68.585C3409.31 69.8193 3414.69 71.4395 3419.42 73.4453C3424.15 75.3997 3427.91 78.0742 3430.68 81.4688C3433.46 84.8118 3434.85 89.2093 3434.85 94.6611C3434.85 98.3643 3434.03 101.759 3432.38 104.845C3430.73 107.931 3428.37 110.631 3425.28 112.945C3422.2 115.208 3418.49 116.983 3414.17 118.269C3409.9 119.503 3405.1 120.12 3399.75 120.12C3391.98 120.12 3385.4 118.731 3380 115.954C3374.65 113.177 3370.58 109.654 3367.81 105.385C3365.08 101.064 3363.72 96.6413 3363.72 92.1152H3384.78C3384.88 95.1497 3385.65 97.5928 3387.09 99.4443C3388.59 101.296 3390.46 102.633 3392.73 103.456C3395.04 104.279 3397.53 104.69 3400.21 104.69C3403.09 104.69 3405.48 104.305 3407.38 103.533C3409.29 102.71 3410.73 101.63 3411.7 100.293C3412.73 98.9043 3413.25 97.3099 3413.25 95.5098Z" fill="url(#paint35_linear_226_3)" fill-opacity="0.23"/>
<path d="M3498.06 35.1025V50.8408H3449.46V35.1025H3498.06ZM3461.5 14.5039H3483.71V93.4268C3483.71 95.8441 3484.02 97.6956 3484.64 98.9814C3485.31 100.267 3486.29 101.167 3487.57 101.682C3488.86 102.145 3490.48 102.376 3492.43 102.376C3493.82 102.376 3495.06 102.325 3496.14 102.222C3497.27 102.067 3498.22 101.913 3498.99 101.759L3499.07 118.114C3497.16 118.731 3495.11 119.22 3492.9 119.58C3490.68 119.94 3488.24 120.12 3485.57 120.12C3480.68 120.12 3476.41 119.323 3472.76 117.729C3469.16 116.083 3466.38 113.46 3464.43 109.859C3462.47 106.259 3461.5 101.527 3461.5 95.6641V14.5039Z" fill="url(#paint36_linear_226_3)" fill-opacity="0.23"/>
<path d="M3543.38 109.165L3565.52 35.1025H3589.36L3555.8 131.152C3555.08 133.261 3554.1 135.524 3552.87 137.941C3551.69 140.359 3550.07 142.647 3548.01 144.808C3546 147.019 3543.46 148.819 3540.37 150.208C3537.34 151.597 3533.61 152.291 3529.19 152.291C3527.08 152.291 3525.35 152.162 3524.02 151.905C3522.68 151.648 3521.09 151.288 3519.23 150.825V134.547C3519.8 134.547 3520.39 134.547 3521.01 134.547C3521.63 134.598 3522.22 134.624 3522.78 134.624C3525.71 134.624 3528.11 134.29 3529.96 133.621C3531.81 132.952 3533.3 131.924 3534.43 130.535C3535.56 129.198 3536.46 127.449 3537.13 125.289L3543.38 109.165ZM3534.12 35.1025L3552.25 95.5869L3555.42 119.117L3540.3 120.737L3510.28 35.1025H3534.12Z" fill="url(#paint37_linear_226_3)" fill-opacity="0.23"/>
<defs>
<linearGradient id="paint0_linear_226_3" x1="-10.0293" y1="118.577" x2="3576.97" y2="-3.42252" gradientUnits="userSpaceOnUse">
<stop stop-color="#005E98"/>
<stop offset="0.359851" stop-color="#85A8AE"/>
<stop offset="1" stop-color="#FE9900"/>
</linearGradient>
<linearGradient id="paint1_linear_226_3" x1="-10.0293" y1="118.577" x2="3576.97" y2="-3.42252" gradientUnits="userSpaceOnUse">
<stop stop-color="#005E98"/>
<stop offset="0.359851" stop-color="#85A8AE"/>
<stop offset="1" stop-color="#FE9900"/>
</linearGradient>
<linearGradient id="paint2_linear_226_3" x1="-10.0293" y1="118.577" x2="3576.97" y2="-3.42252" gradientUnits="userSpaceOnUse">
<stop stop-color="#005E98"/>
<stop offset="0.359851" stop-color="#85A8AE"/>
<stop offset="1" stop-color="#FE9900"/>
</linearGradient>
<linearGradient id="paint3_linear_226_3" x1="-10.0293" y1="118.577" x2="3576.97" y2="-3.42252" gradientUnits="userSpaceOnUse">
<stop stop-color="#005E98"/>
<stop offset="0.359851" stop-color="#85A8AE"/>
<stop offset="1" stop-color="#FE9900"/>
</linearGradient>
<linearGradient id="paint4_linear_226_3" x1="-10.0293" y1="118.577" x2="3576.97" y2="-3.42252" gradientUnits="userSpaceOnUse">
<stop stop-color="#005E98"/>
<stop offset="0.359851" stop-color="#85A8AE"/>
<stop offset="1" stop-color="#FE9900"/>
</linearGradient>
<linearGradient id="paint5_linear_226_3" x1="-10.0293" y1="118.577" x2="3576.97" y2="-3.42252" gradientUnits="userSpaceOnUse">
<stop stop-color="#005E98"/>
<stop offset="0.359851" stop-color="#85A8AE"/>
<stop offset="1" stop-color="#FE9900"/>
</linearGradient>
<linearGradient id="paint6_linear_226_3" x1="-10.0293" y1="118.577" x2="3576.97" y2="-3.42252" gradientUnits="userSpaceOnUse">
<stop stop-color="#005E98"/>
<stop offset="0.359851" stop-color="#85A8AE"/>
<stop offset="1" stop-color="#FE9900"/>
</linearGradient>
<linearGradient id="paint7_linear_226_3" x1="-10.0293" y1="118.577" x2="3576.97" y2="-3.42252" gradientUnits="userSpaceOnUse">
<stop stop-color="#005E98"/>
<stop offset="0.359851" stop-color="#85A8AE"/>
<stop offset="1" stop-color="#FE9900"/>
</linearGradient>
<linearGradient id="paint8_linear_226_3" x1="-10.0293" y1="118.577" x2="3576.97" y2="-3.42252" gradientUnits="userSpaceOnUse">
<stop stop-color="#005E98"/>
<stop offset="0.359851" stop-color="#85A8AE"/>
<stop offset="1" stop-color="#FE9900"/>
</linearGradient>
<linearGradient id="paint9_linear_226_3" x1="-10.0293" y1="118.577" x2="3576.97" y2="-3.42252" gradientUnits="userSpaceOnUse">
<stop stop-color="#005E98"/>
<stop offset="0.359851" stop-color="#85A8AE"/>
<stop offset="1" stop-color="#FE9900"/>
</linearGradient>
<linearGradient id="paint10_linear_226_3" x1="-10.0293" y1="118.577" x2="3576.97" y2="-3.42252" gradientUnits="userSpaceOnUse">
<stop stop-color="#005E98"/>
<stop offset="0.359851" stop-color="#85A8AE"/>
<stop offset="1" stop-color="#FE9900"/>
</linearGradient>
<linearGradient id="paint11_linear_226_3" x1="-10.0293" y1="118.577" x2="3576.97" y2="-3.42252" gradientUnits="userSpaceOnUse">
<stop stop-color="#005E98"/>
<stop offset="0.359851" stop-color="#85A8AE"/>
<stop offset="1" stop-color="#FE9900"/>
</linearGradient>
<linearGradient id="paint12_linear_226_3" x1="-10.0293" y1="118.577" x2="3576.97" y2="-3.42252" gradientUnits="userSpaceOnUse">
<stop stop-color="#005E98"/>
<stop offset="0.359851" stop-color="#85A8AE"/>
<stop offset="1" stop-color="#FE9900"/>
</linearGradient>
<linearGradient id="paint13_linear_226_3" x1="-10.0293" y1="118.577" x2="3576.97" y2="-3.42252" gradientUnits="userSpaceOnUse">
<stop stop-color="#005E98"/>
<stop offset="0.359851" stop-color="#85A8AE"/>
<stop offset="1" stop-color="#FE9900"/>
</linearGradient>
<linearGradient id="paint14_linear_226_3" x1="-10.0293" y1="118.577" x2="3576.97" y2="-3.42252" gradientUnits="userSpaceOnUse">
<stop stop-color="#005E98"/>
<stop offset="0.359851" stop-color="#85A8AE"/>
<stop offset="1" stop-color="#FE9900"/>
</linearGradient>
<linearGradient id="paint15_linear_226_3" x1="-10.0293" y1="118.577" x2="3576.97" y2="-3.42252" gradientUnits="userSpaceOnUse">
<stop stop-color="#005E98"/>
<stop offset="0.359851" stop-color="#85A8AE"/>
<stop offset="1" stop-color="#FE9900"/>
</linearGradient>
<linearGradient id="paint16_linear_226_3" x1="-10.0293" y1="118.577" x2="3576.97" y2="-3.42252" gradientUnits="userSpaceOnUse">
<stop stop-color="#005E98"/>
<stop offset="0.359851" stop-color="#85A8AE"/>
<stop offset="1" stop-color="#FE9900"/>
</linearGradient>
<linearGradient id="paint17_linear_226_3" x1="-10.0293" y1="118.577" x2="3576.97" y2="-3.42252" gradientUnits="userSpaceOnUse">
<stop stop-color="#005E98"/>
<stop offset="0.359851" stop-color="#85A8AE"/>
<stop offset="1" stop-color="#FE9900"/>
</linearGradient>
<linearGradient id="paint18_linear_226_3" x1="-10.0293" y1="118.577" x2="3576.97" y2="-3.42252" gradientUnits="userSpaceOnUse">
<stop stop-color="#005E98"/>
<stop offset="0.359851" stop-color="#85A8AE"/>
<stop offset="1" stop-color="#FE9900"/>
</linearGradient>
<linearGradient id="paint19_linear_226_3" x1="-10.0293" y1="118.577" x2="3576.97" y2="-3.42252" gradientUnits="userSpaceOnUse">
<stop stop-color="#005E98"/>
<stop offset="0.359851" stop-color="#85A8AE"/>
<stop offset="1" stop-color="#FE9900"/>
</linearGradient>
<linearGradient id="paint20_linear_226_3" x1="-10.0293" y1="118.577" x2="3576.97" y2="-3.42252" gradientUnits="userSpaceOnUse">
<stop stop-color="#005E98"/>
<stop offset="0.359851" stop-color="#85A8AE"/>
<stop offset="1" stop-color="#FE9900"/>
</linearGradient>
<linearGradient id="paint21_linear_226_3" x1="-10.0293" y1="118.577" x2="3576.97" y2="-3.42252" gradientUnits="userSpaceOnUse">
<stop stop-color="#005E98"/>
<stop offset="0.359851" stop-color="#85A8AE"/>
<stop offset="1" stop-color="#FE9900"/>
</linearGradient>
<linearGradient id="paint22_linear_226_3" x1="-10.0293" y1="118.577" x2="3576.97" y2="-3.42252" gradientUnits="userSpaceOnUse">
<stop stop-color="#005E98"/>
<stop offset="0.359851" stop-color="#85A8AE"/>
<stop offset="1" stop-color="#FE9900"/>
</linearGradient>
<linearGradient id="paint23_linear_226_3" x1="-10.0293" y1="118.577" x2="3576.97" y2="-3.42252" gradientUnits="userSpaceOnUse">
<stop stop-color="#005E98"/>
<stop offset="0.359851" stop-color="#85A8AE"/>
<stop offset="1" stop-color="#FE9900"/>
</linearGradient>
<linearGradient id="paint24_linear_226_3" x1="-10.0293" y1="118.577" x2="3576.97" y2="-3.42252" gradientUnits="userSpaceOnUse">
<stop stop-color="#005E98"/>
<stop offset="0.359851" stop-color="#85A8AE"/>
<stop offset="1" stop-color="#FE9900"/>
</linearGradient>
<linearGradient id="paint25_linear_226_3" x1="-10.0293" y1="118.577" x2="3576.97" y2="-3.42252" gradientUnits="userSpaceOnUse">
<stop stop-color="#005E98"/>
<stop offset="0.359851" stop-color="#85A8AE"/>
<stop offset="1" stop-color="#FE9900"/>
</linearGradient>
<linearGradient id="paint26_linear_226_3" x1="-10.0293" y1="118.577" x2="3576.97" y2="-3.42252" gradientUnits="userSpaceOnUse">
<stop stop-color="#005E98"/>
<stop offset="0.359851" stop-color="#85A8AE"/>
<stop offset="1" stop-color="#FE9900"/>
</linearGradient>
<linearGradient id="paint27_linear_226_3" x1="-10.0293" y1="118.577" x2="3576.97" y2="-3.42252" gradientUnits="userSpaceOnUse">
<stop stop-color="#005E98"/>
<stop offset="0.359851" stop-color="#85A8AE"/>
<stop offset="1" stop-color="#FE9900"/>
</linearGradient>
<linearGradient id="paint28_linear_226_3" x1="-10.0293" y1="118.577" x2="3576.97" y2="-3.42252" gradientUnits="userSpaceOnUse">
<stop stop-color="#005E98"/>
<stop offset="0.359851" stop-color="#85A8AE"/>
<stop offset="1" stop-color="#FE9900"/>
</linearGradient>
<linearGradient id="paint29_linear_226_3" x1="-10.0293" y1="118.577" x2="3576.97" y2="-3.42252" gradientUnits="userSpaceOnUse">
<stop stop-color="#005E98"/>
<stop offset="0.359851" stop-color="#85A8AE"/>
<stop offset="1" stop-color="#FE9900"/>
</linearGradient>
<linearGradient id="paint30_linear_226_3" x1="-10.0293" y1="118.577" x2="3576.97" y2="-3.42252" gradientUnits="userSpaceOnUse">
<stop stop-color="#005E98"/>
<stop offset="0.359851" stop-color="#85A8AE"/>
<stop offset="1" stop-color="#FE9900"/>
</linearGradient>
<linearGradient id="paint31_linear_226_3" x1="-10.0293" y1="118.577" x2="3576.97" y2="-3.42252" gradientUnits="userSpaceOnUse">
<stop stop-color="#005E98"/>
<stop offset="0.359851" stop-color="#85A8AE"/>
<stop offset="1" stop-color="#FE9900"/>
</linearGradient>
<linearGradient id="paint32_linear_226_3" x1="-10.0293" y1="118.577" x2="3576.97" y2="-3.42252" gradientUnits="userSpaceOnUse">
<stop stop-color="#005E98"/>
<stop offset="0.359851" stop-color="#85A8AE"/>
<stop offset="1" stop-color="#FE9900"/>
</linearGradient>
<linearGradient id="paint33_linear_226_3" x1="-10.0293" y1="118.577" x2="3576.97" y2="-3.42252" gradientUnits="userSpaceOnUse">
<stop stop-color="#005E98"/>
<stop offset="0.359851" stop-color="#85A8AE"/>
<stop offset="1" stop-color="#FE9900"/>
</linearGradient>
<linearGradient id="paint34_linear_226_3" x1="-10.0293" y1="118.577" x2="3576.97" y2="-3.42252" gradientUnits="userSpaceOnUse">
<stop stop-color="#005E98"/>
<stop offset="0.359851" stop-color="#85A8AE"/>
<stop offset="1" stop-color="#FE9900"/>
</linearGradient>
<linearGradient id="paint35_linear_226_3" x1="-10.0293" y1="118.577" x2="3576.97" y2="-3.42252" gradientUnits="userSpaceOnUse">
<stop stop-color="#005E98"/>
<stop offset="0.359851" stop-color="#85A8AE"/>
<stop offset="1" stop-color="#FE9900"/>
</linearGradient>
<linearGradient id="paint36_linear_226_3" x1="-10.0293" y1="118.577" x2="3576.97" y2="-3.42252" gradientUnits="userSpaceOnUse">
<stop stop-color="#005E98"/>
<stop offset="0.359851" stop-color="#85A8AE"/>
<stop offset="1" stop-color="#FE9900"/>
</linearGradient>
<linearGradient id="paint37_linear_226_3" x1="-10.0293" y1="118.577" x2="3576.97" y2="-3.42252" gradientUnits="userSpaceOnUse">
<stop stop-color="#005E98"/>
<stop offset="0.359851" stop-color="#85A8AE"/>
<stop offset="1" stop-color="#FE9900"/>
</linearGradient>
</defs>
</svg>
