<svg width="660" height="122" viewBox="0 0 660 122" fill="none" xmlns="http://www.w3.org/2000/svg">
<path d="M0.537109 1.98438H44.5498C53.5739 1.98438 61.3281 3.33529 67.8125 6.03711C74.3509 8.73893 79.3763 12.7376 82.8887 18.0332C86.401 23.3288 88.1572 29.8402 88.1572 37.5674C88.1572 43.8896 87.0765 49.3203 84.915 53.8594C82.8076 58.3444 79.8086 62.0999 75.918 65.126C72.0814 68.098 67.5693 70.4756 62.3818 72.2588L54.6816 76.3115H16.4238L16.2617 57.3447H44.7119C48.9808 57.3447 52.5202 56.5882 55.3301 55.0752C58.14 53.5622 60.2474 51.4548 61.6523 48.7529C63.1113 46.0511 63.8408 42.917 63.8408 39.3506C63.8408 35.568 63.1383 32.2988 61.7334 29.543C60.3284 26.7871 58.194 24.6797 55.3301 23.2207C52.4661 21.7617 48.8727 21.0322 44.5498 21.0322H24.8535V120H0.537109V1.98438ZM66.5156 120L39.6055 67.3955L65.2998 67.2334L92.5342 118.865V120H66.5156Z" fill="url(#paint0_linear_364_12)" fill-opacity="0.23"/>
<path d="M186.071 101.033V120H123.254V101.033H186.071ZM131.197 1.98438V120H106.881V1.98438H131.197ZM177.885 50.0498V68.5303H123.254V50.0498H177.885ZM185.99 1.98438V21.0322H123.254V1.98438H185.99Z" fill="url(#paint1_linear_364_12)" fill-opacity="0.23"/>
<path d="M268.666 80.8506H292.901C292.415 88.7939 290.227 95.8457 286.336 102.006C282.499 108.166 277.123 112.975 270.206 116.434C263.343 119.892 255.076 121.621 245.403 121.621C237.838 121.621 231.057 120.324 225.059 117.73C219.061 115.083 213.927 111.3 209.658 106.383C205.443 101.465 202.228 95.5215 200.013 88.5508C197.797 81.5801 196.689 73.7718 196.689 65.126V56.9395C196.689 48.2936 197.824 40.4854 200.094 33.5146C202.417 26.4899 205.714 20.5189 209.982 15.6016C214.305 10.6842 219.466 6.90169 225.464 4.25391C231.462 1.60612 238.162 0.282227 245.565 0.282227C255.4 0.282227 263.695 2.06543 270.449 5.63184C277.258 9.19824 282.526 14.1156 286.255 20.3838C290.037 26.652 292.307 33.7848 293.063 41.7822H268.747C268.477 37.027 267.531 33.0013 265.91 29.7051C264.289 26.3548 261.83 23.8421 258.534 22.167C255.292 20.4378 250.969 19.5732 245.565 19.5732C241.513 19.5732 237.973 20.3298 234.947 21.8428C231.921 23.3558 229.382 25.6523 227.328 28.7324C225.275 31.8125 223.735 35.7031 222.708 40.4043C221.735 45.0514 221.249 50.5091 221.249 56.7773V65.126C221.249 71.2321 221.708 76.6087 222.627 81.2559C223.546 85.849 224.951 89.7396 226.842 92.9277C228.787 96.0619 231.273 98.4395 234.299 100.061C237.379 101.628 241.08 102.411 245.403 102.411C250.483 102.411 254.671 101.601 257.967 99.9795C261.263 98.3584 263.776 95.9538 265.505 92.7656C267.288 89.5775 268.342 85.6058 268.666 80.8506Z" fill="url(#paint2_linear_364_12)" fill-opacity="0.23"/>
<path d="M308.869 1.98438H352.882C361.906 1.98438 369.66 3.33529 376.145 6.03711C382.683 8.73893 387.708 12.7376 391.221 18.0332C394.733 23.3288 396.489 29.8402 396.489 37.5674C396.489 43.8896 395.409 49.3203 393.247 53.8594C391.14 58.3444 388.141 62.0999 384.25 65.126C380.413 68.098 375.901 70.4756 370.714 72.2588L363.014 76.3115H324.756L324.594 57.3447H353.044C357.313 57.3447 360.852 56.5882 363.662 55.0752C366.472 53.5622 368.579 51.4548 369.984 48.7529C371.443 46.0511 372.173 42.917 372.173 39.3506C372.173 35.568 371.47 32.2988 370.065 29.543C368.66 26.7871 366.526 24.6797 363.662 23.2207C360.798 21.7617 357.205 21.0322 352.882 21.0322H333.186V120H308.869V1.98438ZM374.848 120L347.938 67.3955L373.632 67.2334L400.866 118.865V120H374.848Z" fill="url(#paint3_linear_364_12)" fill-opacity="0.23"/>
<path d="M480.381 1.98438H504.616V79.959C504.616 89.0371 502.671 96.6833 498.78 102.897C494.944 109.112 489.621 113.786 482.812 116.92C476.058 120.054 468.277 121.621 459.469 121.621C450.661 121.621 442.826 120.054 435.963 116.92C429.154 113.786 423.805 109.112 419.914 102.897C416.077 96.6833 414.159 89.0371 414.159 79.959V1.98438H438.476V79.959C438.476 85.2546 439.313 89.5775 440.988 92.9277C442.663 96.278 445.068 98.7367 448.202 100.304C451.39 101.871 455.146 102.654 459.469 102.654C463.9 102.654 467.655 101.871 470.735 100.304C473.869 98.7367 476.247 96.278 477.868 92.9277C479.543 89.5775 480.381 85.2546 480.381 79.959V1.98438Z" fill="url(#paint4_linear_364_12)" fill-opacity="0.23"/>
<path d="M550.493 1.98438V120H526.258V1.98438H550.493Z" fill="url(#paint5_linear_364_12)" fill-opacity="0.23"/>
<path d="M623.604 1.98438V120H599.369V1.98438H623.604ZM659.917 1.98438V21.0322H563.624V1.98438H659.917Z" fill="url(#paint6_linear_364_12)" fill-opacity="0.23"/>
<defs>
<linearGradient id="paint0_linear_364_12" x1="1.03526" y1="120" x2="654.034" y2="32.2102" gradientUnits="userSpaceOnUse">
<stop stop-color="#005E98"/>
<stop offset="0.332767" stop-color="#85A8AE"/>
<stop offset="1" stop-color="#FE9900"/>
</linearGradient>
<linearGradient id="paint1_linear_364_12" x1="1.03526" y1="120" x2="654.034" y2="32.2102" gradientUnits="userSpaceOnUse">
<stop stop-color="#005E98"/>
<stop offset="0.332767" stop-color="#85A8AE"/>
<stop offset="1" stop-color="#FE9900"/>
</linearGradient>
<linearGradient id="paint2_linear_364_12" x1="1.03526" y1="120" x2="654.034" y2="32.2102" gradientUnits="userSpaceOnUse">
<stop stop-color="#005E98"/>
<stop offset="0.332767" stop-color="#85A8AE"/>
<stop offset="1" stop-color="#FE9900"/>
</linearGradient>
<linearGradient id="paint3_linear_364_12" x1="1.03526" y1="120" x2="654.034" y2="32.2102" gradientUnits="userSpaceOnUse">
<stop stop-color="#005E98"/>
<stop offset="0.332767" stop-color="#85A8AE"/>
<stop offset="1" stop-color="#FE9900"/>
</linearGradient>
<linearGradient id="paint4_linear_364_12" x1="1.03526" y1="120" x2="654.034" y2="32.2102" gradientUnits="userSpaceOnUse">
<stop stop-color="#005E98"/>
<stop offset="0.332767" stop-color="#85A8AE"/>
<stop offset="1" stop-color="#FE9900"/>
</linearGradient>
<linearGradient id="paint5_linear_364_12" x1="1.03526" y1="120" x2="654.034" y2="32.2102" gradientUnits="userSpaceOnUse">
<stop stop-color="#005E98"/>
<stop offset="0.332767" stop-color="#85A8AE"/>
<stop offset="1" stop-color="#FE9900"/>
</linearGradient>
<linearGradient id="paint6_linear_364_12" x1="1.03526" y1="120" x2="654.034" y2="32.2102" gradientUnits="userSpaceOnUse">
<stop stop-color="#005E98"/>
<stop offset="0.332767" stop-color="#85A8AE"/>
<stop offset="1" stop-color="#FE9900"/>
</linearGradient>
</defs>
</svg>
