<svg width="651" height="122" viewBox="0 0 651 122" fill="none" xmlns="http://www.w3.org/2000/svg">
<path d="M66.9766 89.1182C66.9766 87.0107 66.6523 85.1195 66.0039 83.4443C65.4095 81.7152 64.2747 80.1481 62.5996 78.7432C60.9245 77.2842 58.5739 75.8522 55.5479 74.4473C52.5218 73.0423 48.6042 71.5833 43.7949 70.0703C38.4453 68.3411 33.3659 66.3958 28.5566 64.2344C23.8014 62.0729 19.5866 59.5602 15.9121 56.6963C12.2917 53.7783 9.42773 50.401 7.32031 46.5645C5.26693 42.7279 4.24023 38.2699 4.24023 33.1904C4.24023 28.2731 5.32096 23.8151 7.48242 19.8164C9.64388 15.7637 12.6699 12.3053 16.5605 9.44141C20.4512 6.52344 25.0443 4.28092 30.3398 2.71387C35.6895 1.14681 41.5524 0.363281 47.9287 0.363281C56.6286 0.363281 64.2207 1.93034 70.7051 5.06445C77.1895 8.19857 82.2148 12.4945 85.7812 17.9521C89.4017 23.4098 91.2119 29.651 91.2119 36.6758H67.0576C67.0576 33.2174 66.3281 30.1914 64.8691 27.5977C63.4642 24.9499 61.3027 22.8695 58.3848 21.3564C55.5208 19.8434 51.9004 19.0869 47.5234 19.0869C43.3086 19.0869 39.7962 19.7354 36.9863 21.0322C34.1764 22.2751 32.069 23.9772 30.6641 26.1387C29.2591 28.2461 28.5566 30.6237 28.5566 33.2715C28.5566 35.2708 29.043 37.0811 30.0156 38.7021C31.0423 40.3232 32.5553 41.8363 34.5547 43.2412C36.554 44.6462 39.0127 45.9701 41.9307 47.2129C44.8486 48.4557 48.2259 49.6716 52.0625 50.8604C58.4928 52.8057 64.1396 54.9941 69.0029 57.4258C73.9202 59.8574 78.027 62.5863 81.3232 65.6123C84.6195 68.6383 87.1051 72.0697 88.7803 75.9062C90.4554 79.7428 91.293 84.0928 91.293 88.9561C91.293 94.0895 90.2933 98.6826 88.2939 102.735C86.2946 106.788 83.4036 110.219 79.6211 113.029C75.8385 115.839 71.3265 117.974 66.085 119.433C60.8434 120.892 54.9805 121.621 48.4961 121.621C42.6602 121.621 36.9053 120.865 31.2314 119.352C25.5576 117.785 20.3971 115.434 15.75 112.3C11.1569 109.166 7.48242 105.167 4.72656 100.304C1.9707 95.4404 0.592773 89.6855 0.592773 83.0391H24.9902C24.9902 86.7135 25.5576 89.8206 26.6924 92.3604C27.8271 94.9001 29.4212 96.9535 31.4746 98.5205C33.582 100.088 36.0677 101.222 38.9316 101.925C41.8496 102.627 45.0378 102.979 48.4961 102.979C52.7109 102.979 56.1693 102.384 58.8711 101.195C61.627 100.007 63.6533 98.3584 64.9502 96.251C66.3011 94.1436 66.9766 91.766 66.9766 89.1182Z" fill="url(#paint0_linear_335_2)" fill-opacity="0.23"/>
<path d="M187.019 101.033V120H124.201V101.033H187.019ZM132.145 1.98438V120H107.828V1.98438H132.145ZM178.832 50.0498V68.5303H124.201V50.0498H178.832ZM186.938 1.98438V21.0322H124.201V1.98438H186.938Z" fill="url(#paint1_linear_335_2)" fill-opacity="0.23"/>
<path d="M201.203 1.98438H245.216C254.24 1.98438 261.994 3.33529 268.479 6.03711C275.017 8.73893 280.042 12.7376 283.555 18.0332C287.067 23.3288 288.823 29.8402 288.823 37.5674C288.823 43.8896 287.743 49.3203 285.581 53.8594C283.474 58.3444 280.475 62.0999 276.584 65.126C272.747 68.098 268.235 70.4756 263.048 72.2588L255.348 76.3115H217.09L216.928 57.3447H245.378C249.647 57.3447 253.186 56.5882 255.996 55.0752C258.806 53.5622 260.913 51.4548 262.318 48.7529C263.777 46.0511 264.507 42.917 264.507 39.3506C264.507 35.568 263.804 32.2988 262.399 29.543C260.994 26.7871 258.86 24.6797 255.996 23.2207C253.132 21.7617 249.539 21.0322 245.216 21.0322H225.52V120H201.203V1.98438ZM267.182 120L240.271 67.3955L265.966 67.2334L293.2 118.865V120H267.182Z" fill="url(#paint2_linear_335_2)" fill-opacity="0.23"/>
<path d="M348.479 95.3594L376.281 1.98438H403.354L362.259 120H344.427L348.479 95.3594ZM322.866 1.98438L350.587 95.3594L354.802 120H336.808L295.956 1.98438H322.866Z" fill="url(#paint3_linear_335_2)" fill-opacity="0.23"/>
<path d="M440.233 1.98438V120H415.998V1.98438H440.233Z" fill="url(#paint4_linear_335_2)" fill-opacity="0.23"/>
<path d="M531.42 80.8506H555.655C555.169 88.7939 552.98 95.8457 549.09 102.006C545.253 108.166 539.877 112.975 532.96 116.434C526.097 119.892 517.83 121.621 508.157 121.621C500.592 121.621 493.811 120.324 487.812 117.73C481.814 115.083 476.681 111.3 472.412 106.383C468.197 101.465 464.982 95.5215 462.767 88.5508C460.551 81.5801 459.443 73.7718 459.443 65.126V56.9395C459.443 48.2936 460.578 40.4854 462.848 33.5146C465.171 26.4899 468.467 20.5189 472.736 15.6016C477.059 10.6842 482.22 6.90169 488.218 4.25391C494.216 1.60612 500.916 0.282227 508.319 0.282227C518.154 0.282227 526.449 2.06543 533.203 5.63184C540.012 9.19824 545.28 14.1156 549.009 20.3838C552.791 26.652 555.061 33.7848 555.817 41.7822H531.501C531.231 37.027 530.285 33.0013 528.664 29.7051C527.043 26.3548 524.584 23.8421 521.288 22.167C518.046 20.4378 513.723 19.5732 508.319 19.5732C504.267 19.5732 500.727 20.3298 497.701 21.8428C494.675 23.3558 492.135 25.6523 490.082 28.7324C488.029 31.8125 486.489 35.7031 485.462 40.4043C484.489 45.0514 484.003 50.5091 484.003 56.7773V65.126C484.003 71.2321 484.462 76.6087 485.381 81.2559C486.299 85.849 487.704 89.7396 489.596 92.9277C491.541 96.0619 494.027 98.4395 497.053 100.061C500.133 101.628 503.834 102.411 508.157 102.411C513.237 102.411 517.424 101.601 520.721 99.9795C524.017 98.3584 526.53 95.9538 528.259 92.7656C530.042 89.5775 531.096 85.6058 531.42 80.8506Z" fill="url(#paint5_linear_335_2)" fill-opacity="0.23"/>
<path d="M650.813 101.033V120H587.996V101.033H650.813ZM595.939 1.98438V120H571.623V1.98438H595.939ZM642.627 50.0498V68.5303H587.996V50.0498H642.627ZM650.732 1.98438V21.0322H587.996V1.98438H650.732Z" fill="url(#paint6_linear_335_2)" fill-opacity="0.23"/>
<defs>
<linearGradient id="paint0_linear_335_2" x1="5.80604" y1="120" x2="645.708" y2="35.7579" gradientUnits="userSpaceOnUse">
<stop stop-color="#005E98"/>
<stop offset="0.332767" stop-color="#85A8AE"/>
<stop offset="1" stop-color="#FE9900"/>
</linearGradient>
<linearGradient id="paint1_linear_335_2" x1="5.80604" y1="120" x2="645.708" y2="35.7579" gradientUnits="userSpaceOnUse">
<stop stop-color="#005E98"/>
<stop offset="0.332767" stop-color="#85A8AE"/>
<stop offset="1" stop-color="#FE9900"/>
</linearGradient>
<linearGradient id="paint2_linear_335_2" x1="5.80604" y1="120" x2="645.708" y2="35.7579" gradientUnits="userSpaceOnUse">
<stop stop-color="#005E98"/>
<stop offset="0.332767" stop-color="#85A8AE"/>
<stop offset="1" stop-color="#FE9900"/>
</linearGradient>
<linearGradient id="paint3_linear_335_2" x1="5.80604" y1="120" x2="645.708" y2="35.7579" gradientUnits="userSpaceOnUse">
<stop stop-color="#005E98"/>
<stop offset="0.332767" stop-color="#85A8AE"/>
<stop offset="1" stop-color="#FE9900"/>
</linearGradient>
<linearGradient id="paint4_linear_335_2" x1="5.80604" y1="120" x2="645.708" y2="35.7579" gradientUnits="userSpaceOnUse">
<stop stop-color="#005E98"/>
<stop offset="0.332767" stop-color="#85A8AE"/>
<stop offset="1" stop-color="#FE9900"/>
</linearGradient>
<linearGradient id="paint5_linear_335_2" x1="5.80604" y1="120" x2="645.708" y2="35.7579" gradientUnits="userSpaceOnUse">
<stop stop-color="#005E98"/>
<stop offset="0.332767" stop-color="#85A8AE"/>
<stop offset="1" stop-color="#FE9900"/>
</linearGradient>
<linearGradient id="paint6_linear_335_2" x1="5.80604" y1="120" x2="645.708" y2="35.7579" gradientUnits="userSpaceOnUse">
<stop stop-color="#005E98"/>
<stop offset="0.332767" stop-color="#85A8AE"/>
<stop offset="1" stop-color="#FE9900"/>
</linearGradient>
</defs>
</svg>
