<svg width="346" height="134" viewBox="0 0 346 134" fill="none" xmlns="http://www.w3.org/2000/svg">
<path d="M13.1895 90.2406C13.6348 89.8589 13.9787 89.4508 14.2213 89.0164C14.5097 88.5723 14.8765 88.1594 15.3217 87.7777C15.5186 87.353 15.7709 86.9644 16.0788 86.6119C16.4227 86.2038 16.716 85.7826 16.9586 85.3482C17.4039 84.9665 17.7804 84.5993 18.0883 84.2468C18.4322 83.8387 18.7157 83.3717 18.9389 82.8458C19.201 82.503 19.4319 82.2385 19.6316 82.0525C19.8771 81.8568 20.0949 81.643 20.2849 81.4113C21.0253 80.3925 21.7103 79.3378 22.3398 78.247C23.0053 77.1006 23.7541 76.0084 24.5861 74.9702C24.7566 74.6469 24.932 74.3464 25.1123 74.0688C25.3286 73.7358 25.5269 73.4304 25.7071 73.1529C25.9332 72.8656 26.1592 72.5783 26.3852 72.291C26.6015 71.9579 26.8178 71.6248 27.0341 71.2917C27.2144 71.0141 27.3489 70.7463 27.4376 70.4882C27.5165 70.1843 27.6413 69.8707 27.8118 69.5473C27.9463 69.2795 28.0759 68.9888 28.2006 68.6752C28.3254 68.3615 28.4272 68.0528 28.5062 67.7489C28.7556 67.1216 28.9822 66.4993 29.1859 65.8818C29.4354 65.2545 29.6114 64.619 29.7138 63.9752C29.7509 63.2495 29.7958 62.7854 29.8485 62.5828C29.9469 62.3705 30.0176 62.1401 30.0605 61.8917C30.1394 61.5878 30.1726 61.2937 30.16 61.0093C30.1834 60.6693 30.2624 60.3654 30.3969 60.0976C30.5411 59.8755 30.7686 59.7076 31.0793 59.5937C31.3803 59.434 31.6696 59.4443 31.9472 59.6245C32.33 59.3996 32.6325 59.3592 32.8545 59.5034C33.1126 59.5921 33.3542 59.8279 33.5791 60.2107C33.7193 60.4202 33.7909 60.6442 33.7937 60.8829C33.7966 61.1215 33.8321 61.4011 33.9002 61.7215C33.9352 62.3362 34.0159 62.9411 34.1424 63.5363C34.3147 64.1217 34.3677 64.7086 34.3013 65.2969C34.2944 65.4898 34.2647 65.6875 34.2121 65.8901C34.2052 66.0829 34.1755 66.2807 34.1228 66.4833C34.0175 66.8884 33.9337 67.1694 33.8713 67.3262C33.809 67.4831 33.7744 67.6579 33.7675 67.8508C33.7509 67.9978 33.7114 68.1498 33.6491 68.3066C33.5964 68.5092 33.4751 68.7264 33.2851 68.9582C33.1312 69.1344 32.987 69.3565 32.8525 69.6243C32.3478 70.4015 31.8937 71.1919 31.4903 71.9954C31.0772 72.7531 30.6918 73.5289 30.3341 74.3227C29.9931 74.9694 29.7962 75.394 29.7436 75.5966C29.6812 75.7534 29.6008 75.938 29.5024 76.1503C29.4137 76.4084 29.2744 76.6534 29.0844 76.8851C28.9402 77.1072 28.8008 77.3521 28.6664 77.62C28.5943 77.731 28.5499 77.8601 28.5333 78.0071C28.5167 78.1542 28.4724 78.2833 28.4003 78.3943C27.9774 79.1062 27.5316 79.8231 27.063 80.5447C26.5943 81.2664 26.1763 82.0013 25.8089 82.7493C25.7202 83.0074 25.6315 83.2655 25.5429 83.5236C25.4542 83.7817 25.3426 84.0447 25.2081 84.3125C25.0902 84.4332 24.9543 84.5818 24.8004 84.758C24.6367 84.8885 24.4648 85.0926 24.2845 85.3701C24.2124 85.4812 24.1174 85.597 23.9995 85.7178C23.8719 85.7928 23.7491 85.8907 23.6313 86.0114C23.1958 86.4389 22.7374 86.8713 22.2561 87.3086C21.8109 87.6903 21.3706 88.0949 20.9351 88.5225C20.5911 88.9305 20.2195 89.3206 19.82 89.6926C19.4664 90.0548 19.1356 90.4123 18.8277 90.7648C18.248 91.4144 17.8154 92.0805 17.5299 92.7633C17.2804 93.3905 16.7222 93.9159 15.8552 94.3395C15.8541 95.0096 15.9937 95.5541 16.2742 95.973C16.6004 96.3822 16.8482 96.7602 17.0177 97.107C17.1579 97.3164 17.2849 97.5765 17.3988 97.8873C17.5488 98.1425 17.7036 98.4206 17.8633 98.7217C18.0882 99.1045 18.2903 99.4922 18.4694 99.8848C18.6388 100.232 18.8638 100.614 19.1442 101.033C19.2747 101.197 19.3823 101.366 19.467 101.539C19.5517 101.712 19.6593 101.881 19.7898 102.045C19.9592 102.391 20.1009 102.72 20.2148 103.031C20.3745 103.332 20.539 103.656 20.7084 104.003C21.0473 104.696 21.4777 105.37 21.9996 106.025C22.244 106.499 22.5473 106.913 22.9096 107.267C23.2622 107.575 23.5689 107.893 23.8299 108.22C24.088 108.309 24.3101 108.453 24.4961 108.652C24.7279 108.842 24.9548 109.01 25.1768 109.154C25.6765 109.478 26.0894 109.845 26.4156 110.254C26.7876 110.654 27.2186 110.993 27.7085 111.271C28.0387 111.249 28.3689 111.227 28.6991 111.204C29.0196 111.136 29.3254 110.999 29.6167 110.794C29.7804 110.664 29.9163 110.515 30.0245 110.348C30.1687 110.126 30.3226 109.95 30.4863 109.82C30.6305 109.598 30.7844 109.421 30.9481 109.291C31.102 109.115 31.2102 108.948 31.2725 108.791C32.0811 108.093 32.7149 107.36 33.1738 106.593C33.6328 105.825 34.1097 105.03 34.6047 104.207C34.8765 103.91 35.1026 103.623 35.2828 103.345C35.4991 103.012 35.7203 102.702 35.9463 102.415C36.5942 102.085 37.0408 101.823 37.2863 101.627C37.5318 101.432 37.787 101.282 38.052 101.177C38.353 101.018 38.6409 100.909 38.9156 100.85C39.2263 100.736 39.5107 100.724 39.7689 100.812C39.7162 101.015 39.7371 101.226 39.8316 101.445C39.9163 101.619 39.9323 101.807 39.8797 102.009C39.8562 102.349 39.7772 102.653 39.6428 102.921C39.5541 103.179 39.4474 103.465 39.3226 103.778C39.0342 104.222 38.7181 104.649 38.3741 105.057C38.0302 105.465 37.7369 105.886 37.4943 106.32C37.1046 106.738 36.7607 107.146 36.4625 107.544C36.2102 107.933 35.9349 108.327 35.6368 108.725C35.3484 109.169 35.0274 109.572 34.6737 109.934C34.3658 110.287 34.0677 110.685 33.7793 111.129C33.2288 111.916 32.688 112.749 32.157 113.628C31.6717 114.496 31.0983 115.288 30.4368 116.003C30.0139 116.715 29.5049 117.134 28.9097 117.261C28.6614 117.218 28.4178 117.198 28.1792 117.201C27.9406 117.203 27.6971 117.183 27.4487 117.14C26.6549 116.783 25.848 116.476 25.0279 116.22C24.2175 116.009 23.5187 115.535 22.9315 114.799C22.5068 114.602 22.1134 114.327 21.7511 113.973C21.4346 113.61 21.1084 113.201 20.7724 112.746C20.6059 112.638 20.4164 112.534 20.2041 112.436C20.0278 112.282 19.8696 112.1 19.7294 111.891C19.5268 111.838 19.3422 111.758 19.1757 111.65C19.0452 111.486 18.8967 111.35 18.7301 111.242C18.1429 110.505 17.5314 109.654 16.8955 108.689C16.2957 107.668 15.7757 106.798 15.3356 106.078C15.2606 105.95 15.1857 105.822 15.1107 105.695C15.0357 105.567 14.951 105.394 14.8566 105.175C14.7358 105.057 14.6428 104.957 14.5776 104.875C14.5026 104.747 14.4276 104.62 14.3526 104.492C14.1569 104.247 13.9792 103.973 13.8195 103.672C13.6959 103.316 13.5493 102.964 13.3799 102.617C13.2105 102.271 12.9953 101.934 12.7343 101.606C12.4733 101.279 12.2353 100.947 12.0201 100.61C11.7951 100.227 11.5702 99.844 11.3453 99.4611C11.1203 99.0783 10.8545 98.728 10.5477 98.4104C10.0917 99.4165 9.85336 100.209 9.83279 100.787C9.81222 101.366 9.741 101.931 9.61913 102.484C9.4057 103.055 9.30042 103.461 9.30329 103.699C9.29643 103.892 9.27155 104.113 9.22864 104.361C9.07758 104.776 8.93139 105.214 8.79006 105.675C8.639 106.089 8.52056 106.545 8.43474 107.042C8.39183 107.29 8.34892 107.539 8.30602 107.787C8.29916 107.98 8.27428 108.201 8.23137 108.449C8.18846 108.697 8.17331 108.964 8.18592 109.248C8.23457 109.477 8.23745 109.716 8.19454 109.964C8.13217 110.121 8.0698 110.278 8.00743 110.435C7.93532 110.546 7.86809 110.68 7.80572 110.836C7.65465 111.251 7.53622 111.707 7.4504 112.204C7.40063 112.645 7.33771 113.137 7.26163 113.68C7.31603 114.386 7.40162 115.014 7.5184 115.563C7.62544 116.067 7.69157 116.603 7.71678 117.172C7.45469 117.514 7.26957 117.769 7.16142 117.936C7.09905 118.092 7.00892 118.231 6.89104 118.352C6.72737 118.482 6.55884 118.59 6.38544 118.675C6.25782 118.75 6.08929 118.857 5.87984 118.998C5.58457 119.635 5.35511 120.018 5.19144 120.149C5.02777 120.279 4.86897 120.433 4.71503 120.609C4.59715 120.73 4.48413 120.873 4.37598 121.04C4.26782 121.206 4.15481 121.35 4.03692 121.471C3.58197 121.807 3.02915 122.02 2.37847 122.11C1.72778 122.201 1.12631 122.185 0.574043 122.063C0.433821 121.854 0.353978 121.703 0.334516 121.612C0.279002 121.576 0.204026 121.448 0.109586 121.229C0.195402 120.732 0.204251 120.324 0.136131 120.003C0.428523 119.128 0.624483 118.248 0.724014 117.366C0.777761 116.493 0.98832 115.683 1.35569 114.935C1.49016 114.667 1.58372 114.432 1.63636 114.229C1.73478 114.017 1.85123 113.777 1.9857 113.509C2.13389 112.855 2.32786 112.192 2.56761 111.519C2.79763 110.8 2.95411 110.073 3.03705 109.338C3.33232 108.701 3.49366 107.997 3.52109 107.225C3.5943 106.444 3.70013 105.704 3.83859 105.004C4.03942 104.148 4.18473 103.256 4.27453 102.328C4.41011 101.39 4.66158 100.547 5.02895 99.7988C5.15082 99.2466 5.29558 98.6894 5.46323 98.1274C5.62115 97.5197 5.76104 96.9396 5.88291 96.3874C5.90635 96.0474 5.9298 95.7075 5.95324 95.3675C5.97669 95.0276 6.02302 94.6828 6.09225 94.3331C6.17121 94.0292 6.25017 93.7254 6.32913 93.4215C6.40809 93.1176 6.50507 92.7859 6.62008 92.4265C6.79747 91.9103 6.90131 91.3858 6.93161 90.853C7.0077 90.3105 7.10667 89.7631 7.22854 89.2108C7.55809 87.6095 7.91053 86.0034 8.28586 84.3924C8.6612 82.7814 9.01364 81.1752 9.34319 79.574C9.51195 78.3418 9.71333 77.1506 9.94733 76.0003C10.1813 74.85 10.3647 73.6865 10.4974 72.5099C10.3601 72.5391 10.2422 72.6598 10.1437 72.8721C10.0356 73.0387 9.94546 73.1775 9.87336 73.2885C9.66391 73.4287 9.48222 73.587 9.32828 73.7632C9.17435 73.9395 9.00239 74.1435 8.8124 74.3753C8.30481 74.9139 7.76261 75.6273 7.18579 76.5155C6.9958 76.7473 6.7649 77.0117 6.49308 77.3087C6.25731 77.5502 6.02154 77.7917 5.78577 78.0333C5.09505 78.6107 4.45697 78.9856 3.87153 79.1579C3.46347 78.814 3.25457 78.6191 3.24484 78.5734C3.27116 78.4721 3.2517 78.3805 3.18645 78.2987C2.99072 78.0532 2.80615 77.9728 2.63275 78.0575C2.49541 78.0867 2.36978 77.9459 2.25588 77.6351C2.14198 77.3244 2.05097 77.0088 1.98285 76.6883C1.91473 76.3678 1.90212 76.0834 1.94503 75.835C1.99767 75.6324 2.09609 75.4201 2.2403 75.1981C2.42055 74.9205 2.60567 74.6658 2.79566 74.434C3.06461 73.8983 3.37104 73.4265 3.71496 73.0184C4.32097 72.2675 5.01026 71.5707 5.78281 70.928C6.00885 70.6407 6.28067 70.3437 6.59827 70.0369C6.96166 69.7204 7.28413 69.4366 7.56568 69.1853C7.89301 68.9243 8.25297 68.7043 8.64555 68.5251C9.03813 68.346 9.35717 68.1585 9.60267 67.9628C9.80238 67.7768 9.9958 67.4486 10.1829 66.9781C10.4061 66.4522 10.5898 66.0782 10.734 65.8561C11.0847 65.2552 11.4058 64.852 11.6971 64.6466C11.9883 64.4411 12.2012 64.2044 12.3357 63.9366C12.4341 63.7243 12.4819 63.4988 12.479 63.2602C12.5122 62.966 12.6009 62.7079 12.7451 62.4858C12.9877 62.0515 13.2186 61.7871 13.4378 61.6926C13.693 61.5427 14.0968 61.5286 14.649 61.6505C15.0153 61.5726 15.3358 61.5045 15.6105 61.4461C15.8852 61.3877 16.078 61.3946 16.1891 61.4667C16.5027 61.5914 16.8635 61.8258 17.2716 62.1697C17.7254 62.5039 18.0059 62.9228 18.1129 63.4264C18.2102 63.8842 18.2389 64.3566 18.1988 64.8437C18.1588 65.3307 18.1417 65.8128 18.1474 66.2901C17.8413 67.5515 17.5401 68.8357 17.2437 70.1428C16.9473 71.4499 16.6738 72.7522 16.4232 74.0496C16.318 74.4548 16.2356 74.8551 16.1761 75.2505C16.1166 75.646 16.0571 76.0414 15.9976 76.4369C15.9547 76.6853 15.9575 76.9239 16.0062 77.1528C16.0549 77.3817 15.9793 77.5892 15.7796 77.7752C15.5107 78.3109 15.3416 78.7535 15.2723 79.1032C15.2031 79.4529 15.0784 79.7665 14.8981 80.0441C14.8289 80.3937 14.7548 80.7205 14.6758 81.0244C14.5969 81.3283 14.5228 81.6551 14.4536 82.0048C14.4038 82.446 14.3998 82.8775 14.4416 83.2993C14.4737 83.6753 14.4746 84.1297 14.4443 84.6625C14.4403 85.094 14.3496 85.5678 14.1722 86.084C14.0309 86.5447 13.9173 87.0235 13.8315 87.5202C13.6902 87.9809 13.5717 88.4367 13.4762 88.8877C13.4264 89.3289 13.3309 89.7799 13.1895 90.2406Z" fill="#005994"/>
<path d="M55.4517 88.148C55.5267 88.2757 55.5393 88.5601 55.4895 89.0013C55.319 89.3247 55.2449 89.6515 55.2672 89.9817C55.2146 90.1842 55.1571 90.364 55.0947 90.5208C55.0781 90.6678 55.0713 90.8607 55.0742 91.0993C55.041 91.3935 55.0633 91.7237 55.1412 92.09C55.2648 92.4465 55.3378 92.7899 55.3601 93.1201C55.3756 93.6431 55.414 94.1614 55.4752 94.6747C55.5268 95.1422 55.5832 95.6327 55.6444 96.146C55.7515 96.6496 55.8273 97.2317 55.872 97.8921C55.9167 98.5525 55.9468 99.1442 55.9622 99.6673C56.2135 99.9488 56.4009 100.268 56.5246 100.624C56.6482 100.981 56.8717 101.244 57.195 101.415C58.0815 101.083 58.7702 100.721 59.2612 100.33C59.7425 99.8926 60.1765 99.3457 60.5634 98.6893C60.9365 98.4186 61.1771 98.2 61.2853 98.0334C61.4392 97.8571 61.675 97.6156 61.9926 97.3089C62.0647 97.1978 62.1368 97.0868 62.2089 96.9758C62.281 96.8648 62.3531 96.7537 62.4252 96.6427C62.8704 96.261 63.1291 96.0146 63.2012 95.9035C63.3191 95.7828 63.4598 95.6572 63.6235 95.5267C64.2948 94.8576 64.778 94.2046 65.0733 93.5677C65.4172 93.1596 65.6335 92.8265 65.7222 92.5684C65.847 92.2548 66.1597 91.9251 66.6604 91.5794C66.903 91.1451 67.1603 90.7794 67.4321 90.4823C67.74 90.1298 68.0152 89.7363 68.2578 89.3019C68.4868 89.2533 68.6796 89.2601 68.8364 89.3225C68.9932 89.3849 69.1729 89.4424 69.3755 89.495C69.5907 89.8321 69.6963 90.2164 69.6923 90.6479C69.6786 91.0336 69.5914 91.411 69.4306 91.7802C69.2698 92.1493 69.1943 92.3568 69.204 92.4025C69.2137 92.4483 69.2006 92.499 69.1645 92.5545C69.0661 92.7668 68.9219 92.9889 68.7319 93.2206C68.578 93.3969 68.4518 93.5912 68.3534 93.8035C68.212 94.2642 68.0727 94.5092 67.9354 94.5384C67.798 94.5676 67.6933 94.6377 67.6212 94.7487C67.2578 95.0652 66.9991 95.3116 66.8452 95.4879C66.737 95.6544 66.5242 95.8911 66.2066 96.1978C65.7613 96.5796 65.5027 96.8259 65.4306 96.937C65.3585 97.048 65.2815 97.1361 65.1997 97.2014C64.7407 97.9688 64.3033 98.6121 63.8872 99.1312C63.5073 99.5948 63.1107 100.205 62.6976 100.963C62.5436 101.139 62.3897 101.316 62.2357 101.492C62.0818 101.668 61.9605 101.885 61.8718 102.144C61.5182 102.506 61.2332 102.854 61.0169 103.187C60.8463 103.51 60.6398 103.889 60.3971 104.323C60.1516 104.519 59.8978 104.788 59.6358 105.131C59.3639 105.428 59.0644 105.707 58.737 105.968C58.5734 106.099 58.3917 106.257 58.1919 106.443C58.0283 106.573 57.832 106.663 57.6031 106.711C57.0732 106.92 56.5598 106.981 56.0631 106.895C55.5663 106.809 55.1022 106.765 54.6707 106.761C54.4292 106.525 54.1516 106.345 53.838 106.22C53.3189 105.804 52.8948 105.272 52.5657 104.624C52.2366 103.976 51.8978 103.283 51.5492 102.543C51.2316 102.85 50.9515 103.221 50.7089 103.655C50.4662 104.089 50.1174 104.475 49.6625 104.811C48.9317 105.875 48.1274 106.931 47.2496 107.979C46.4078 108.971 45.5529 110.015 44.6848 111.108C44.5766 111.275 44.4636 111.418 44.3457 111.539C44.2278 111.66 44.1183 111.707 44.017 111.681C43.8464 112.004 43.56 112.233 43.1577 112.366C42.8109 112.535 42.3989 112.623 41.9216 112.629C41.4151 112.497 40.969 112.424 40.5833 112.411C40.1976 112.397 39.8021 112.337 39.3969 112.232C38.5894 112.26 37.8755 112.053 37.2551 111.611C36.5889 111.178 35.9949 110.635 35.4729 109.98C35.2577 109.643 35.0932 109.319 34.9792 109.008C34.8196 108.707 34.6501 108.36 34.471 107.968C34.3474 107.611 34.2154 107.328 34.0752 107.119C33.9253 106.864 33.8717 106.612 33.9147 106.363C33.7939 106.246 33.7418 106.113 33.7584 105.966C33.7653 105.773 33.7492 105.585 33.7103 105.402C33.5283 104.771 33.451 104.069 33.4784 103.298C33.46 102.536 33.525 101.829 33.6732 101.175C33.7258 100.972 33.8603 100.705 34.0766 100.372C34.1389 100.215 34.1784 100.063 34.195 99.9157C34.2116 99.7686 34.2559 99.6396 34.328 99.5285C34.3904 99.3717 34.4986 99.2052 34.6525 99.0289C34.8064 98.8526 34.9375 98.6812 35.0456 98.5147C35.2064 98.1456 35.3998 97.8173 35.6259 97.53C35.888 97.1872 36.1272 96.8493 36.3435 96.5162C36.4516 96.3497 36.532 96.1651 36.5847 95.9625C36.6831 95.7502 36.837 95.5739 37.0465 95.4337C37.1615 95.0743 37.314 94.7787 37.504 94.5469C37.6842 94.2693 37.8874 93.9869 38.1134 93.6996C38.6874 92.5727 39.4785 91.5672 40.4868 90.6829C41.4951 89.7987 42.3695 88.8472 43.11 87.8285C43.4013 87.623 43.6419 87.4044 43.8319 87.1726C44.0219 86.9408 44.2119 86.7091 44.4019 86.4773C44.89 85.8472 45.474 85.5555 46.1539 85.6024C46.8338 85.6493 47.463 85.6831 48.0416 85.7036C48.587 86.0184 49.1095 86.338 49.6091 86.6624C50.1545 86.9771 50.641 87.3522 51.0685 87.7877C51.3793 87.6738 51.7455 87.596 52.1673 87.5542C52.5794 87.4666 53.0046 87.3284 53.4429 87.1395C53.5803 87.1103 53.7127 87.0582 53.8404 86.9832C53.9582 86.8625 54.063 86.7924 54.1545 86.7729C54.8899 86.8558 55.3063 87.1262 55.4036 87.5841L55.4517 88.148ZM46.5576 90.541C45.448 91.3989 44.4772 92.3469 43.6451 93.3851C42.8033 94.3775 42.0219 95.4288 41.3009 96.5391C41.1207 96.8167 40.9175 97.0991 40.6915 97.3864C40.5015 97.6182 40.3393 97.868 40.2048 98.1359C40.0703 98.4037 39.9456 98.7173 39.8306 99.0767C39.7613 99.4264 39.6872 99.7532 39.6083 100.057C39.5556 100.26 39.4981 100.439 39.4358 100.596C39.3637 100.707 39.2964 100.841 39.2341 100.998C39.1912 101.246 39.194 101.485 39.2427 101.714C39.3371 101.933 39.4135 102.18 39.4719 102.455C39.5206 102.684 39.5692 102.912 39.6179 103.141C39.6666 103.37 39.7381 103.594 39.8325 103.814C40.0769 104.288 40.2526 104.777 40.3597 105.281C40.4375 105.647 40.5577 106.1 40.7203 106.639C40.9189 107.124 41.175 107.428 41.4887 107.553C41.8023 107.678 42.0867 107.665 42.3419 107.515C42.6429 107.355 42.903 107.228 43.1222 107.134C44.4619 105.557 45.7002 103.954 46.8373 102.325C47.9646 100.649 48.8976 98.8482 49.6363 96.9207C49.2917 95.7498 49.0255 94.6101 48.8378 93.5016C48.6861 92.3375 48.3707 91.304 47.8916 90.401C47.689 90.3483 47.4552 90.3741 47.1903 90.4783C46.9614 90.5269 46.7505 90.5478 46.5576 90.541Z" fill="#005994"/>
<path d="M73.9631 90.8168C74.4472 90.6181 74.9542 90.4147 75.4842 90.2063C76.0599 89.9883 76.6731 89.834 77.3238 89.7435C77.6442 89.6754 77.9369 89.5893 78.2019 89.4851C78.4571 89.3352 78.7776 89.267 79.1633 89.2807C79.3104 89.2973 79.4526 89.291 79.59 89.2618C79.7731 89.2229 79.9153 89.2166 80.0166 89.2429C80.1179 89.2692 80.2241 89.3185 80.3351 89.3906C80.4461 89.4627 80.6029 89.525 80.8055 89.5777C81.573 90.0366 82.1164 90.5671 82.4358 91.1691C82.7912 91.7156 82.9995 92.2456 83.0608 92.7589C83.1095 92.9878 83.1172 93.2493 83.084 93.5435C83.0966 93.8279 83.0864 94.1172 83.0532 94.4114C83.0658 94.6958 83.0652 95.0309 83.0515 95.4166C83.0738 95.7468 83.0733 96.0819 83.0498 96.4218C83.003 97.1017 82.8728 97.7275 82.6594 98.2992C82.4917 98.8612 82.2783 99.433 82.0191 100.014C81.868 100.429 81.7169 100.844 81.5659 101.259C81.4509 101.619 81.2803 101.942 81.0543 102.229C80.8438 103.04 80.5957 103.786 80.3102 104.469C80.0704 105.142 79.8078 105.82 79.5222 106.503C79.1715 107.103 78.8942 107.713 78.6905 108.33C78.5326 108.938 78.2783 109.542 77.9275 110.143C77.8027 110.457 77.6731 110.748 77.5387 111.015C77.4042 111.283 77.2468 111.556 77.0666 111.834C76.8863 112.111 76.7289 112.384 76.5945 112.652C76.5155 112.956 76.3859 113.246 76.2056 113.524C75.9464 114.105 75.6595 114.669 75.3447 115.214C75.0397 115.805 74.7299 116.374 74.4151 116.919C74.0644 117.52 73.7267 118.07 73.4023 118.57C73.0778 119.069 72.7027 119.556 72.277 120.029C71.7304 120.385 71.2769 120.84 70.9164 121.395C70.5656 121.996 70.1822 122.556 69.7662 123.075C69.2323 123.715 68.7719 124.363 68.3851 125.02C67.9622 125.731 67.4838 126.407 66.9499 127.047C66.7599 127.279 66.5651 127.488 66.3654 127.674C66.1754 127.906 65.9903 128.16 65.81 128.438C65.1485 129.153 64.6131 129.673 64.204 130C63.7587 130.381 63.3364 130.758 62.937 131.13C62.7733 131.261 62.6374 131.409 62.5292 131.576C62.4308 131.788 62.3227 131.955 62.2048 132.075C61.9495 132.225 61.7123 132.347 61.4932 132.442C61.2837 132.582 61.0743 132.722 60.8648 132.863C60.7469 132.983 60.5555 133.096 60.2905 133.2C59.9895 133.36 59.7017 133.469 59.427 133.527C59.1162 133.641 58.8415 133.699 58.6029 133.702C58.3282 133.761 58.1076 133.736 57.941 133.628C57.5719 133.467 57.3776 133.341 57.3581 133.249C57.2929 133.167 57.2277 133.085 57.1624 133.004C56.9306 132.814 56.7217 132.619 56.5357 132.419C56.3497 132.219 56.1179 132.029 55.8404 131.849C55.6709 131.502 55.5473 131.146 55.4695 130.779C55.4013 130.459 55.4852 130.178 55.7209 129.936C55.4347 129.04 55.4378 128.154 55.7302 127.279C56.0324 126.449 56.2936 125.652 56.5139 124.887C57.1267 123.943 57.7396 123 58.3525 122.056C58.9195 121.122 59.5047 120.16 60.1078 119.171C60.3115 118.553 60.6214 117.985 61.0374 117.466C61.4076 116.956 61.7681 116.401 62.1189 115.8C62.3158 115.376 62.5633 114.964 62.8614 114.566C63.1235 114.223 63.3987 113.83 63.6871 113.385C63.9132 113.098 64.1392 112.811 64.3653 112.524C64.5913 112.236 64.8173 111.949 65.0434 111.662C65.2236 111.384 65.4545 111.12 65.7361 110.868C65.9718 110.627 66.175 110.344 66.3455 110.021C66.6866 109.374 66.9881 108.88 67.2502 108.537C67.4763 108.25 67.6745 107.944 67.8451 107.621C68.2874 107 68.5661 106.511 68.6811 106.151C68.8058 105.838 69.0139 105.578 69.3051 105.373C69.4757 105.049 69.6233 104.731 69.748 104.417C69.863 104.058 70.0287 103.711 70.245 103.378C70.3532 103.212 70.4842 103.04 70.6381 102.864C70.8281 102.632 70.9675 102.387 71.0562 102.129C71.0991 101.881 71.0913 101.619 71.0329 101.345C71.0203 101.06 71.0306 100.771 71.0638 100.477C71.3093 100.281 71.4924 100.242 71.6132 100.36C71.7242 100.432 71.8581 100.499 72.0149 100.562C72.3051 101.026 72.4351 101.525 72.4048 102.058C72.4202 102.581 72.2838 103.065 71.9954 103.509C71.6017 104.358 71.2572 105.101 70.9619 105.738C70.6764 106.421 70.2472 106.991 69.6744 107.447C69.5399 107.715 69.4332 108.001 69.3542 108.305C69.285 108.655 69.1276 108.927 68.8821 109.123C68.7048 109.639 68.5176 110.11 68.3208 110.534C68.1795 110.995 67.9875 111.443 67.7449 111.877C67.6562 112.135 67.5349 112.352 67.3809 112.529C67.227 112.705 67.1383 112.963 67.1148 113.303C66.9833 113.809 66.7358 114.221 66.3724 114.537C66.009 114.854 65.7893 115.283 65.7132 115.826C65.0282 116.881 64.4105 117.801 63.86 118.588C63.3095 119.375 62.7819 120.157 62.2771 120.935C61.7364 121.767 61.2594 122.563 60.8463 123.32C60.4331 124.078 60.074 124.752 59.769 125.344C59.5098 125.925 59.3636 126.363 59.3305 126.657C59.307 126.997 59.3786 127.221 59.5451 127.329C59.6659 127.447 59.8587 127.454 60.1237 127.35C60.3526 127.301 60.5898 127.179 60.8353 126.983C61.3721 126.582 61.7535 126.238 61.9795 125.95C62.1695 125.719 62.4185 125.426 62.7263 125.074C63.2894 124.571 63.8296 124.074 64.347 123.581C64.8643 123.088 65.3441 122.532 65.7865 121.911C66.2843 121.327 66.7267 120.707 67.1135 120.05C67.4545 119.403 67.8414 118.747 68.274 118.081C68.7106 116.983 69.2305 115.94 69.8336 114.95C70.4922 113.997 71.1558 113.066 71.8241 112.158C72.2773 110.914 72.7271 109.765 73.1734 108.713C73.6752 107.698 74.2326 106.718 74.8455 105.774C74.9536 105.607 75.034 105.423 75.0867 105.22C75.149 105.064 75.2017 104.861 75.2446 104.613C75.5204 103.884 75.8239 103.173 76.1553 102.481C76.4866 101.789 76.8262 101.022 77.1741 100.183C77.4859 99.3989 77.6833 98.6392 77.7663 97.9038C77.8853 97.1129 77.9619 96.2352 77.9962 95.2709C77.8102 95.0712 77.6797 94.9076 77.6047 94.7799C77.5298 94.6523 77.4319 94.5296 77.3111 94.4117C76.9586 94.1038 76.4341 94 75.7376 94.1002C75.0314 94.1546 74.464 94.2991 74.0354 94.5338C73.8259 94.674 73.6213 94.8371 73.4216 95.0231C73.2579 95.1536 73.0373 95.1287 72.7598 94.9485C72.148 95.222 71.5557 95.5872 70.9829 96.0439C70.4461 96.4451 69.8864 96.8512 69.3038 97.2621C69.0028 97.4218 68.7115 97.6273 68.43 97.8785C68.1387 98.084 67.8314 98.1015 67.508 97.9309C67.2957 97.8325 67.041 97.6474 66.744 97.3756C66.4928 97.094 66.297 96.8485 66.1568 96.6391C66.036 96.5212 65.9055 96.3575 65.7653 96.1481C65.6154 95.8928 65.557 95.6181 65.5902 95.324C65.6331 95.0756 65.7578 94.762 65.9644 94.3831C66.207 93.9487 66.4053 93.6434 66.5592 93.4671C66.7132 93.2909 66.8768 93.1604 67.0502 93.0757C67.2139 92.9452 67.4005 92.8098 67.6099 92.6696C67.8096 92.4836 67.9996 92.2518 68.1799 91.9742C68.3504 91.6509 68.5258 91.3504 68.706 91.0729C68.9944 90.6287 69.3252 90.2713 69.6983 90.0006C70.1075 89.6744 70.3876 89.3038 70.5387 88.8889C70.9644 88.4156 71.4311 87.9097 71.9387 87.3711C72.4921 86.8228 72.9802 86.1927 73.4031 85.4808C73.5112 85.3142 73.5965 85.1526 73.6589 84.9958C73.767 84.8292 73.8752 84.6627 73.9833 84.4961C74.2523 83.9605 74.5573 83.3693 74.8983 82.7226C75.2754 82.0203 75.427 81.2704 75.3532 80.4726C75.3503 80.2339 75.1365 80.0162 74.7119 79.8194C74.3233 79.567 74.0325 79.4374 73.8397 79.4305C73.601 79.4334 73.3999 79.5001 73.2362 79.6306C73.0628 79.7153 72.8894 79.8 72.716 79.8847C72.415 80.0444 72.114 80.2041 71.813 80.3638C71.512 80.5234 71.2109 80.6831 70.9099 80.8428C70.7823 80.9178 70.6825 81.0108 70.6104 81.1218C70.5383 81.2328 70.4661 81.3439 70.3941 81.4549C69.8836 81.7548 69.5645 81.9423 69.4369 82.0172C69.3093 82.0922 69.1359 82.1769 68.9167 82.2714C68.7725 82.4934 68.679 82.7286 68.6361 82.977C68.6292 83.1699 68.5766 83.3725 68.4781 83.5848C68.4255 83.7874 68.3174 83.9539 68.1537 84.0844C68.0261 84.1594 67.9311 84.2753 67.8687 84.4321C67.7663 85.0759 67.643 85.5088 67.4988 85.7309C67.3449 85.9072 67.1729 86.1112 66.9829 86.343C66.7998 86.3819 66.6084 86.4944 66.4086 86.6804C66.2547 86.8567 66.0764 86.9185 65.8738 86.8658C65.602 87.1629 65.1997 87.2962 64.6669 87.2659C64.1702 87.1801 63.819 86.9916 63.6136 86.7003C63.415 86.2161 63.0985 85.8528 62.6641 85.6101C62.2297 85.3675 61.9132 85.0041 61.7146 84.52C61.5452 84.1732 61.4445 83.8118 61.4124 83.4358C61.3706 83.014 61.3468 82.5645 61.3411 82.0872C61.5047 81.9567 61.6406 81.8082 61.7488 81.6416C61.8014 81.4391 61.8818 81.2545 61.99 81.0879C62.7168 80.455 63.4907 79.9316 64.312 79.5178C65.1692 79.0484 66.0542 78.5971 66.967 78.1639C67.4512 77.9653 67.9075 77.7486 68.3362 77.514C68.7551 77.2335 69.1837 76.9989 69.6221 76.81C70.152 76.6016 70.659 76.3982 71.1432 76.1995C71.6634 75.9454 72.2113 75.7093 72.787 75.4913C73.1825 75.5507 73.5765 75.4909 73.9691 75.3118C74.3519 75.0868 74.7459 75.027 75.1511 75.1323C75.2982 75.1489 75.4321 75.2161 75.5529 75.334C75.6736 75.4519 75.8124 75.542 75.9692 75.6044C76.1261 75.6668 76.2829 75.7291 76.4397 75.7915C76.6325 75.7984 76.8074 75.833 76.9642 75.8953C77.5748 76.2919 78.0321 76.5297 78.336 76.6086C78.6301 76.6418 78.9111 76.7256 79.179 76.8601C79.2832 77.1251 79.4234 77.3345 79.5996 77.4885C79.7662 77.5966 79.9196 77.7554 80.0598 77.9649C80.3031 79.1094 80.0842 79.9933 79.4032 80.6166C78.9472 81.6227 78.4863 82.6059 78.0205 83.5662C77.5907 84.471 77.0646 85.3724 76.442 86.2704C76.399 86.5188 76.3006 86.7311 76.1467 86.9073C76.0385 87.0739 75.963 87.2813 75.9201 87.5297C75.6746 87.7255 75.4715 88.0079 75.3107 88.377C75.1401 88.7004 74.9696 89.0237 74.7991 89.3471C74.6646 89.6149 74.5024 89.8647 74.3124 90.0965C74.1682 90.3186 74.0517 90.5587 73.9631 90.8168Z" fill="#005994"/>
<path d="M105.256 94.86C104.854 94.3232 104.619 93.4402 104.549 92.2109C104.534 91.6878 104.52 91.2841 104.507 90.9997C104.53 90.6597 104.51 90.1138 104.446 89.3618C104.391 88.6556 104.355 87.9216 104.337 87.1599C104.364 86.3885 104.346 85.6268 104.282 84.8748C103.819 86.0737 103.416 87.3317 103.074 88.6485C102.722 89.9196 102.217 91.0318 101.558 91.9853C101.508 92.4265 101.411 92.7582 101.267 92.9802C101.113 93.1565 100.937 93.3377 100.737 93.5237C100.573 93.6542 100.391 93.8124 100.192 93.9984C100.038 94.1747 99.9359 94.4834 99.8862 94.9247C99.7059 95.2022 99.5305 95.5027 99.36 95.826C99.2255 96.0939 99.1514 96.4207 99.1377 96.8064C98.9283 96.9466 98.7383 97.1784 98.5678 97.5017C98.2433 98.0014 98.0173 98.2887 97.8896 98.3637C97.762 98.4386 97.6622 98.5316 97.5901 98.6427C97.2101 99.1062 96.8564 99.4685 96.5291 99.7295C96.2476 99.9807 95.8827 100.178 95.4346 100.321C94.9505 100.52 94.3013 100.729 93.4869 100.95C92.7183 101.162 92.11 101.339 91.6619 101.482C91.2928 101.321 91.0347 101.232 90.8876 101.216C90.7405 101.199 90.4692 101.161 90.0738 101.102C89.43 100.999 89.0803 100.93 89.0248 100.894C88.979 100.904 88.8548 100.882 88.6522 100.83C88.2276 100.633 87.932 100.48 87.7654 100.372C87.5891 100.218 87.39 100.069 87.1679 99.9249C86.1366 98.8999 85.3805 97.4816 84.8997 95.6697C84.7177 95.0385 84.6959 94.3732 84.8344 93.6739C84.9728 92.9745 85.103 92.3487 85.2249 91.7965C85.3467 91.2442 85.5324 90.6545 85.7819 90.0272C86.0314 89.4 86.2219 88.8331 86.3535 88.3266C86.4325 88.0227 86.4574 87.8021 86.4282 87.6648C86.3892 87.4817 86.3323 87.3263 86.2573 87.1987C86.1823 87.071 86.1302 86.9386 86.1011 86.8012C86.0719 86.6639 86.0967 86.4433 86.1757 86.1394C86.1991 85.7994 86.2684 85.4498 86.3834 85.0904C86.4984 84.7309 86.6266 84.3209 86.7679 83.8602C87.0603 82.9846 87.359 82.2512 87.664 81.66C87.9592 81.023 88.1566 80.2633 88.2562 79.3808C88.3488 78.6912 88.5443 78.1472 88.8424 77.7489C89.1766 77.2951 89.5892 76.8724 90.0802 76.4809C90.3286 76.5239 90.6442 76.4328 91.027 76.2079C91.4459 75.9275 91.7504 75.6714 91.9403 75.4396C92.2608 75.3714 92.4932 75.2264 92.6374 75.0043C93.1215 74.8057 93.3733 74.7522 93.3928 74.8437C93.458 74.9256 93.5364 74.9568 93.628 74.9373C93.7293 74.9636 93.8437 74.9393 93.9714 74.8643C94.1448 74.7796 94.2821 74.7504 94.3834 74.7767C94.6181 75.2054 94.7958 75.4786 94.9165 75.5965C95.0373 75.7144 95.1074 75.8191 95.1269 75.9107C95.1561 76.048 95.1721 76.236 95.175 76.4747C95.2236 76.7036 95.2348 76.8687 95.2085 76.97C95.0116 77.3946 94.9 77.6576 94.8737 77.7589C94.8835 77.8047 94.8752 77.8782 94.8488 77.9795C94.652 78.4042 94.4157 78.9807 94.1399 79.7093C93.8543 80.392 93.6 80.9964 93.3768 81.5223C93.2258 81.9372 93.0504 82.2377 92.8507 82.4237C92.6509 82.6097 92.4984 82.9053 92.3932 83.3105C92.3405 83.5131 92.3108 83.7108 92.3039 83.9037C92.2873 84.0508 92.2527 84.2256 92.2001 84.4282C91.9203 85.5882 91.5635 86.8364 91.1298 88.1727C90.6864 89.4633 90.3018 90.6934 89.9763 91.8632C90.0083 92.2392 89.9946 92.6249 89.9351 93.0203C89.9117 93.3603 89.934 93.6905 90.0021 94.011C90.0119 94.0568 90.0182 94.199 90.0211 94.4376C90.06 94.6207 90.1086 94.8497 90.167 95.1243C90.2157 95.3533 90.2643 95.5822 90.313 95.8111C90.3617 96.04 90.4137 96.1725 90.4693 96.2085C90.8218 96.5164 91.021 96.6655 91.0667 96.6557C91.1028 96.6002 91.1486 96.5905 91.2041 96.6265C91.4845 97.0454 91.6574 97.2958 91.7226 97.3776C91.8239 97.404 91.9988 97.4386 92.2471 97.4815C92.44 97.4883 92.6869 97.4119 92.988 97.2522C93.325 97.0371 93.5754 96.8642 93.739 96.7337C94.23 96.3422 94.5837 95.98 94.8 95.6469C95.0066 95.268 95.2132 94.8892 95.4197 94.5103C95.5903 94.1869 95.8232 93.7068 96.1184 93.0698C96.4137 92.4328 96.7089 91.7959 97.0042 91.1589C97.2898 90.4761 97.585 89.8392 97.89 89.248C98.1853 88.611 98.4182 88.1308 98.5887 87.8075C98.7369 87.1539 98.9406 86.5364 99.1998 85.955C99.5048 85.3638 99.7363 84.7643 99.8942 84.1565C100.105 83.3461 100.294 82.66 100.461 82.098C100.629 81.536 100.823 80.8727 101.043 80.1081C101.24 79.6834 101.442 79.2817 101.649 78.9028C101.891 78.4684 102.018 77.9391 102.029 77.3147C102.052 76.9748 102.149 76.6431 102.32 76.3198C102.526 75.9409 102.674 75.6224 102.763 75.3643C103.025 75.0215 103.177 74.7259 103.22 74.4775C103.309 74.2194 103.435 74.0251 103.599 73.8946C104.073 73.6502 104.443 73.4759 104.708 73.3718C104.963 73.2218 105.306 73.1488 105.738 73.1528C106.055 72.8461 106.42 72.6489 106.832 72.5613C107.244 72.4737 107.638 72.4139 108.014 72.3818C108.063 72.6107 108.143 72.7612 108.254 72.8333C108.401 72.8499 108.494 72.9498 108.533 73.1329C108.804 73.506 108.911 74.0096 108.854 74.6437C108.797 75.2778 108.809 75.8973 108.89 76.5022C108.896 76.9795 108.805 77.4534 108.618 77.9238C108.467 78.3387 108.376 78.8126 108.346 79.3454C108.309 80.0711 108.282 80.5074 108.265 80.6545C108.249 80.8016 108.234 81.068 108.22 81.4537C108.212 82.3167 108.194 83.134 108.167 83.9054C108.13 84.6311 108.163 85.4614 108.266 86.3966C108.314 86.6255 108.322 86.887 108.289 87.1812C108.292 87.4198 108.313 87.6307 108.352 87.8138C108.4 88.0427 108.459 88.3174 108.527 88.6379C108.641 88.9487 108.822 89.1255 109.07 89.1684C109.364 89.2016 109.566 89.1349 109.674 88.9683C109.828 88.7921 110.045 88.5783 110.327 88.3271C110.517 88.0953 110.702 87.8406 110.882 87.563C111.063 87.2855 111.248 87.0308 111.438 86.799C111.618 86.5214 111.831 86.2848 112.076 86.089C112.322 85.8933 112.535 85.6566 112.715 85.3791C113.311 84.5824 113.857 83.7726 114.352 82.9496C114.893 82.1169 115.503 81.3889 116.184 80.7657C116.752 79.8317 117.333 78.9663 117.929 78.1697C118.562 77.3175 119.31 76.5603 120.174 75.8982C120.667 76.4155 120.866 76.8996 120.77 77.3506C120.665 77.7558 120.514 78.1707 120.317 78.5953C120.245 78.7064 120.109 78.8549 119.909 79.0409C119.709 79.2269 119.551 79.3803 119.433 79.501C119.361 79.6121 119.27 79.7508 119.162 79.9174C119.054 80.0839 118.954 80.1769 118.863 80.1964C118.902 80.3795 118.867 80.5544 118.759 80.7209C118.687 80.8319 118.615 80.943 118.543 81.054C118.142 82.0961 117.653 83.0613 117.077 83.9496C116.49 84.792 115.931 85.6525 115.4 86.5309C115.099 86.6906 114.927 86.8947 114.884 87.143C114.877 87.3359 114.779 87.5482 114.589 87.78C114.455 88.0478 114.315 88.2928 114.171 88.5148C114.017 88.6911 113.873 88.9132 113.738 89.181C113.532 89.5599 113.348 89.9339 113.187 90.303C113.063 90.6166 112.846 90.9497 112.538 91.3023C112.358 91.5798 112.229 91.8706 112.15 92.1745C112.107 92.4228 111.995 92.6858 111.815 92.9634C111.526 93.4075 111.291 93.649 111.108 93.6879C110.96 93.6713 110.89 93.9017 110.896 94.379C110.588 94.7315 110.425 94.9813 110.409 95.1284C110.383 95.2297 110.319 95.2672 110.217 95.2409C110.136 95.3061 109.985 95.386 109.766 95.4804C109.537 95.5291 109.432 95.5992 109.452 95.6907C109.16 95.8962 108.938 96.0871 108.784 96.2633C108.676 96.4299 108.489 96.5652 108.224 96.6694C107.649 96.8875 107.204 96.9341 106.89 96.8094C106.632 96.7207 106.332 96.5453 105.989 96.2832L105.256 94.86Z" fill="#005994"/>
<path d="M123.71 75.649C124.001 75.4436 124.306 75.1874 124.623 74.8807C124.931 74.5281 125.198 74.2082 125.424 73.9209C125.886 73.3921 126.302 72.873 126.672 72.3636C127.043 71.8543 127.459 71.3352 127.92 70.8064C128.192 70.5094 128.423 70.2449 128.613 70.0132C128.839 69.7259 129.047 69.4663 129.237 69.2345C129.437 69.0485 129.614 68.8674 129.768 68.6911C129.967 68.5051 130.167 68.3191 130.367 68.1331C130.949 67.7222 131.45 67.3765 131.869 67.096C131.997 67.0211 132.119 66.9232 132.237 66.8024C132.391 66.6262 132.56 66.5186 132.743 66.4796C133.099 66.356 133.439 66.3794 133.763 66.55C134.076 66.6747 134.357 66.7585 134.606 66.8014C135.066 66.9428 135.499 67.0661 135.904 67.1714C136.355 67.2669 136.775 67.4409 137.164 67.6932C137.48 68.0566 137.815 68.3922 138.167 68.7001C138.566 68.9982 138.915 69.4025 139.215 69.913C139.29 70.0406 139.351 70.2189 139.4 70.4478C139.449 70.6767 139.497 70.9056 139.546 71.1345C139.66 71.4453 139.797 71.7512 139.956 72.0522C140.162 72.3435 140.322 72.6445 140.436 72.9552C140.595 73.2562 140.691 73.5947 140.723 73.9707C140.791 74.2912 140.745 74.636 140.584 75.0051C139.422 76.0657 138.167 77.0263 136.818 77.8871C136.511 78.2396 136.175 78.5742 135.812 78.8907C135.484 79.1516 135.162 79.4355 134.844 79.7423C134.585 80.3237 134.215 80.8331 133.733 81.2703C133.298 81.6979 132.941 82.1566 132.662 82.6465C132.972 83.2027 133.308 83.6577 133.67 84.0113C134.032 84.365 134.435 84.686 134.88 84.9744C135.066 85.1741 135.27 85.3461 135.492 85.4903C135.75 85.579 136.003 85.6448 136.251 85.6877C136.5 85.7306 136.885 85.7443 137.409 85.7288C137.922 85.6676 138.288 85.5897 138.507 85.4953C138.763 85.3453 139.064 85.1856 139.41 85.0162C139.747 84.801 140.062 84.5907 140.353 84.3852C140.984 84.2032 141.398 83.8999 141.595 83.4752C141.828 82.9951 142.098 82.5787 142.406 82.2262C142.596 81.9944 142.796 81.8084 143.005 81.6682C143.205 81.4822 143.39 81.2275 143.561 80.9041C143.62 80.5087 143.763 80.1673 143.989 79.88C144.458 79.1583 144.919 78.6295 145.374 78.2935C145.598 77.7676 145.951 77.4053 146.435 77.2067C146.92 77.0081 147.316 76.7325 147.623 76.38L148.439 75.4889C148.711 75.1918 148.96 74.8997 149.186 74.6124C149.412 74.3251 149.661 74.0329 149.932 73.7359C150.168 73.4944 150.391 73.3035 150.6 73.1633C150.846 72.9675 151.013 72.7406 151.102 72.4825C151.265 72.352 151.411 72.2493 151.538 72.1743C151.666 72.0993 151.794 72.0244 151.921 71.9494C152.218 72.2212 152.404 72.4209 152.479 72.5485C152.59 72.6206 152.66 72.7254 152.69 72.8627C152.693 73.1013 152.635 73.2811 152.517 73.4018C152.39 73.4768 152.327 73.6336 152.33 73.8722C151.895 74.2998 151.441 74.755 150.969 75.2381C150.534 75.6656 150.131 76.134 149.761 76.6434C149.764 76.882 149.734 77.0798 149.672 77.2366C149.645 77.3379 149.606 77.4898 149.553 77.6924C149.01 78.2865 148.521 78.9166 148.089 79.5828C147.656 80.2489 147.173 80.9019 146.639 81.5418C146.439 81.7278 146.244 81.9367 146.054 82.1685C145.91 82.3905 145.715 82.5994 145.47 82.7951C144.919 83.5821 144.369 84.369 143.818 85.1559C143.258 85.8971 142.642 86.6022 141.971 87.2712C141.771 87.4572 141.577 87.6661 141.387 87.8979C141.187 88.0839 140.937 88.2567 140.636 88.4164C140.41 88.7037 140.141 88.9043 139.83 89.0182C139.565 89.1224 139.31 89.2723 139.065 89.4681C138.564 89.8138 138.132 90.1449 137.768 90.4614C137.461 90.8139 137.042 91.0943 136.512 91.3027C136.257 91.4526 135.982 91.511 135.688 91.4778C135.439 91.4349 135.137 91.4753 134.78 91.5989C134.421 91.4839 134.076 91.4376 133.746 91.4599C133.671 91.3323 133.429 91.0965 133.021 90.7526C132.649 90.3532 132.408 90.1174 132.297 90.0453C131.987 89.4891 131.716 89.1159 131.485 88.926C131.243 88.6902 131.002 88.4544 130.76 88.2186C130.453 87.901 130.21 87.546 130.031 87.1534C129.888 86.7053 129.663 86.3224 129.356 86.0048C129.354 85.7662 129.274 85.6157 129.117 85.5533C128.996 85.4354 128.939 85.2801 128.946 85.0872C128.309 84.7919 127.907 84.5902 127.741 84.4821C127.61 84.3184 127.48 84.1547 127.349 83.9911C127.242 83.4875 127.179 83.1899 127.16 83.0983C127.14 83.0067 127.166 82.9054 127.239 82.7944C127.455 82.4613 127.704 82.1692 127.985 81.9179C128.303 81.6112 128.547 81.2961 128.718 80.9727C128.937 80.8783 129.1 80.7478 129.209 80.5813C129.362 80.405 129.516 80.2287 129.67 80.0525C130.142 79.5694 130.595 79.1141 131.031 78.6866C131.457 78.2133 131.951 77.7254 132.514 77.2229C132.923 76.8967 133.115 76.4491 133.09 75.8803C133.111 75.3017 133.113 74.7509 133.098 74.2278C132.726 73.8284 132.471 73.6433 132.334 73.6724C132.242 73.6919 132.141 73.6656 132.03 73.5935C131.873 73.5311 131.734 73.441 131.613 73.3231C131.483 73.1594 131.326 73.0971 131.143 73.136C131.015 73.211 130.852 73.3415 130.652 73.5275C130.452 73.7135 130.294 73.8669 130.176 73.9876C129.495 74.6109 128.804 75.1883 128.103 75.72C127.393 76.2059 126.721 76.7557 126.085 77.3692C125.758 77.6302 125.408 77.896 125.035 78.1667C124.707 78.4277 124.444 78.6512 124.244 78.8372C124.162 78.9025 124.067 79.0183 123.959 79.1849C123.887 79.2959 123.815 79.4069 123.743 79.518C123.542 80.3741 123.366 81.0097 123.215 81.4246C123.1 81.784 122.995 82.1892 122.899 82.6401C122.883 82.7872 122.843 82.9392 122.781 83.096C122.754 83.1973 122.705 83.3034 122.633 83.4144C122.482 83.8294 122.377 84.2346 122.317 84.63C122.258 85.0255 122.125 85.4126 121.918 85.7915C121.943 86.3603 121.887 86.9944 121.748 87.6938C121.646 88.3376 121.566 88.9766 121.51 89.6107C121.489 90.1893 121.413 90.7318 121.282 91.2383C121.196 91.735 120.893 92.1105 120.372 92.3646C120.221 92.7795 120.142 93.0834 120.136 93.2762C120.175 93.4594 120.118 93.7584 119.967 94.1733C119.804 94.3038 119.63 94.3885 119.447 94.4274C119.32 94.5024 119.156 94.6329 118.956 94.8189C118.91 94.8286 118.811 94.9216 118.657 95.0979C118.503 95.2742 118.349 95.4505 118.195 95.6267C117.995 95.8127 117.818 95.9939 117.664 96.1701C117.51 96.3464 117.411 96.4394 117.365 96.4492C117.018 96.6186 116.784 96.6443 116.663 96.5265C116.507 96.4641 116.346 96.4981 116.183 96.6286C115.791 96.1376 115.489 95.8429 115.277 95.7445C115.291 95.3588 115.314 95.0188 115.347 94.7247C115.325 94.3945 115.381 94.0954 115.516 93.8276C115.614 93.6153 115.73 93.3752 115.865 93.1074C115.99 92.7937 116.096 92.5079 116.185 92.2498C116.238 92.0472 116.249 91.8772 116.22 91.7399C116.136 91.5665 116.119 91.3785 116.172 91.1759C116.215 90.9275 116.304 90.6694 116.438 90.4016C116.517 90.0977 116.601 89.8167 116.69 89.5586C116.775 89.0618 116.889 88.5831 117.03 88.1224C117.126 87.6714 117.212 87.1747 117.288 86.6321C117.318 86.0993 117.33 85.5943 117.325 85.117C117.309 84.5939 117.362 84.0563 117.484 83.504C117.606 82.9517 117.723 82.3766 117.835 81.7785C117.938 81.1347 117.981 80.5513 117.966 80.0282C117.963 79.7895 117.993 79.5918 118.055 79.435C118.117 79.2782 118.17 79.0756 118.213 78.8272C118.256 78.5789 118.294 78.3076 118.327 78.0134C118.396 77.6638 118.47 77.337 118.549 77.0331C118.72 76.7097 118.79 76.4794 118.761 76.342C118.778 76.195 118.822 76.0659 118.894 75.9549C118.957 75.7981 118.978 75.6739 118.959 75.5823C118.975 75.4352 119.02 75.3062 119.092 75.1952C119.135 74.9468 119.2 74.6935 119.289 74.4354C119.378 74.1773 119.444 73.9241 119.486 73.6757C119.585 73.4634 119.636 73.1415 119.64 72.71C119.712 72.5989 119.756 72.4699 119.773 72.3228C119.835 72.166 119.857 72.0418 119.837 71.9503C119.868 71.4175 119.857 70.9173 119.806 70.4497C119.8 69.9724 119.881 69.4528 120.048 68.8908C120.095 68.2109 120.112 67.7288 120.1 67.4443C120.123 67.1044 120.247 66.6715 120.47 66.1455C120.529 65.7501 120.612 65.3497 120.717 64.9446C120.813 64.4936 120.89 64.0704 120.95 63.6749C121.009 63.2795 121.073 62.9069 121.143 62.5572C121.202 62.1618 121.234 61.7483 121.238 61.3168C121.422 60.6077 121.567 60.0506 121.672 59.6454C121.768 59.1944 121.886 58.7386 122.027 58.2779C122.238 57.4675 122.373 56.8646 122.432 56.4692C122.528 56.0182 122.656 55.6082 122.817 55.239C122.877 54.8436 122.9 54.5036 122.887 54.2192C122.911 53.8793 122.962 53.5573 123.041 53.2535C123.336 52.6165 123.496 52.128 123.519 51.7881C123.542 51.4481 123.594 51.1262 123.673 50.8223C123.907 49.672 124.204 48.4842 124.566 47.2589C124.928 46.0337 125.433 44.9214 126.082 43.9221C126.262 43.6446 126.442 43.367 126.623 43.0894C126.849 42.8021 127.019 42.4788 127.134 42.1194C127.423 41.6753 127.726 41.2998 128.043 40.9931C128.351 40.6405 128.631 40.27 128.884 39.8814C129.508 39.8922 129.876 39.9337 129.987 40.0058C130.134 40.0224 130.253 40.0209 130.345 40.0015C130.642 40.2733 130.899 40.697 131.117 41.2728C131.371 41.7929 131.529 42.3097 131.59 42.8231C131.658 43.1435 131.658 43.4786 131.589 43.8283C131.519 44.1779 131.519 44.513 131.587 44.8335C131.58 45.0264 131.591 45.1915 131.621 45.3288C131.696 45.4564 131.674 45.5806 131.556 45.7014C131.572 46.2244 131.536 46.7344 131.451 47.2311C131.355 47.6821 131.26 48.133 131.164 48.584C130.828 50.3781 130.392 51.9302 129.857 53.2402C129.368 54.5405 128.931 55.9732 128.545 57.5384C128.332 58.1102 128.141 58.677 127.974 59.239C127.842 59.7455 127.73 60.3436 127.637 61.0332C127.479 61.6409 127.299 62.2536 127.095 62.8711C126.891 63.4886 126.609 64.0749 126.249 64.6301C126.081 65.1921 125.936 65.7492 125.814 66.3015C125.729 66.7982 125.551 67.3144 125.282 67.8501C125.259 68.19 125.208 68.5119 125.129 68.8158C125.04 69.0739 124.91 69.3647 124.74 69.688C124.635 70.0932 124.52 70.4526 124.395 70.7662C124.316 71.0701 124.274 71.4378 124.27 71.8693C124.168 72.5132 124.048 73.1847 123.909 73.8841C123.807 74.5279 123.74 75.1162 123.71 75.649Z" fill="#005994"/>
<path d="M158.911 49.792C159.032 49.9099 159.107 50.0375 159.136 50.1749C159.165 50.3122 159.258 50.4121 159.415 50.4745C159.411 50.906 159.412 51.3604 159.418 51.8377C159.46 52.2594 159.524 52.6763 159.612 53.0884C159.651 53.2715 159.731 53.422 159.851 53.5399C160.018 53.648 160.116 53.7708 160.145 53.9081C160.033 54.5062 159.918 54.8656 159.8 54.9864C159.728 55.0974 159.706 55.2216 159.736 55.3589C159.526 55.4991 159.372 55.6754 159.274 55.8877C159.221 56.0903 159.057 56.2208 158.783 56.2792C158.72 56.436 158.63 56.5748 158.512 56.6956C158.431 56.7608 158.386 56.8899 158.379 57.0827C157.715 57.5589 156.886 57.7112 155.892 57.5395C155.576 57.1762 155.192 56.9467 154.741 56.8511C153.961 56.1078 153.719 55.0825 154.016 53.7754C154.059 53.527 154.102 53.2787 154.144 53.0303C154.223 52.7264 154.299 52.5189 154.371 52.4079C154.797 51.9346 155.114 51.6279 155.324 51.4876C155.488 51.3571 155.646 51.2038 155.8 51.0275C156 50.8415 156.227 50.6735 156.483 50.5235C156.565 50.4583 156.674 50.4111 156.811 50.3819C156.995 50.343 157.168 50.2583 157.332 50.1278C157.505 50.0431 157.656 49.9632 157.783 49.8882C157.911 49.8133 158.043 49.7612 158.181 49.732L158.911 49.792ZM154.719 82.4083C155.092 82.1376 155.581 81.9619 156.186 81.8812C156.791 81.8005 157.252 81.6067 157.569 81.3C157.723 81.1237 157.854 80.9523 157.963 80.7857C158.071 80.6192 158.221 80.5394 158.414 80.5462C159.088 80.1158 159.648 79.7097 160.093 79.328C160.538 78.9463 161.044 78.6235 161.61 78.3596C161.738 78.2846 161.878 78.159 162.032 77.9827C162.232 77.7967 162.368 77.6482 162.44 77.5372C163.124 77.1526 163.602 76.8118 163.873 76.5147C164.145 76.2177 164.394 75.9255 164.62 75.6382C164.892 75.3412 165.141 75.049 165.367 74.7617C165.629 74.4189 165.95 74.0157 166.33 73.5521C166.893 73.0496 167.352 72.6173 167.705 72.255C168.105 71.883 168.512 71.4374 168.928 70.9183C168.971 70.67 169.052 70.4854 169.17 70.3646C169.324 70.1884 169.427 69.9989 169.48 69.7963C170.304 69.6212 170.83 69.8443 171.057 70.4658C170.936 71.0181 170.703 71.4983 170.359 71.9063C170.061 72.3046 169.795 72.7439 169.562 73.2241C169.245 73.5308 168.991 73.8001 168.801 74.0319C168.611 74.2637 168.44 74.587 168.289 75.0019C168.243 75.0117 168.13 75.1553 167.95 75.4329C167.76 75.6647 167.642 75.7854 167.596 75.7952C167.39 76.174 167.228 76.4238 167.11 76.5446C167.038 76.6556 166.961 76.7438 166.879 76.809C166.833 76.8187 166.751 76.884 166.633 77.0047C166.561 77.1158 166.394 77.3427 166.132 77.6855C165.919 78.2572 165.594 78.7569 165.159 79.1844C164.392 80.3044 163.509 81.3294 162.511 82.2594C161.548 83.1339 160.677 83.989 159.898 84.8246C159.734 84.955 159.603 85.1265 159.505 85.3388C159.396 85.5053 159.265 85.6767 159.111 85.853C158.921 86.0848 158.594 86.3458 158.129 86.6359C157.711 86.9164 157.333 87.1642 156.995 87.3794C156.76 87.6209 156.537 87.8118 156.328 87.952C155.33 88.2119 154.518 88.2171 153.891 87.9676C153.227 87.7736 152.716 87.6191 152.357 87.5041C151.997 87.3891 151.659 87.1499 151.343 86.7865C150.79 86.6647 150.382 86.3207 150.118 85.7548C149.891 85.1333 149.645 84.5395 149.381 83.9736C149.287 83.7544 149.187 83.5123 149.083 83.2473C148.969 82.9366 148.901 82.6161 148.879 82.2859C148.863 81.7628 148.82 81.2217 148.749 80.6626C148.668 80.0577 148.676 79.5298 148.771 79.0788C148.893 78.5266 148.901 77.9986 148.793 77.495C148.732 76.9817 148.763 76.4489 148.884 75.8966C149.062 75.3804 149.123 75.1043 149.067 75.0682C149.057 75.0224 149.066 74.9489 149.092 74.8476C149.154 74.6908 149.217 74.534 149.279 74.3772C149.387 74.2106 149.468 74.0261 149.52 73.8235L149.713 72.7058C149.828 72.3464 149.966 71.9821 150.127 71.613C150.288 71.2438 150.388 70.8158 150.428 70.3287C150.462 70.0346 150.523 69.7584 150.611 69.5003C150.746 69.2325 150.875 68.9418 151 68.6282C151.079 68.3243 151.135 68.0252 151.168 67.7311C151.192 67.3911 151.238 67.0463 151.307 66.6967C151.367 66.3012 151.449 65.9009 151.554 65.4957C151.705 65.0808 151.857 64.6659 152.008 64.251C152.113 63.8458 152.215 63.537 152.313 63.3247C152.412 63.1124 152.662 62.9395 153.064 62.8062C153.238 62.7215 153.449 62.7006 153.697 62.7435C153.936 62.7406 154.16 62.669 154.369 62.5288C154.906 62.1276 155.289 61.9027 155.518 61.854C155.746 61.8054 155.892 61.7026 155.955 61.5458C156.468 61.4846 156.868 61.567 157.155 61.793C157.443 62.019 157.776 62.2353 158.155 62.4419C158.162 63.828 158.061 64.9262 157.85 65.7366C157.676 66.4914 157.465 67.3018 157.218 68.1677C157.067 68.5826 156.926 69.0433 156.794 69.5498C156.663 70.0563 156.544 70.5121 156.439 70.9173C156.317 71.4696 156.163 71.9809 155.976 72.4513C155.825 72.8663 155.711 73.345 155.635 73.8875C155.592 74.1359 155.526 74.3891 155.438 74.6472C155.385 74.8498 155.337 75.0753 155.294 75.3237C155.271 75.6636 155.197 75.9904 155.072 76.304C154.983 76.5621 154.895 76.8202 154.806 77.0783C154.727 77.3822 154.648 77.6861 154.569 77.99C154.49 78.2939 154.439 78.6158 154.415 78.9558C154.303 79.5538 154.239 79.9264 154.222 80.0734C154.196 80.1747 154.17 80.276 154.143 80.3773C154.159 80.9004 154.109 81.3416 153.994 81.701C153.879 82.0604 153.996 82.2748 154.346 82.344L154.719 82.4083Z" fill="#005994"/>
<path d="M215.826 26.1383C216.308 27.28 216.812 28.2975 217.337 29.1908C217.861 30.0841 218.291 31.0933 218.626 32.2184C218.685 32.4931 218.72 32.7727 218.733 33.0571C218.791 33.3318 218.872 33.6016 218.976 33.8666L219.152 34.6907C219.229 35.0569 219.257 35.4101 219.233 35.75C219.256 36.0802 219.306 36.4284 219.383 36.7947C219.513 37.6285 219.546 38.4589 219.482 39.2859C219.544 39.7992 219.551 40.0607 219.506 40.0705C219.45 40.0344 219.432 40.0622 219.451 40.1537C219.467 40.6768 219.5 41.1721 219.552 41.6397C219.604 42.1072 219.637 42.6025 219.653 43.1256C220.496 43.042 221.459 42.957 222.541 42.8705C223.659 42.7285 224.689 42.5096 225.631 42.2136C225.851 42.1192 226.042 42.0067 226.206 41.8762C226.415 41.736 226.625 41.5958 226.834 41.4556C227.593 41.1986 228.172 40.8841 228.571 40.5121C228.971 40.1401 229.472 39.7944 230.074 39.475C229.998 40.0175 229.832 40.3638 229.577 40.5137C229.537 41.0007 229.467 41.3504 229.369 41.5627C229.307 41.7195 229.217 41.8583 229.099 41.9791C228.909 42.2109 228.737 42.4149 228.583 42.5912C228.419 42.7217 228.242 42.9028 228.052 43.1346C227.407 43.7023 226.861 44.0578 226.413 44.2009C226.001 44.2884 225.626 44.4398 225.289 44.655C224.959 44.6774 224.56 44.7143 224.092 44.7658C223.671 44.8076 223.304 44.8855 222.994 44.9994C222.736 44.9107 222.469 44.8955 222.194 44.9539C221.92 45.0123 221.655 45.1165 221.4 45.2664C220.889 45.5663 220.552 45.7815 220.388 45.912C220.215 45.9967 220.046 46.1043 219.883 46.2348C219.85 46.529 219.825 46.7496 219.808 46.8967C219.837 47.034 219.839 47.1534 219.812 47.2547C219.874 47.768 219.935 48.2813 219.996 48.7947C220.094 49.2525 220.127 49.7478 220.097 50.2806C220.001 50.7316 219.968 51.0257 219.997 51.1631C220.017 51.2546 220 51.4017 219.947 51.6043C219.859 51.8624 219.803 52.1614 219.779 52.5014C219.756 52.8413 219.732 53.1813 219.709 53.5212C219.529 53.7988 219.45 54.1027 219.472 54.4329C219.494 54.7631 219.522 55.1162 219.554 55.4922C219.586 55.8682 219.549 56.2588 219.444 56.6639C219.329 57.0233 219.214 57.3827 219.099 57.7421C219.056 57.9905 219.013 58.2389 218.97 58.4873C218.917 58.6899 218.847 58.9202 218.758 59.1783C218.355 59.9818 217.984 60.8263 217.646 61.7116C217.524 62.2639 217.369 62.7752 217.182 63.2456C217.031 63.6606 216.89 64.1213 216.758 64.6277C216.528 65.3465 216.192 66.0161 215.75 66.6365C215.298 67.2111 214.85 67.8086 214.408 68.429C214.182 68.7163 213.961 69.0265 213.745 69.3596C213.528 69.6927 213.33 69.998 213.15 70.2756C212.969 70.5531 212.771 70.8585 212.555 71.1915C212.375 71.4691 212.194 71.7467 212.014 72.0242C211.742 72.3213 211.452 72.6461 211.145 72.9986C210.873 73.2956 210.578 73.5975 210.26 73.9043C209.615 74.472 208.966 75.0169 208.311 75.5389C207.702 76.0511 207.057 76.6188 206.376 77.2421C206.059 77.5489 205.759 77.8279 205.477 78.0791C205.206 78.3761 204.901 78.6323 204.564 78.8475C204.309 78.9974 204.021 79.1064 203.701 79.1746C203.436 79.2787 203.171 79.3829 202.906 79.4871C202.559 79.6565 202.23 79.7982 201.919 79.9121C201.618 80.0717 201.262 80.1954 200.85 80.283C200.336 80.3442 199.74 80.3514 199.06 80.3045C198.436 80.2937 197.939 80.2079 197.57 80.0471C196.858 79.6242 196.409 79.3129 196.223 79.1132C196.083 78.9037 195.874 78.7089 195.596 78.5286C195.511 78.3552 195.413 78.2325 195.302 78.1604C195.247 78.1243 195.2 78.0147 195.161 77.8316C194.743 77.4419 194.394 77.0376 194.113 76.6187C193.517 75.8364 193.058 75.1442 192.739 74.5422C192.456 73.8847 192.282 73.1799 192.218 72.4279C191.971 71.7149 191.75 70.9005 191.555 69.9849C191.351 69.0234 191.156 68.1078 190.971 67.2379C190.903 66.9174 190.817 66.6247 190.713 66.3597C190.645 66.0393 190.632 65.7548 190.675 65.5065C190.551 65.1499 190.432 64.8163 190.319 64.5056C190.241 64.1393 190.218 63.8091 190.252 63.5149C190.2 63.0474 190.15 62.6991 190.101 62.4702C190.098 62.2316 190.118 61.9881 190.161 61.7397C190.342 61.4621 190.384 61.2138 190.29 60.9946C190.241 60.7657 190.238 60.527 190.281 60.2786C190.202 59.0036 190.266 57.8416 190.473 56.7926C190.533 56.3971 190.597 56.0245 190.667 55.6749C190.726 55.2794 190.763 54.8888 190.776 54.5031C190.886 53.6664 191.032 52.8935 191.217 52.1845C191.447 51.4656 191.644 50.7059 191.809 49.9053C192.168 48.4414 192.574 47.087 193.027 45.8423C193.516 44.542 194 43.2188 194.48 41.8728C194.68 41.6868 194.801 41.4696 194.844 41.2212C194.877 40.9271 194.971 40.6919 195.124 40.5156C195.325 39.6594 195.619 38.9031 196.006 38.2467C196.393 37.5903 196.78 36.9338 197.166 36.2774C197.356 36.0456 197.523 35.8187 197.668 35.5966C197.802 35.3288 197.96 35.0561 198.14 34.7785C198.248 34.612 198.361 34.4683 198.479 34.3476C198.633 34.1713 198.736 33.9819 198.789 33.7793C198.952 33.6488 199.088 33.5003 199.196 33.3337C199.35 33.1575 199.481 32.9861 199.59 32.8195C199.744 32.6432 199.897 32.467 200.051 32.2907C200.205 32.1144 200.359 31.9381 200.513 31.7619C200.821 31.4093 201.083 31.0665 201.299 30.7334C201.552 30.3448 201.837 29.9972 202.154 29.6904C202.511 29.5668 202.735 29.4952 202.827 29.4757C202.918 29.4563 202.949 29.3779 202.92 29.2405C203.372 28.6659 203.647 28.2725 203.746 28.0601C203.88 27.7923 203.992 27.5293 204.081 27.2712C204.398 26.9645 204.665 26.6445 204.881 26.3115C205.088 25.9326 205.35 25.5898 205.668 25.283C205.874 24.9042 206.014 24.6592 206.086 24.5482C206.204 24.4274 206.322 24.3067 206.439 24.1859C206.502 24.0291 206.574 23.9181 206.656 23.8528C206.774 23.7321 206.846 23.621 206.872 23.5197C207.081 23.3795 207.268 23.2442 207.432 23.1137C207.586 22.9374 207.79 22.7743 208.045 22.6243C208.376 22.602 208.627 22.5485 208.801 22.4638C209.02 22.3693 209.226 22.3255 209.419 22.3324C209.703 22.3198 209.934 22.3904 210.11 22.5444C210.322 22.6428 210.562 22.7592 210.83 22.8937C211.399 22.8685 211.874 23.0785 212.256 23.5237C212.674 23.9134 213.09 24.1838 213.505 24.3349C213.812 24.6525 214.142 24.9652 214.494 25.2731C214.883 25.5255 215.235 25.8333 215.552 26.1967L215.826 26.1383ZM213.258 40.3936C213.555 40.6654 213.893 40.9046 214.272 41.1112C214.641 41.272 215.01 41.4327 215.379 41.5935C215.126 40.4032 214.899 39.1116 214.699 37.7186C214.535 36.2702 214.28 34.9605 213.936 33.7896C213.691 33.3152 213.429 32.8686 213.148 32.4497C212.914 32.021 212.692 31.5417 212.484 31.0118C212.262 30.8676 212.086 30.7137 211.955 30.55C211.87 30.3766 211.763 30.2081 211.632 30.0444C211.345 29.8184 211.197 29.6825 211.187 29.6367C211.167 29.5451 211.102 29.4633 210.991 29.3912C210.88 29.3191 210.746 29.2518 210.589 29.1895C210.478 29.1174 210.362 29.0224 210.242 28.9045C209.683 28.9755 209.249 29.1873 208.941 29.5398C208.669 29.8368 208.398 30.1339 208.126 30.4309C208.17 31.0913 208.274 31.6914 208.437 32.231C208.599 32.7707 208.78 33.2826 208.978 33.7667C209.301 34.6074 209.623 35.4481 209.945 36.2887C210.267 37.1294 210.657 37.8362 211.113 38.409C211.227 38.7197 211.493 39.07 211.911 39.4597C212.319 39.8036 212.768 40.1149 213.258 40.3936ZM202.786 36.375C202.605 36.6525 202.42 36.9072 202.23 37.139C202.04 37.3708 201.883 37.6435 201.758 37.9571C201.532 38.2444 201.352 38.522 201.217 38.7898C201.083 39.0576 200.926 39.3304 200.745 39.6079C200.565 39.8855 200.408 40.1582 200.273 40.426C200.129 40.6481 199.995 40.9159 199.87 41.2295C199.752 41.3503 199.662 41.4891 199.599 41.6459C199.537 41.8027 199.452 41.9644 199.344 42.1309C199.012 42.8234 198.779 43.3036 198.645 43.5714C198.511 43.8393 198.422 44.0974 198.379 44.3457C198.143 44.5872 197.968 44.8877 197.853 45.2471C197.774 45.551 197.7 45.8778 197.631 46.2275C197.434 46.6521 197.265 47.0948 197.123 47.5555C196.982 48.0162 196.863 48.472 196.768 48.923C196.538 49.6418 196.401 50.1254 196.359 50.3737C196.361 50.6124 196.341 50.8559 196.298 51.1043C196.174 51.4179 196.091 51.8182 196.051 52.3052C195.623 54.1188 195.336 56.1419 195.188 58.3744C195.184 58.8059 195.129 59.2242 195.024 59.6294C194.965 60.0249 194.951 60.4106 194.983 60.7866C194.976 60.9794 194.992 61.1674 195.031 61.3506C195.116 61.524 195.178 61.7022 195.217 61.8854C195.268 62.3529 195.32 62.8205 195.371 63.288C195.413 63.7098 195.487 64.1725 195.594 64.6761C195.789 65.5918 195.969 66.4387 196.135 67.217C196.3 67.9953 196.516 68.7868 196.783 69.5914C196.909 70.1866 197.057 70.6576 197.227 71.0044C197.357 71.168 197.556 71.3171 197.824 71.4516C198.092 71.5861 198.332 71.7025 198.544 71.8009C198.989 72.0893 199.437 72.4006 199.891 72.7348C200.335 73.0232 200.854 72.9849 201.446 72.6197C201.704 72.7084 201.956 72.6549 202.201 72.4591C202.447 72.2634 202.717 72.1821 203.011 72.2153C203.22 72.0751 203.439 71.9806 203.668 71.932C203.888 71.8375 204.102 71.7202 204.311 71.58C204.658 71.4106 204.982 71.246 205.283 71.0863C205.62 70.8711 205.939 70.6837 206.24 70.524C206.577 70.3088 206.919 70.1165 207.266 69.9471C207.603 69.7319 207.912 69.4987 208.194 69.2474C208.944 68.2745 209.477 67.5153 209.791 66.9699C210.044 66.5813 210.306 66.2385 210.578 65.9415C210.84 65.5987 211.079 65.2607 211.295 64.9276C211.475 64.6501 211.656 64.3725 211.836 64.0949C212.006 63.7716 212.144 63.4073 212.25 63.0021C212.358 62.8356 212.443 62.6739 212.505 62.5171C212.604 62.3048 212.679 62.0973 212.732 61.8947C212.903 61.5714 213 61.2397 213.023 60.8998C213.092 60.5501 213.207 60.1907 213.368 59.8216C213.477 58.9849 213.642 58.1842 213.862 57.4197C214.083 56.6551 214.229 55.8822 214.303 55.101C214.53 54.1436 214.713 53.3152 214.851 52.6158C215.025 51.861 215.108 51.1256 215.1 50.4096C215.208 50.2431 215.243 50.0683 215.204 49.8851C215.201 49.6465 215.231 49.4488 215.293 49.292C215.386 48.6023 215.437 47.9454 215.448 47.321C215.505 46.6869 215.547 45.9841 215.574 45.2127C215.372 45.16 215.207 45.1712 215.079 45.2462C214.942 45.2754 214.794 45.2588 214.638 45.1964C214.242 45.1369 213.85 44.981 213.462 44.7286C213.109 44.4208 212.745 44.2829 212.369 44.3149C212.156 44.2165 211.972 44.1361 211.815 44.0737C211.704 44.0016 211.547 43.9393 211.345 43.8866C210.447 43.264 209.567 42.6137 208.705 41.9356C207.879 41.2019 207.148 40.3524 206.512 39.387C205.906 38.5589 205.405 37.7801 205.011 37.0504C204.607 36.275 204.216 35.4489 203.838 34.5722C203.622 34.9053 203.423 35.2106 203.243 35.4882C203.109 35.756 202.956 36.0516 202.786 36.375Z" fill="#005994"/>
<path d="M232.695 52.4835C232.986 52.278 233.291 52.0219 233.608 51.7152C233.916 51.3626 234.183 51.0427 234.409 50.7554C234.871 50.2266 235.287 49.7075 235.657 49.1981C236.028 48.6888 236.444 48.1697 236.906 47.6409C237.177 47.3438 237.408 47.0794 237.598 46.8476C237.824 46.5604 238.032 46.3008 238.222 46.069C238.422 45.883 238.599 45.7019 238.753 45.5256C238.952 45.3396 239.152 45.1536 239.352 44.9676C239.934 44.5567 240.435 44.211 240.854 43.9305C240.982 43.8555 241.104 43.7577 241.222 43.6369C241.376 43.4606 241.545 43.353 241.728 43.3141C242.084 43.1905 242.424 43.2139 242.748 43.3845C243.061 43.5092 243.342 43.593 243.591 43.6359C244.051 43.7773 244.484 43.9006 244.89 44.0058C245.341 44.1014 245.76 44.2753 246.149 44.5277C246.465 44.8911 246.8 45.2267 247.152 45.5346C247.551 45.8327 247.9 46.237 248.2 46.7475C248.275 46.8751 248.337 47.0534 248.385 47.2823C248.434 47.5112 248.483 47.7401 248.531 47.969C248.645 48.2798 248.782 48.5857 248.942 48.8867C249.147 49.178 249.307 49.479 249.421 49.7897C249.58 50.0907 249.676 50.4292 249.708 50.8052C249.776 51.1257 249.73 51.4705 249.569 51.8396C248.407 52.9001 247.152 53.8608 245.804 54.7216C245.496 55.0741 245.16 55.4087 244.797 55.7252C244.469 55.9861 244.147 56.27 243.829 56.5768C243.57 57.1582 243.2 57.6676 242.719 58.1048C242.283 58.5324 241.926 58.9911 241.647 59.481C241.957 60.0372 242.293 60.4922 242.655 60.8458C243.017 61.1995 243.421 61.5205 243.865 61.8089C244.051 62.0086 244.255 62.1806 244.477 62.3248C244.735 62.4135 244.988 62.4793 245.237 62.5222C245.485 62.5651 245.871 62.5788 246.394 62.5633C246.907 62.5021 247.273 62.4242 247.492 62.3298C247.748 62.1798 248.049 62.0201 248.396 61.8507C248.733 61.6355 249.047 61.4252 249.338 61.2197C249.969 61.0377 250.383 60.7344 250.58 60.3097C250.813 59.8296 251.083 59.4132 251.391 59.0607C251.581 58.8289 251.781 58.6429 251.99 58.5026C252.19 58.3166 252.375 58.062 252.546 57.7386C252.605 57.3432 252.748 57.0018 252.974 56.7145C253.443 55.9928 253.905 55.464 254.36 55.128C254.583 54.6021 254.936 54.2398 255.421 54.0412C255.905 53.8426 256.301 53.567 256.609 53.2145L257.424 52.3234C257.696 52.0263 257.945 51.7342 258.171 51.4469C258.397 51.1596 258.646 50.8674 258.918 50.5704C259.153 50.3289 259.376 50.138 259.585 49.9978C259.831 49.802 259.998 49.5751 260.087 49.317C260.25 49.1865 260.396 49.0838 260.524 49.0088C260.651 48.9338 260.779 48.8588 260.906 48.7839C261.203 49.0557 261.389 49.2554 261.464 49.383C261.575 49.4551 261.646 49.5598 261.675 49.6972C261.678 49.9358 261.62 50.1155 261.502 50.2363C261.375 50.3113 261.312 50.4681 261.315 50.7067C260.88 51.1342 260.426 51.5895 259.955 52.0726C259.519 52.5001 259.116 52.9685 258.746 53.4779C258.749 53.7165 258.719 53.9143 258.657 54.0711C258.63 54.1724 258.591 54.3243 258.538 54.5269C257.995 55.121 257.507 55.7511 257.074 56.4172C256.641 57.0834 256.158 57.7364 255.624 58.3763C255.424 58.5623 255.23 58.7712 255.04 59.003C254.895 59.225 254.701 59.4339 254.455 59.6296C253.905 60.4166 253.354 61.2035 252.804 61.9904C252.243 62.7316 251.628 63.4366 250.956 64.1057C250.757 64.2917 250.562 64.5006 250.372 64.7324C250.172 64.9184 249.922 65.0912 249.621 65.2509C249.395 65.5382 249.126 65.7388 248.816 65.8527C248.551 65.9569 248.295 66.1068 248.05 66.3026C247.549 66.6483 247.117 66.9794 246.754 67.2958C246.446 67.6484 246.027 67.9288 245.497 68.1372C245.242 68.2871 244.967 68.3455 244.673 68.3123C244.424 68.2694 244.122 68.3098 243.766 68.4334C243.406 68.3184 243.061 68.2721 242.731 68.2944C242.656 68.1668 242.415 67.931 242.007 67.5871C241.635 67.1877 241.393 66.9519 241.282 66.8798C240.972 66.3236 240.702 65.9504 240.47 65.7605C240.228 65.5247 239.987 65.2889 239.745 65.0531C239.439 64.7355 239.196 64.3804 239.016 63.9879C238.873 63.5398 238.648 63.1569 238.342 62.8393C238.339 62.6007 238.259 62.4502 238.102 62.3878C237.981 62.2699 237.924 62.1145 237.931 61.9217C237.294 61.6264 236.893 61.4247 236.726 61.3166C236.595 61.1529 236.465 60.9892 236.335 60.8256C236.227 60.3219 236.164 60.0244 236.145 59.9328C236.125 59.8412 236.152 59.7399 236.224 59.6289C236.44 59.2958 236.689 59.0037 236.97 58.7524C237.288 58.4456 237.532 58.1306 237.703 57.8072C237.922 57.7128 238.086 57.5823 238.194 57.4158C238.348 57.2395 238.502 57.0632 238.655 56.8869C239.127 56.4039 239.581 55.9486 240.016 55.5211C240.442 55.0478 240.936 54.5599 241.499 54.0574C241.908 53.7312 242.1 53.2836 242.075 52.7148C242.096 52.1362 242.098 51.5854 242.083 51.0623C241.711 50.6629 241.456 50.4777 241.319 50.5069C241.227 50.5264 241.126 50.5001 241.015 50.428C240.858 50.3656 240.719 50.2755 240.599 50.1576C240.468 49.9939 240.311 49.9316 240.128 49.9705C240.001 50.0455 239.837 50.176 239.637 50.362C239.437 50.548 239.279 50.7013 239.161 50.8221C238.48 51.4454 237.789 52.0228 237.089 52.5545C236.378 53.0404 235.706 53.5902 235.071 54.2037C234.743 54.4647 234.393 54.7305 234.02 55.0012C233.693 55.2622 233.429 55.4857 233.229 55.6717C233.147 55.7369 233.052 55.8528 232.944 56.0194C232.872 56.1304 232.8 56.2414 232.728 56.3525C232.527 57.2086 232.351 57.8441 232.2 58.2591C232.085 58.6185 231.98 59.0237 231.884 59.4746C231.868 59.6217 231.828 59.7736 231.766 59.9305C231.74 60.0317 231.69 60.1379 231.618 60.2489C231.467 60.6639 231.362 61.069 231.302 61.4645C231.243 61.8599 231.11 62.2471 230.903 62.626C230.929 63.1948 230.872 63.8289 230.733 64.5283C230.631 65.1721 230.552 65.8111 230.495 66.4452C230.474 67.0237 230.398 67.5663 230.267 68.0728C230.181 68.5695 229.878 68.9449 229.358 69.1991C229.207 69.614 229.128 69.9179 229.121 70.1107C229.16 70.2939 229.104 70.5929 228.953 71.0078C228.789 71.1383 228.615 71.223 228.432 71.2619C228.305 71.3369 228.141 71.4674 227.941 71.6534C227.896 71.6631 227.796 71.7561 227.642 71.9324C227.488 72.1087 227.334 72.285 227.18 72.4612C226.98 72.6472 226.803 72.8284 226.649 73.0046C226.496 73.1809 226.396 73.2739 226.35 73.2836C226.003 73.4531 225.769 73.4788 225.649 73.3609C225.492 73.2986 225.332 73.3326 225.168 73.4631C224.776 72.9721 224.474 72.6774 224.262 72.579C224.276 72.1933 224.299 71.8533 224.333 71.5592C224.31 71.229 224.366 70.9299 224.501 70.6621C224.599 70.4498 224.716 70.2097 224.85 69.9419C224.975 69.6282 225.082 69.3424 225.17 69.0843C225.223 68.8817 225.235 68.7117 225.205 68.5744C225.121 68.401 225.105 68.213 225.157 68.0104C225.2 67.762 225.289 67.5039 225.423 67.236C225.502 66.9322 225.586 66.6512 225.675 66.3931C225.761 65.8963 225.874 65.4176 226.016 64.9569C226.111 64.5059 226.197 64.0092 226.273 63.4666C226.303 62.9338 226.316 62.4288 226.31 61.9515C226.294 61.4284 226.348 60.8908 226.469 60.3385C226.591 59.7862 226.708 59.2111 226.82 58.613C226.923 57.9692 226.966 57.3858 226.951 56.8627C226.948 56.624 226.978 56.4263 227.04 56.2695C227.102 56.1127 227.155 55.9101 227.198 55.6617C227.241 55.4133 227.279 55.1421 227.312 54.8479C227.381 54.4983 227.455 54.1715 227.534 53.8676C227.705 53.5442 227.776 53.3139 227.746 53.1765C227.763 53.0295 227.807 52.9004 227.879 52.7894C227.942 52.6326 227.963 52.5084 227.944 52.4168C227.96 52.2697 228.005 52.1407 228.077 52.0297C228.12 51.7813 228.186 51.528 228.274 51.2699C228.363 51.0118 228.429 50.7586 228.472 50.5102C228.57 50.2979 228.621 49.976 228.625 49.5445C228.697 49.4334 228.742 49.3044 228.758 49.1573C228.821 49.0005 228.842 48.8763 228.823 48.7847C228.853 48.2519 228.842 47.7518 228.791 47.2842C228.785 46.8069 228.866 46.2873 229.034 45.7253C229.08 45.0454 229.098 44.5633 229.085 44.2788C229.108 43.9389 229.232 43.5059 229.455 42.98C229.514 42.5845 229.597 42.1842 229.702 41.779C229.798 41.3281 229.875 40.9049 229.935 40.5094C229.994 40.114 230.059 39.7414 230.128 39.3917C230.187 38.9963 230.219 38.5828 230.223 38.1513C230.407 37.4422 230.552 36.8851 230.657 36.4799C230.753 36.0289 230.871 35.5731 231.013 35.1124C231.223 34.302 231.358 33.6991 231.418 33.3037C231.513 32.8527 231.641 32.4426 231.802 32.0735C231.862 31.6781 231.885 31.3381 231.872 31.0537C231.896 30.7137 231.947 30.3918 232.026 30.0879C232.321 29.451 232.481 28.9625 232.504 28.6226C232.528 28.2826 232.579 27.9607 232.658 27.6568C232.892 26.5065 233.19 25.3187 233.551 24.0934C233.913 22.8682 234.418 21.7559 235.067 20.7566C235.247 20.4791 235.428 20.2015 235.608 19.9239C235.834 19.6366 236.004 19.3133 236.119 18.9539C236.408 18.5098 236.711 18.1343 237.028 17.8276C237.336 17.475 237.616 17.1044 237.869 16.7159C238.493 16.7267 238.861 16.7682 238.972 16.8403C239.119 16.8568 239.238 16.8554 239.33 16.836C239.627 17.1078 239.884 17.5315 240.102 18.1072C240.357 18.6274 240.514 19.1442 240.576 19.6575C240.644 19.978 240.643 20.3131 240.574 20.6628C240.505 21.0124 240.504 21.3475 240.572 21.668C240.565 21.8609 240.576 22.026 240.606 22.1633C240.681 22.2909 240.659 22.4151 240.541 22.5359C240.557 23.0589 240.522 23.5688 240.436 24.0656C240.34 24.5166 240.245 24.9675 240.149 25.4185C239.813 27.2126 239.377 28.7647 238.842 30.0747C238.353 31.375 237.916 32.8077 237.531 34.3729C237.317 34.9447 237.127 35.5115 236.959 36.0735C236.827 36.58 236.715 37.178 236.623 37.8677C236.465 38.4754 236.284 39.0881 236.08 39.7056C235.876 40.3231 235.594 40.9094 235.234 41.4646C235.066 42.0266 234.921 42.5837 234.8 43.1359C234.714 43.6327 234.536 44.1489 234.267 44.6846C234.244 45.0245 234.193 45.3464 234.114 45.6503C234.025 45.9084 233.895 46.1992 233.725 46.5225C233.62 46.9277 233.505 47.2871 233.38 47.6007C233.301 47.9046 233.26 48.2723 233.256 48.7038C233.153 49.3476 233.033 50.0192 232.894 50.7186C232.792 51.3624 232.725 51.9507 232.695 52.4835Z" fill="#005994"/>
<path d="M275.704 58.6301C275.303 58.0933 275.067 57.2103 274.997 55.981C274.982 55.458 274.968 55.0542 274.955 54.7698C274.978 54.4299 274.958 53.8839 274.894 53.1319C274.84 52.4257 274.803 51.6918 274.785 50.93C274.812 50.1586 274.794 49.3969 274.73 48.6449C274.267 49.8439 273.864 51.1018 273.522 52.4186C273.17 53.6897 272.665 54.802 272.006 55.7554C271.957 56.1967 271.86 56.5283 271.715 56.7504C271.561 56.9267 271.385 57.1078 271.185 57.2938C271.021 57.4243 270.84 57.5825 270.64 57.7685C270.486 57.9448 270.384 58.2536 270.334 58.6948C270.154 58.9724 269.979 59.2728 269.808 59.5962C269.674 59.864 269.6 60.1908 269.586 60.5765C269.376 60.7167 269.186 60.9485 269.016 61.2719C268.691 61.7715 268.465 62.0588 268.338 62.1338C268.21 62.2088 268.11 62.3018 268.038 62.4128C267.658 62.8764 267.305 63.2386 266.977 63.4996C266.696 63.7509 266.331 63.948 265.883 64.0911C265.399 64.2898 264.749 64.4995 263.935 64.7205C263.166 64.9317 262.558 65.1089 262.11 65.2519C261.741 65.0912 261.483 65.0025 261.336 64.9859C261.189 64.9693 260.917 64.9312 260.522 64.8717C259.878 64.7693 259.528 64.7001 259.473 64.6641C259.427 64.6738 259.303 64.6523 259.1 64.5997C258.676 64.4029 258.38 64.2504 258.214 64.1422C258.037 63.9883 257.838 63.8392 257.616 63.695C256.585 62.6701 255.829 61.2517 255.348 59.4399C255.166 58.8087 255.144 58.1434 255.282 57.444C255.421 56.7447 255.551 56.1189 255.673 55.5666C255.795 55.0143 255.981 54.4246 256.23 53.7974C256.479 53.1701 256.67 52.6033 256.802 52.0968C256.881 51.7929 256.905 51.5723 256.876 51.4349C256.837 51.2518 256.78 51.0964 256.705 50.9688C256.63 50.8412 256.578 50.7087 256.549 50.5714C256.52 50.434 256.545 50.2134 256.624 49.9095C256.647 49.5696 256.716 49.2199 256.831 48.8605C256.947 48.5011 257.075 48.091 257.216 47.6303C257.508 46.7547 257.807 46.0213 258.112 45.4301C258.407 44.7932 258.605 44.0334 258.704 43.151C258.797 42.4613 258.992 41.9174 259.29 41.5191C259.625 41.0652 260.037 40.6426 260.528 40.2511C260.777 40.294 261.092 40.203 261.475 39.9781C261.894 39.6976 262.198 39.4415 262.388 39.2097C262.709 39.1416 262.941 38.9965 263.085 38.7744C263.57 38.5758 263.821 38.5223 263.841 38.6139C263.906 38.6957 263.985 38.7269 264.076 38.7074C264.177 38.7338 264.292 38.7094 264.419 38.6344C264.593 38.5497 264.73 38.5205 264.831 38.5469C265.066 38.9755 265.244 39.2488 265.365 39.3666C265.485 39.4845 265.555 39.5892 265.575 39.6808C265.604 39.8182 265.62 40.0062 265.623 40.2448C265.672 40.4737 265.683 40.6388 265.657 40.7401C265.46 41.1648 265.348 41.4277 265.322 41.529C265.332 41.5748 265.323 41.6484 265.297 41.7497C265.1 42.1743 264.864 42.7509 264.588 43.4794C264.302 44.1622 264.048 44.7665 263.825 45.2925C263.674 45.7074 263.498 46.0078 263.299 46.1939C263.099 46.3799 262.947 46.6754 262.841 47.0806C262.789 47.2832 262.759 47.481 262.752 47.6738C262.735 47.8209 262.701 47.9957 262.648 48.1983C262.368 49.3584 262.012 50.6065 261.578 51.9429C261.134 53.2334 260.75 54.4635 260.424 55.6333C260.456 56.0093 260.443 56.395 260.383 56.7905C260.36 57.1304 260.382 57.4606 260.45 57.7811C260.46 57.8269 260.466 57.9691 260.469 58.2077C260.508 58.3909 260.557 58.6198 260.615 58.8945C260.664 59.1234 260.712 59.3523 260.761 59.5812C260.81 59.8101 260.862 59.9426 260.917 59.9787C261.27 60.2865 261.469 60.4356 261.515 60.4259C261.551 60.3704 261.597 60.3606 261.652 60.3967C261.933 60.8156 262.105 61.0659 262.171 61.1478C262.272 61.1741 262.447 61.2087 262.695 61.2516C262.888 61.2585 263.135 61.1821 263.436 61.0224C263.773 60.8072 264.023 60.6343 264.187 60.5038C264.678 60.1124 265.032 59.7501 265.248 59.417C265.455 59.0382 265.661 58.6593 265.868 58.2804C266.038 57.9571 266.271 57.4769 266.567 56.8399C266.862 56.203 267.157 55.566 267.452 54.929C267.738 54.2463 268.033 53.6093 268.338 53.0181C268.633 52.3811 268.866 51.901 269.037 51.5776C269.185 50.9241 269.389 50.3065 269.648 49.7251C269.953 49.1339 270.184 48.5344 270.342 47.9266C270.553 47.1163 270.742 46.4301 270.91 45.8681C271.077 45.3061 271.271 44.6428 271.491 43.8782C271.688 43.4536 271.89 43.0518 272.097 42.673C272.339 42.2386 272.466 41.7092 272.477 41.0848C272.5 40.7449 272.597 40.4132 272.768 40.0899C272.974 39.711 273.122 39.3925 273.211 39.1344C273.473 38.7916 273.625 38.496 273.668 38.2477C273.757 37.9895 273.883 37.7953 274.047 37.6648C274.521 37.4204 274.891 37.2461 275.156 37.1419C275.411 36.992 275.754 36.919 276.186 36.923C276.503 36.6162 276.868 36.419 277.28 36.3314C277.692 36.2439 278.086 36.184 278.462 36.152C278.511 36.3809 278.591 36.5314 278.702 36.6035C278.849 36.6201 278.942 36.7199 278.981 36.9031C279.252 37.2762 279.359 37.7798 279.302 38.4139C279.245 39.048 279.258 39.6675 279.338 40.2724C279.344 40.7497 279.253 41.2235 279.066 41.694C278.915 42.1089 278.824 42.5827 278.794 43.1155C278.757 43.8412 278.73 44.2776 278.714 44.4246C278.697 44.5717 278.682 44.8381 278.668 45.2239C278.66 46.0869 278.642 46.9041 278.615 47.6755C278.578 48.4012 278.611 49.2316 278.714 50.1667C278.762 50.3956 278.77 50.6571 278.737 50.9513C278.74 51.1899 278.761 51.4008 278.8 51.584C278.848 51.8129 278.907 52.0876 278.975 52.408C279.089 52.7188 279.27 52.8956 279.518 52.9385C279.812 52.9717 280.014 52.905 280.122 52.7385C280.276 52.5622 280.493 52.3484 280.775 52.0972C280.965 51.8654 281.15 51.6107 281.33 51.3332C281.511 51.0556 281.696 50.8009 281.886 50.5691C282.066 50.2916 282.279 50.0549 282.524 49.8592C282.77 49.6634 282.983 49.4268 283.163 49.1492C283.759 48.3526 284.305 47.5427 284.8 46.7198C285.341 45.8871 285.952 45.1591 286.633 44.5358C287.2 43.6018 287.781 42.7365 288.378 41.9398C289.01 41.0877 289.758 40.3305 290.622 39.6683C291.115 40.1856 291.314 40.6698 291.218 41.1207C291.113 41.5259 290.962 41.9408 290.765 42.3655C290.693 42.4765 290.557 42.625 290.357 42.811C290.157 42.997 289.999 43.1504 289.881 43.2712C289.809 43.3822 289.719 43.521 289.61 43.6875C289.502 43.8541 289.402 43.9471 289.311 43.9665C289.35 44.1497 289.315 44.3245 289.207 44.491C289.135 44.6021 289.063 44.7131 288.991 44.8241C288.59 45.8663 288.101 46.8315 287.525 47.7197C286.938 48.5621 286.379 49.4226 285.848 50.3011C285.547 50.4608 285.375 50.6648 285.332 50.9132C285.326 51.106 285.227 51.3184 285.037 51.5501C284.903 51.818 284.763 52.0629 284.619 52.285C284.465 52.4613 284.321 52.6833 284.186 52.9512C283.98 53.33 283.796 53.704 283.635 54.0732C283.511 54.3868 283.294 54.7199 282.986 55.0724C282.806 55.35 282.677 55.6407 282.598 55.9446C282.555 56.193 282.443 56.4559 282.263 56.7335C281.975 57.1776 281.739 57.4191 281.556 57.4581C281.409 57.4415 281.338 57.6718 281.344 58.1491C281.036 58.5017 280.874 58.7515 280.857 58.8985C280.831 58.9998 280.767 59.0373 280.666 59.011C280.584 59.0763 280.433 59.1561 280.214 59.2505C279.985 59.2992 279.88 59.3693 279.9 59.4609C279.609 59.6663 279.386 59.8572 279.232 60.0335C279.124 60.2 278.937 60.3354 278.672 60.4395C278.097 60.6576 277.652 60.7043 277.338 60.5795C277.08 60.4908 276.78 60.3155 276.437 60.0534L275.704 58.6301Z" fill="#005994"/>
<path d="M305.686 39.6246C306.229 41.2796 306.55 42.7904 306.649 44.157C306.739 45.4779 306.65 46.8605 306.383 48.305C305.92 49.5039 305.359 50.5802 304.7 51.5336C304.484 51.8667 304.295 52.2178 304.135 52.587C303.974 52.9561 303.758 53.2892 303.486 53.5862C303.214 53.8832 302.914 54.1622 302.587 54.4232C302.25 54.6384 302.001 54.9306 301.84 55.2997C301.667 55.3844 301.493 55.4691 301.32 55.5538C301.202 55.6746 301.061 55.8002 300.898 55.9307C300.459 56.1196 300.135 56.2842 299.926 56.4244C299.772 56.6006 299.59 56.7589 299.381 56.8991C299.171 57.0393 298.97 57.106 298.777 57.0992C298.585 57.0923 298.379 57.1361 298.159 57.2305C297.94 57.325 297.754 57.4603 297.6 57.6366C297.492 57.8031 297.333 57.9565 297.123 58.0967C296.695 58.3314 296.278 58.3961 295.873 58.2908C295.467 58.1855 295.093 58.0019 294.751 57.7398C293.813 57.6042 293.135 57.3415 292.717 56.9518C292.345 56.5524 291.945 56.1349 291.518 55.6994C290.962 55.3389 290.568 54.9444 290.333 54.5157C290.134 54.0316 289.926 53.5017 289.708 52.926C289.177 51.5554 288.693 50.175 288.253 48.785C288.12 48.3826 288.028 47.9477 287.976 47.4802C287.925 47.0126 287.827 46.5548 287.684 46.1067C287.502 45.4755 287.306 44.7756 287.094 44.007C286.929 43.2287 286.856 42.5503 286.877 41.9717C286.881 41.5402 286.913 41.1267 286.972 40.7312C287.032 40.3358 287.068 39.9452 287.082 39.5595C287.158 39.0169 287.198 38.5299 287.202 38.0984C287.196 37.6211 287.241 37.157 287.337 36.706C287.38 36.4577 287.428 36.2322 287.48 36.0296C287.533 35.827 287.585 35.6244 287.638 35.4218C287.681 35.1734 287.706 34.9528 287.713 34.7599C287.756 34.5116 287.799 34.2632 287.841 34.0148C287.855 33.6291 287.915 33.2336 288.02 32.8285C288.171 32.4135 288.249 31.9903 288.253 31.5588C288.276 31.2189 288.286 30.9296 288.283 30.6909C288.326 30.4426 288.461 30.1747 288.687 29.8874C288.773 29.3907 288.836 28.8988 288.876 28.4118C288.961 27.915 289.07 27.4134 289.202 26.9069C289.333 26.4005 289.419 25.9037 289.459 25.4167C289.545 24.9199 289.654 24.4183 289.785 23.9118C290.081 23.2749 290.236 22.8828 290.253 22.7358C290.306 22.5332 290.354 22.3077 290.396 22.0593C290.593 21.6347 290.718 21.321 290.771 21.1185C291.125 20.086 291.48 19.0536 291.835 18.0212C292.18 16.943 292.58 15.9008 293.037 14.8947C293.617 13.575 294.18 12.283 294.725 11.0188C295.306 9.69908 296.011 8.4008 296.84 7.12398C296.965 6.81036 297.13 6.46412 297.337 6.08525C297.543 5.70639 297.745 5.30463 297.942 4.87999C298.194 4.49139 298.424 4.10765 298.63 3.72879C298.837 3.34993 299.076 3.01198 299.348 2.71495C299.836 2.08483 300.17 1.63099 300.351 1.35342C300.577 1.06612 300.936 0.846059 301.43 0.693231C302.336 0.452816 303.145 0.544054 303.857 0.966938C304.559 1.34403 305.131 1.89254 305.571 2.61246C305.654 3.456 305.843 4.22944 306.136 4.93276C306.429 5.63609 306.534 6.35545 306.451 7.09084C306.204 7.95673 305.962 8.8455 305.726 9.75717C305.535 10.6591 305.343 11.561 305.152 12.463C304.935 13.4662 304.688 14.3321 304.412 15.0606C304.137 15.7892 303.894 16.5586 303.683 17.369C303.515 17.931 303.297 18.4798 303.028 19.0155C302.805 19.5414 302.642 20.1263 302.54 20.7702C302.359 21.0477 302.235 21.3613 302.165 21.711C302.087 22.0149 301.911 22.3154 301.639 22.6124C301.517 23.1647 301.345 23.7038 301.122 24.2297C300.889 24.7099 300.623 25.1491 300.325 25.5474C300 26.7172 299.692 27.8592 299.403 28.9735C299.113 30.0877 298.745 31.1708 298.299 32.2227C298.08 32.3172 297.921 32.4705 297.822 32.6829C297.724 32.8952 297.63 33.1304 297.542 33.3885C297.273 33.9242 297.004 34.4599 296.735 34.9955C296.456 35.4854 296.132 35.985 295.762 36.4944C295.738 36.8343 295.541 37.259 295.171 37.7683C294.847 38.268 294.64 38.6468 294.551 38.9049C294.489 39.0618 294.427 39.2186 294.364 39.3754C294.348 39.5224 294.308 39.6744 294.246 39.8312C294.193 40.0338 294.09 40.2232 293.936 40.3995C293.828 40.566 293.742 40.7277 293.68 40.8845C293.621 41.28 293.555 41.5332 293.483 41.6443C293.401 41.7095 293.324 41.7976 293.252 41.9087C293.065 42.3791 292.948 42.6192 292.902 42.6289C292.857 42.6386 292.816 42.6713 292.78 42.7268C292.612 43.2888 292.487 43.6024 292.405 43.6676C292.324 43.7329 292.27 43.8161 292.243 43.9174C292.425 44.5487 292.518 44.9836 292.521 45.2222C292.523 45.4609 292.526 45.6995 292.529 45.9382C292.708 46.3308 292.833 46.8066 292.904 47.3657C293.011 47.8693 293.141 48.3681 293.294 48.8619C293.447 49.3558 293.595 49.8268 293.738 50.2749C293.917 50.6675 294.114 51.0323 294.33 51.3694C294.555 51.7522 294.884 52.065 295.319 52.3076C295.743 52.5044 296.202 52.5264 296.696 52.3736C296.87 52.2889 297.102 52.1438 297.393 51.9383C297.685 51.7329 297.912 51.5649 298.076 51.4344C298.266 51.2026 298.446 50.9251 298.617 50.6017C298.787 50.2784 298.962 49.9779 299.143 49.7003C299.546 48.8968 299.93 48.0017 300.295 47.0151C300.659 46.0284 301.01 45.0924 301.349 44.2071C301.422 43.4259 301.498 42.8834 301.577 42.5795C301.656 42.2756 301.702 41.9308 301.716 41.5451C301.7 41.022 301.621 40.5364 301.478 40.0883C301.381 39.6305 301.385 39.199 301.49 38.7938C301.523 38.4997 301.656 38.1125 301.889 37.6323C302.158 37.0967 302.383 36.6901 302.563 36.4125C302.897 35.9586 303.115 35.7449 303.216 35.7712C303.308 35.7517 303.394 35.7094 303.476 35.6441C304.235 35.3871 304.743 35.303 305.002 35.3917C305.26 35.4804 305.641 35.4712 306.144 35.3641C306.409 35.26 306.674 35.1558 306.939 35.0516C307.24 34.8919 307.556 34.8009 307.886 34.7786C308.262 34.7465 308.615 34.7193 308.945 34.697C309.266 34.6289 309.599 34.5101 309.946 34.3407C310.512 34.0768 311.23 33.8525 312.1 33.6676C312.375 33.6092 312.677 33.5688 313.007 33.5465C313.374 33.4686 313.73 33.345 314.077 33.1756C314.479 33.0422 314.872 32.8631 315.255 32.6381C315.628 32.3674 316.007 32.2389 316.393 32.2526C316.723 32.2303 316.991 32.3648 317.196 32.6561C317.448 32.9376 317.589 33.2664 317.621 33.6424C317.624 33.881 317.573 34.2029 317.468 34.6081C317.353 34.9675 317.208 35.1896 317.035 35.2743C316.649 35.2606 316.438 35.2815 316.402 35.337C316.366 35.3925 316.303 35.43 316.211 35.4494C315.881 35.4718 315.569 35.4664 315.274 35.4332C315.016 35.3445 314.74 35.2836 314.446 35.2504C313.786 35.2951 313.15 35.4542 312.538 35.7278C311.972 35.9916 311.411 36.2784 310.854 36.588C310.599 36.738 310.326 36.9157 310.035 37.1211C309.779 37.2711 309.501 37.4259 309.2 37.5856C309.073 37.6606 308.917 37.7175 308.734 37.7564C308.597 37.7856 308.469 37.8606 308.351 37.9814C308.05 38.1411 307.767 38.273 307.502 38.3772C307.283 38.4716 307.046 38.5938 306.791 38.7437C306.444 38.9132 306.262 39.0714 306.246 39.2185C306.219 39.3198 306.033 39.4551 305.686 39.6246ZM297.098 17.1178C296.385 18.944 295.706 20.8112 295.059 22.7192C294.447 24.5717 293.856 26.5158 293.284 28.5515C293.205 28.8554 293.131 29.1821 293.061 29.5318C293.028 29.826 292.982 30.1708 292.922 30.5662C292.752 30.8896 292.629 31.3225 292.552 31.8651C292.512 32.3521 292.468 32.8162 292.418 33.2574C292.315 33.9013 292.213 34.5451 292.111 35.1889C291.998 35.787 292.042 36.3281 292.24 36.8122C292.712 36.3292 293.063 35.7282 293.293 35.0094C293.513 34.2449 293.738 33.5032 293.968 32.7844C294.148 32.5068 294.301 32.2112 294.426 31.8976C294.541 31.5382 294.683 31.1968 294.854 30.8734C295.024 30.5501 295.172 30.2316 295.297 29.918C295.422 29.6044 295.574 29.3088 295.754 29.0312C296.201 27.9793 296.541 26.8782 296.775 25.7279C297.055 24.5679 297.38 23.3981 297.751 22.2186C297.919 21.6566 298.087 21.0946 298.254 20.5326C298.468 19.9609 298.635 19.3989 298.757 18.8466C298.86 18.2028 298.967 17.5818 299.079 16.9838C299.237 16.376 299.344 15.7551 299.401 15.121C299.392 14.4051 299.455 13.9132 299.59 13.6453C299.76 13.322 299.829 12.9723 299.797 12.5963C299.227 13.2917 298.741 14.0411 298.337 14.8446C297.924 15.6024 297.511 16.3601 297.098 17.1178Z" fill="#005994"/>
<path d="M344.909 25.2583C345.147 25.2554 345.304 25.3178 345.379 25.4454C345.5 25.5633 345.652 25.6028 345.835 25.5639C345.929 25.783 345.945 25.971 345.883 26.1278C345.866 26.2749 345.827 26.4269 345.765 26.5837C345.692 26.6947 345.625 26.8286 345.563 26.9854C345.537 27.0867 345.566 27.2241 345.65 27.3975C345.297 27.7598 344.832 28.0499 344.256 28.268C343.671 28.4403 343.262 28.7665 343.029 29.2467C342.328 29.7784 341.535 30.2102 340.649 30.5422C339.798 30.8186 338.912 31.1506 337.989 31.5381C337.599 31.9559 337.318 32.2071 337.145 32.2919C337.017 32.3668 336.871 32.4696 336.708 32.6001C336.211 32.5142 335.711 32.5249 335.207 32.6319C334.703 32.7389 334.185 32.7773 333.652 32.747C333.397 32.897 333.132 33.0011 332.858 33.0595C332.629 33.1082 332.387 33.2075 332.131 33.3574C332.026 33.7626 332.022 34.1941 332.119 34.652C332.217 35.1098 332.236 35.5364 332.176 35.9319L331.939 36.8435C331.942 37.0822 331.945 37.3208 331.948 37.5595C331.987 37.7426 331.985 37.9584 331.942 38.2067C331.88 38.3635 331.799 38.5481 331.701 38.7604C331.648 38.963 331.646 39.1788 331.695 39.4077C331.452 39.8421 331.316 40.3257 331.285 40.8585C331.245 41.3455 331.076 41.7881 330.778 42.1865C330.738 42.6735 330.587 43.0884 330.325 43.4312C330.109 43.7643 329.902 44.1432 329.705 44.5678C329.348 45.3616 329.016 46.0541 328.711 46.6453C328.452 47.2267 328.041 47.7687 327.478 48.2712C327.327 48.6861 327.106 48.9963 326.814 49.2018C326.598 49.5349 326.463 49.8027 326.411 50.0053C326.047 50.3218 325.648 50.6938 325.213 51.1213C324.777 51.5489 324.299 51.8897 323.779 52.1438C323.04 52.4924 322.279 52.63 321.498 52.5568C320.717 52.4836 319.962 52.3091 319.234 52.0333C318.831 52.1667 318.468 52.1481 318.145 51.9776C317.877 51.8431 317.55 51.769 317.165 51.7553C316.564 51.4045 315.927 51.1092 315.254 50.8695C314.581 50.6297 314.039 50.2186 313.628 49.636C313.429 49.1519 313.231 48.6677 313.032 48.1836C312.788 47.7092 312.576 47.2757 312.397 46.8831C312.218 46.4905 312.125 46.0556 312.119 45.5783C312.068 45.1107 311.971 44.6529 311.827 44.2048C311.72 43.7012 311.633 43.2892 311.565 42.9687C311.441 42.6122 311.44 42.1578 311.562 41.6055C311.71 40.9519 311.791 40.4323 311.805 40.0466C311.809 39.6151 311.827 39.2522 311.861 38.9581C311.949 38.7 312.033 38.419 312.112 38.1151C312.191 37.8112 312.298 37.5253 312.432 37.2575C312.619 36.7871 312.852 36.3069 313.131 35.817C313.41 35.3271 313.693 34.8601 313.982 34.416C314.178 33.9914 314.367 33.6403 314.547 33.3627C314.836 32.9186 315.152 32.4925 315.496 32.0844C315.84 31.6764 316.174 31.2225 316.498 30.7229C316.561 30.5661 316.651 30.4273 316.769 30.3066C316.887 30.1858 317.004 30.065 317.122 29.9443C317.522 29.5723 317.885 29.2558 318.213 28.9948C318.586 28.7241 319 28.4207 319.455 28.0848C319.782 27.8238 320.101 27.6364 320.412 27.5225C320.759 27.353 321.151 27.1739 321.589 26.985C321.91 26.9169 322.185 26.8585 322.414 26.8099C322.642 26.7612 322.862 26.6668 323.071 26.5265C322.856 26.1895 322.963 25.9036 323.391 25.6689C323.82 25.4343 324.154 25.3155 324.392 25.3126C324.85 25.2153 325.241 25.2519 325.564 25.4225C325.878 25.5472 326.178 25.7226 326.465 25.9486C327.047 26.2078 327.653 26.5815 328.283 27.0696C328.394 27.1417 328.523 27.1861 328.67 27.2027C328.817 27.2193 328.946 27.2636 329.057 27.3357C329.289 27.5257 329.457 27.7532 329.561 28.0181C329.711 28.2734 329.925 28.4911 330.202 28.6714C330.359 28.7337 330.521 28.819 330.687 28.9272C330.854 29.0353 330.984 29.199 331.079 29.4182C331.327 29.4611 331.553 29.5088 331.755 29.5615C331.994 29.5586 332.232 29.5557 332.471 29.5529C332.719 29.5958 332.953 29.57 333.172 29.4756C333.437 29.3714 333.735 29.3081 334.065 29.2858C334.304 29.2829 334.524 29.3078 334.727 29.3604C334.92 29.3673 335.131 29.3464 335.36 29.2977C335.716 29.1741 336.063 29.0047 336.4 28.7895C336.783 28.5646 337.236 28.4444 337.759 28.4289C338.485 28.466 339.18 28.2465 339.844 27.7704C340.554 27.2844 341.289 26.913 342.048 26.656C342.231 26.6171 342.391 26.583 342.528 26.5538C342.656 26.4788 342.811 26.4219 342.994 26.383C343.184 26.1512 343.453 25.9506 343.8 25.7812C344.146 25.6117 344.516 25.4375 344.909 25.2583ZM325.706 31.4933C325.161 31.1785 324.832 30.9851 324.721 30.913C324.646 30.7854 324.558 30.7084 324.457 30.6821C324.235 30.5379 323.982 30.4721 323.697 30.4847C323.413 30.4973 323.151 30.5051 322.913 30.508C322.151 30.5263 321.552 30.7492 321.117 31.1768C320.717 31.5488 320.318 31.9208 319.918 32.2928C319.283 32.9063 318.764 33.6148 318.36 34.4183C318.272 34.6765 318.165 34.9623 318.04 35.2759C317.961 35.5798 317.91 35.9017 317.887 36.2417C317.781 36.6469 317.694 37.0243 317.625 37.374C317.546 37.6779 317.505 38.0456 317.501 38.4771C317.369 38.9835 317.314 39.4019 317.337 39.7321C317.349 40.0165 317.357 40.2781 317.36 40.5167C317.411 40.9843 317.422 41.4844 317.392 42.0172C317.407 42.5403 317.454 42.985 317.532 43.3512C317.607 43.4788 317.714 43.6474 317.854 43.8568C317.995 44.0663 318.12 44.2071 318.231 44.2792C318.372 44.4886 318.517 44.7209 318.667 44.9762C318.862 45.2217 319.021 45.4034 319.141 45.5213C319.438 45.7931 319.78 45.9358 320.166 45.9496C320.551 45.9633 320.988 45.9901 321.475 46.0302C322.037 46.1978 322.404 46.2393 322.578 46.1546C322.751 46.0699 322.884 46.0178 322.975 45.9983C323.551 45.7803 324.024 45.4166 324.394 44.9072C324.764 44.3978 325.154 43.98 325.563 43.6538C325.813 43.0266 326.08 42.3716 326.366 41.6888C326.687 40.9506 326.963 40.222 327.193 39.5032C327.292 39.2909 327.362 39.0605 327.405 38.8122C327.448 38.5638 327.496 38.3383 327.548 38.1357C327.791 37.7013 327.885 37.4661 327.829 37.4301C327.819 37.3843 327.828 37.3107 327.854 37.2095C328.029 36.4546 328.054 35.8989 327.93 35.5424C327.807 35.1858 327.729 34.8196 327.697 34.4436C327.361 33.9886 327.038 33.483 326.728 32.9268C326.465 32.3608 326.124 31.883 325.706 31.4933Z" fill="#005994"/>
</svg>
